<svg xmlns="http://www.w3.org/2000/svg" viewBox="0 0 887.64 1000.51">
  <title>Netherlands_location_map</title>
  <g class="svg3008">
    <g class="layer9">
      <path class="path4312" d="M828.82,147.52c.45.68.81,4.34,1.06,5.47,1.11,5,1.41,10.45-.89,15.24-.6,1.26-1.84,2.05-2.35,3.41-.59,1.55-.08,3.48-.62,5-.68,1.89-1.57,2.93-1.73,5.11-.47,6.12,2.9,5,3.64,8.33.51,2.29-.11,6.09-.18,8.52,0,2.07,1.36,21,1.75,22.16.09.28.69,1,.88,1.35.22,1.27-1.8,3.52-1.56,5.54-.79,2.69-1.11,5.21-1.62,7.71-.26,1.32-3.92,11.47-4.54,12.55-1.67,2.89-4.22,5-5.89,7.81a14.89,14.89,0,0,0-.95,2.41,21.82,21.82,0,0,1-3.14,4.86c-2,2.59-4.66,4.62-6.33,7.43a8.7,8.7,0,0,0-1.3,6.08c.68,3.56-3.24,5.82-4.2,9.07a21.85,21.85,0,0,0-.16,3.24c-.9,6.27-.38,11.61-.78,17.7-.12,3.1,0,6.22-.29,9.28-.29,3.39-.91,6.76-1.17,10.13-.21,2.82.31,5.64.22,8.43-.06,2.32-1.61,8.7-3.87,9.75-5.3,2.47-8.69-4.73-12-3.93-.68.48-1,1.23-1.68,1.71-.34.1-9.62.58-10.36.52-1-.44-2.11-3.54-3.65-4.22a6.35,6.35,0,0,0-1.52-.35,38.57,38.57,0,0,0-4.58.73,91.69,91.69,0,0,1-11.72.52c-4.22,0-5.06-3.05-10-.71-3.47,1.63-6.3,6.58-8.74,7.08l-.39.9c4.24,5.54,1,6.79.28,12.64,1.25,1.82,6.78,3.53,8.18,6.56l-.28.8c-1.26,1.31-4.91.27-6.61.36-1.24,1.41-.63,2.17-1.24,3.22-1.25,2.14-4.44.3-6.1.54l-.28.9c.82,1.44,2.27,3.29,2.74,4.83a41.15,41.15,0,0,1,.55,11,21.26,21.26,0,0,0-.55,3.12,7.46,7.46,0,0,1,.62,1.52c2.61,1.78,7.06,4.53,9.07,6.81,4.73,5.37,16.34.75,20,1.9.89.65.81,2,1.73,2.67a5.87,5.87,0,0,0,1,.5,3.26,3.26,0,0,0,1.2.3c2.44.23,4.69,2,7.06,2.54a31.83,31.83,0,0,0,3.2.26c1.67.22,4.67,2,6.21,1.44,2.8-1.05,5.17-5.77,6.67-8.07l.73-.35c2.45.85,5.11,11.29,6.27,13.61a7.54,7.54,0,0,0,2.71,2.84c5.66,3.73,5.85,2.65,6.94,9.9.35,2.32,1.23,5.4.9,7.71s-6.14,11.63-6.9,14.7c-2.35,9.55-2.6,10.54,1.62,19.36a23.42,23.42,0,0,1,1.68,4l-.1.61c-2.6,2.61-8.29,2-11.84,2.61-3.7,3.2-4,10-7.16,14.18-1.51,2-9.93,2.9-10.93,3.48-1.45.83-2.07,3.6-3.08,4.85-.76.94-1.69.78-2.31,2.16-1.44,3.18.25,7.68-3.42,10-3.49,2.24-17.71-1-20.39,1.87a4.7,4.7,0,0,0-.46.64c-.59,1.34-.78,2.81-1.45,4.22a6.44,6.44,0,0,0-.34.7c-.44,1.73.25,3.12-.78,4.86-2.26,3.81-8,2.28-10.13,4.31-.65.61-1.13,4.34-1.13,5.27,0,1.09-.52,3.58-.12,4.41l.69.45c7.64-.71,6.18.25,11.81,4.05,4.66,3.13,8.28,3,11.84,8a23.18,23.18,0,0,0,3.52,3.69c-.14,2.49,1.82,4.84.57,7.46-1,2.12-3.6,1.2-5,2.76s-1.31,6.92-3,9.33-5.26,3-7.33,5c-.58.56-.77,1.45-1.29,2.06-.81.39-4.86,2.74-5.22,2.7-2.09-.95-4-1.72-5.44-3.6-.45-.59-.81-1.45-1.62-1.71-2-.62-3.56,1.54-5.21,2.35-2,1-9.67,2.1-13.11,3.5-2.48,1-4.66,3-7.23,3.77a8.64,8.64,0,0,0-2-.29c-1.54,1-2.66,2.73-4.32,3.5-1.44.68-3.34,1-4.64,2-2.92,2.14-.52,2.56-5.83,4.21a5.69,5.69,0,0,1-2.59.55c-.52-.63-2.19-2.49-3-2.61a11,11,0,0,0-1.9.29,37.75,37.75,0,0,1-5.39-1.45c-1.08-.4-2.07-1.25-3.3-.71l-.28.9c.46.88,1.16,2,1.51,2.87a63.48,63.48,0,0,1,.4,9c-.86.24-1.83-1-2.86-1-1.67-.07-4,1.4-5.54.8-.24-1.6.81-3.26.44-4.47-1.52-1.76-6.26-3-8.47-2.79a26.12,26.12,0,0,1-2.69.54c-1.22-1.67-1-3.2-2-4.66-.76-1.16-2.93-3.4-4.44-3.15-.83.14-1.42.89-2.23,1.09a18.11,18.11,0,0,1-3.14.16c-3.48-.23-8.37,2.09-10.31-1.77-.39-.77-.44-1.66-.84-2.44a5,5,0,0,1-1.45-.8,18.82,18.82,0,0,0-1.19-3.22,15.23,15.23,0,0,0-4.54-3.31,3.16,3.16,0,0,0-2.35.8,5.13,5.13,0,0,1-2.35.9c-1.24.11-2.92-.22-4,.16-.44.75-1.28,1.32-1.29,2.25.51.81,2,.81,2.75,1.51,3.3,3,2.07,3.35,3.64,6.21,2.25,4.06,5.84,1.64,5.71,7.62,0,.69,0,1.92-.6,2.41-5.2-2.72-11-2.88-16.54-4.66-2.14-.69-3.68-2.31-5.55-3.4-1.53,4.62-1.09,2.84-4.09,5.2-1.52,1.21-4.44,4.69-6,5.18-4,1.31-7.28-2.31-11.94,1.8v.64a5.26,5.26,0,0,1,1.45.8l-.32.55a4.77,4.77,0,0,0-1.47.8l-.34.71.28.81c6.75,1.36,2.62,5.35,5.38,8a2.34,2.34,0,0,1,1.69.54c.2.52.42,1,.67,1.52l-.12,1.09a3.22,3.22,0,0,0-.83,1.32,4.38,4.38,0,0,1,1.35,2c0,2.35-4.41,3.88-6,5.44a4.68,4.68,0,0,1-1.06.83,4.38,4.38,0,0,0,1.18,3.51c2,.08,4-.92,5.88-.74,2.93.29,8.51,5,10.53,7.1l-.33.52a2.93,2.93,0,0,0-1.34.9c-.59,2.07,0,4.13,0,6.28,0,1.41-.59,3.4-.28,4.66,1.07,4.39,8.15,5.44,11.7,6.36,1.78.47,3.49,1.27,5.27,1.71l.52.54c-.73,2.83-5.32,13.41-4.44,15.34,1.3,1.4,3.39,2,4.38,3.48,1.38,2.1,1.52,4.81,3.14,6.82,1.24,1.55,3.19,1.75,4.58,3.15,1.1,1.09,2,4.54,2.81,6.08,1.86,3.71,5.76,6.32,7.62,10.13a8.68,8.68,0,0,1,.51,3.86c-.68,5.33,3.08,8.17,2.79,11.22-.19,2-1.78,4-1.85,6,0,1.6.77,3.05.56,4.85-.22,2-2.06,7.64-1.89,9l.44.73a5.12,5.12,0,0,1,3.08,1.36l.16.87c-.5.62-1.27.93-1.79,1.54-.46,1.34,2.09,6.93,1.29,9.23s-3.71,4-5.43,5.66c-.87.84-1.07,2.65-1.79,3.76-1.37.38-2.67,1-4,1.42-1.48,3.39-2.47,6.64-4.26,9.87-1.18,2.13-3.24,3.57-4.36,5.64-.69,1.27-1,2.69-1.63,4a35.5,35.5,0,0,1-4.64,5.73c-1.06,1.07-2.48,1.81-3.26,3.14-.07,1.41,1.21,3.31,1.41,4.93-.9.59-2,1.12-2.25,2.25-.36,1.45.77,12.27,1.46,13.63a5,5,0,0,0,2.18,2.25,13.21,13.21,0,0,0,2,.07c1.54-.36,8.91-7,10.91-7.79,1.54-.63,4.11-.1,4,2-2,1.2-3.84,2.94-5.89,4l-.32.71c1.25,2.47,3,1.88,4.81,3a2.8,2.8,0,0,1,.51,1.71,34.91,34.91,0,0,1-7.11,4.92c-2.52,1.22-5.23,1.83-7.46,3.6-1.15.9-1.62,2.68-3,3.13s-4,1.23-4.91,2.15c-1.35,1.31-2.07,4-3.54,5.37-2.31,2.23-6,2.69-8.18,5.11-1.58,1.51-3.71,3.39-4.7,5.21-1.08,2-1,4.79-2.3,6.63-.42.6-1.22,1-1.68,1.61s-.5.91-1,1.26a7.7,7.7,0,0,1-2.86.37c-4.58-.86-4.11-8.32-6.28-9.16l-.89.29c-2.6,4.37-6.91,3.64-7.62,5.47-.59,1.51,1.24,2.28,1.45,3.66a17.44,17.44,0,0,1-.5,5.12c1.37,3.25,1.19,1.78,3.86,2.86,1,1.76,1.56,3.48,2.47,5.21-.13,2.24-2.53,4.35-1.85,6.81,2.3,1.12,7.36-3,9.81-3.78,2.8-.91,3.69,1.81,6,2.25,3.09.59,9.49-2.78,11.78.28l.1,1c-.92,1.68-3.56,2-3.7,4.05a2.59,2.59,0,0,1,.68,1.51,3.66,3.66,0,0,0-1,1.26c.53,3.55.19,7.58,4.49,8.68,1.18.31,2.75,0,3.8.38a3.3,3.3,0,0,1,.68,1.61c1.63.62,4.18.19,5.43,1.16l.22.71c-.76,2.46-2.35,4-2.07,6.92.18,1.86,3.2,5.5,2.64,7a13.11,13.11,0,0,0-1.69,1.63c-1.1,1.67.06,5.17-3,5.82l-.9-.28a3.14,3.14,0,0,0-.95-1.16c-2.69-.41-5.73,1.62-7.62,3.31-.72,3,2.76,5.42.65,10-1.43,3.1-2.51,4.19-5.63,2.15H582l-.68.45c-.29.61-.86,1.53-.6,2.22,3.5,4.25,9.37,6,6.72,12.48a14.84,14.84,0,0,1-2.19.25c-.72,0-1.5.47-2.24.45-2-.06-3.25-2.2-5.27-2.41s-9.32,3.12-12.77,2.8l-1-.84a6.85,6.85,0,0,0,0-3.86,6.38,6.38,0,0,0-1.85-.16c-1.07,1.46-4.6,3.82-6.45,3.13a4.51,4.51,0,0,1-.5-2.16l-1-.35c-1.88.89-4.59,3.33-6.67,3.14-2.29-1.72-1.91-4.42-5.65-4.4a3.82,3.82,0,0,1-1.51-2.77l-.79-.73c-2.45.2-3.49,3.65-5,5.26-.51.54-1.06,1.06-1.52,1.65L532,949l-1.13-.45-.6-.87c-3.4-.51-3.3,2.1-6,1.87l-1.35-.9c.53-2.38,2.48-4.59,2.74-6.89.21-1.93-1.69-3.4-1.57-5.4a7.25,7.25,0,0,0,.84-2.32c-3.77-2.7-8.94-3.37-11-8.07-1.75-3.91-2.48-6.07-1.35-10.39,1.72-.6,1.7-3,1.91-4.5a10.75,10.75,0,0,1,6.77-1.7c.41-1.68,1.8-2.35,2.53-3.76s.67-3.19,1.35-4.66c.21-.47,0-.28.45-.57l.56-.41c5.73,1.53,5.54-5.28,8.46-9.51,1.32-1.91,3.13-3.8,1.67-6.18l-1.1-.45c-1.77.78-3.74,3.09-5.79,1.16-1.91-5.07,6.24-7.25,8.14-10.39.09-.16,1.57-4.75,1.57-5.12A16.1,16.1,0,0,1,539,867c.21-1.4,1-2.49,1.06-4l-.44-.89c-1.39-.87-2.85-1.52-2.31-3.48,2.64-3.11,1.23-4.83,2.41-6.56,1.13,0,2.14.85,3,1.44l1.17-.19a3.79,3.79,0,0,0,1.25-1.87c.17-.79,0-1.77.1-2.6.16-1.06.77-1.93.92-2.94l.15-1a7.56,7.56,0,0,0-1.07-3.67l.72-.81c2.11-.55,6.46,2,7.18-2.15l-.28-1.09c-1.07-1.29-4.27-1.15-5-3.93,0-3.78,6.07-5,7.7-9.12a2.33,2.33,0,0,0,.21-1.56,8.12,8.12,0,0,0-2-2.41c-1-1.1-1.79-2.59-3.48-2.7-2.46.79-4.64,2.23-7.23,2.51a14.55,14.55,0,0,1-2.19-2.32c-1.87-3.34,1.87-4.14-5.49-7.62-3.77-1.78-4.64.56-7.72,1.16-1.27.25-2.76-.29-4-.19-1.5.12-3,1.14-4.6.81-4.6-1-2.29-4.38-5.71-6.18-2.84-1.49-16.13-5.26-17.27-6.73-.7-1.93-.05-6,0-8.26.13-3.47-.41-6.52-3.39-8.69a13.88,13.88,0,0,1-2.52-2c-.65-.75-1.14-1.93-1.85-2.6-1.45-1.4-5.17-1.9-7.07-1.26-1.26,1.16-2,3.17-3.64,4a47.36,47.36,0,0,1-5,1.87c-1.12.33-2.45,0-3.52.55s-1.73,2.14-2.81,2.67a5,5,0,0,1-3.44.15c-2.1-.62-4.35-1.72-6.36-1.92-3.36-.35-3.79,2.87-6.67,3.31-4.91.75-7.95-1.68-11.66-1.54-1.55.06-2.89.81-4.36,1.19a5.22,5.22,0,0,1-4.54-.55l-.46-1c.33-2.52,3.14-11.38,2.41-13-1.37-1.67-3.74-1.58-5.36-2.65-5.13-3.39-7.06,3.26-13.52-.66-2.18-1.33-1.41-6-2.19-8.24-2-5.68-11.58-12.42-11.38-17.68.18-4.41,5.4-7.16,5.61-11.65-1-2.13-4.59-11-6.27-11.83-1.27-.65-2.51.1-3.86-.26-2.21-1.6-1.25-3.4-2.59-4.6l-1.17-.16c-6.91,5-2.69,7.13-5.27,13.19-1.45,3.39-9.55,10.3-12.56,12.89-.76.65-1.3,1.85-2.24,2.25a9.37,9.37,0,0,1-1.24.26c-2.69-.64-4.24-5.19-8.12-5.63a45.54,45.54,0,0,0-7.4.52c-3.43.57-12.73,3.38-14.84-1a26.07,26.07,0,0,1,.33-4.14l.73-.81c1.11.42,2.32,0,3.47.55,2.58,1.14,4.49,3.41,7.62,3.22a25.23,25.23,0,0,1-1.4-2.87c-.48-1.7-.31-7.35.85-8.69.45-.52,1.11-.85,1.57-1.44.18-1-.25-1.57-.28-2.42-.06-1.33.85-2.59.44-3.95-1.61-.86-2.67-2.41-4-3.57-3.15-2.79-9.66-5.23-13.1-2.15-1.1,1-1.5,2.65-2.64,3.5s-2.55,1.09-3.7,2c-.89,1-1.81,2.5-2.86,3.13-.57.34-1.44.51-2,.9-1.87,1.4-2,4.14-3.48,5.84-.93,1.07-3,1.29-3.65,2.68l-.33.71c.45,1,.21,2.35.9,3.24l-.34,1c-1.65.2-4.12,1.69-5.37,1.54-3.53-1.82-2.86-.69-5.51-1.35a40.49,40.49,0,0,1-4.13-1.75,7.36,7.36,0,0,0-1.7-.5c-2.32-.16-7.32,3.6-9.4,2.44a10.2,10.2,0,0,1-.79-8.36c.28-.69.8-1.3,1.07-2.06.43-1.23,1.73-6.68,1.23-7.69l-.79-.73c-.35-.12-8,1-9.41,1.09a12,12,0,0,0-2.47.26c-1.26.37-2.12,1.83-3.3,2.51-4.29,2.47-9,3.86-13.41,6a4.14,4.14,0,0,0-2,1.4l.47,1a3.46,3.46,0,0,1,2.67,3.15c-.49,2.26-3.12,3.86-2.57,6.63.45,2.27,3.1,4.06,4.26,6,.71,1.21,1.14,2.67,1.85,3.86.48.82,1.51,1.6,1.91,2.42a9.38,9.38,0,0,1,.28,1.16c-1.11,1.22-.6,3.28-2,4.3-2.79,2.1-13.58,1.53-16.36-.16-1.16-.7-1.35-2.72-1.67-3.95-1.55-1.76-15.52-1.07-18.11-.49l-.66-2.1.49-2.9-1.73-3.57-1.83-1.25-3.89.36-.93-1.08-1.13-.63-2.12.45-2.14,1.93-2.28.23-2.09.88-1,.41-2.29-.15-2.68-1-2-1.26-8.24-2-4-2-1.53-3.63-2.54-2.72-.88.19-2.54-.94-2.2-1.54-6.1-5.08-.73,0-1.81,1.1-3.23.27-3.82,2.37-.91,1.36.67,1.82-1.5,3.09L165.8,734l-.16.76-1.4,1.9-2.54,6.53L159,743l-1.09-.08-.69-.63-4.48,2-7.65,1.21-1.14.18-.63-.62-4.05-3.92-2.2-1.46-.26-1-1.57-.53-2.77-.92-1,.56-3.72-.88-1.24-1.43-.06-.61-.07-.71-1-1.95-.6-1.16-.87-.71-2.41-2h0l-3.75-3.06.69-.61.52-.48,1.12.25,1-2-1.11-1.65-.83,1.14-2.78.57-.48.83-1.42-.39-1.29,1L113,725l-.45.08-1.6.24-1.39,1.83-1.8,1.25-1-.32-2.79.27-1.56-.15-.72-1.45-1,.45-1.76.82-.39.2-.16,0-1.68.37-.28.06-3.23-2.89L92,725.36l-.76-.26-4.38-3.72-3.16-6.15L79.42,710,74,706.65l-4.1-3.94-2.13-1.24.15-3.33,1.71-2.95,5.19-3,4.42-3.59,2-1.31L86,684.25l1.83-.38,3.72-3,3.6-2,2-.39,1.88.73,3.47-.08,2.85,1,1,.36,1.26,1.36a9.65,9.65,0,0,1,.46,2.62c0,1.25.55,3.2,1.25,3.34s1.11,1.81,1.81,1.94,3.06,2.09,3.61,2.51,2.09,1.94,2.09,2.78,1.53,3.2,1.67,3.75a17.4,17.4,0,0,0,2.36,3.9,3.47,3.47,0,0,0,2.65,1.11,10.18,10.18,0,0,0,2.64-1.53s1.53-1.81,1.53-2.36.56-2.78,1.11-3.06,1-1.81,1.67-1.95a9,9,0,0,1,2.36-.28,12.18,12.18,0,0,1,3.62.42,15.79,15.79,0,0,0,3.62.28c.55,0,2.22-.14,2.78-.14s1.81-1.39,2.78-1.53a20.33,20.33,0,0,1,3.89.42l2.51,2.22,1.39.11,2.2-.22L158,696l3,.47,1.8-1.11,2.88-.1.81,0,1,.85,2.91,4.47,4.32-1,3.07.91,5.2,2.76,1.72.38,2.37,2,1.37.84,3.92,2.37,2.11,5.08-.69,1.36,1.6,3.33L200,723l2.25,3.24,4.29,2.43,1.71.23,2.28,1.91,2.15.3.7-1,1.85-.73,1.21-.49,2-1.7,1.15-1,1.18-.2.83.71,2.07-.22.35,1.22.06.25.56,0,1.88-.06,1.66-.82h0l1.25-.55.34-.15.69.86.58-.51,1.57-1.41,1.1,0,.33.26.51.38,1.76-.36.63,1.24,2.59-1.86,2.05-.51-.32-4.86L239.59,716l.15-1.6v-.18l-.46-1.14-.18-.46-.66-.58-1-.89-.83-.73-1.22-.58-1-.45-1.63-2.24-.57-.21-1.39-.52-4.55-1.7-.92,1.08-1,1.21-1.1.18-2.94-1.6-.77-.94-5.11-2.54-1.53.65-2.46-.51-.92-.93-2.39,1.34-10-2.21-.67-.85-1.82-2.31-.43-1.54-1.48-1.53L191.56,693l-3.29-.84-2-4.51-3.09-1.82-1.31-.76h-1.39l-1.14-.91-.59-1.61.3-1.23.15-.63,1.07-.93,1.25-.23,4.09-1.23,1.66.46,8.75-5.42,3.32,0,2.55.87,2.83,2.19,1.48.16,7.67-.71,4,.24.71,0-1-2.15.79-.39.15-1-3,.71-1.44.34-1.78-.68-2.21-.05-2.83-.07-1.15-3.05-1.15-1.15-1.57-.46-.57-1.38.35-2.12.12-.73,1.87-2,4.63-1,1.86.3,4.4,2.65,5.92,2.56.39.17,2.61.5,1.08-.93,2.62.73,4.53.13,3.86.32,2.13-.37,5-2.16,5.37-1,1.3-1.08,2.41-.83,1.67-1.3,2.93-1.2,1.85-2.13,3.19-6.67.49-1.86v0l-.46-1.19-.43.44-1.86,2-.52-.12,1.47-2.64-1.88-.6L259,647.9l-.07,0-1.54.75-1.7,4.17-1.43,2-1.74.7L248.83,657l-2.61,1.64-10,.92H236l-3.06-.85-5.15-3.22-.14,0-1-.22-2.29-1.92-2.92-.64-1.22-.92-3.13-.4-1.69-1.71-.36-.55-1.91-2.92-3.48-1.65-6.07-1.69-2.2.66-1.28-.46-3.25.34-1.36-.29-.14,0-1.3-1.05-.37-.29-.22.08-.44.17-.63-.79-.15-2.06-1.48-3.57-1.59-2.82-.23-2.35-1.76.65-.61-.57-.69-2.33.7-3.06,0-2.88-.78-2.7L183.63,617l-1.15-2.53,0-.13-.34-.74-2.37-.39-1.42.31-1.65-.24-1.29-.76-3.42.06-1.15,1-6.12,1.2-1,1.44-.94.1-.17,0h0l-3.27,3.45-1.27,0-1.36-.69-.21,2.23-1.16.78-.19-.81-.06-.3-.38-1.6.31-.47.37-.56.37-.57L153.86,614l-.57-3.09.66-2,1.35-1.67,2.9-1.88,1.19-.25,4.42-.9,2-.4.35-.19,5.11-2.61,6.25-2.16,1.34-.06,2.27-.11,2.16-.11,1.28-.06-.53,1.72,2.52,1.82.92,1,1.57,1.72.74-.17,0-1,1.47-.61.61,2.53-1,.41.79,1.23,1.09-.79,1.34.18,2.46,2,6.51,3.16,1.85,1.7,1.75.69,1.5.6,5,3.45,6.8,3,1.69-.65,1.73,3.24,1.5,2.1,1.51.69,1.32,1.81,4,2.74,2.28,3.54,3.47,3.72,6.3,1.93,1.64,1.27,1.11.86,4,1.34,3.41-.1,3.15-.93,1.17-.92.87,0h0l.8,1.06.45.6,1.51-1.6.06-.07.09,0,.51.12v.09l.23,3.74.74.33.78-.68,1.18,0,1.29-1.45,1.12.19-2.38,2.07.27,1.14.52.39,1.81-1.24,2.06-.51,1.07.19.82.93,3.07,1.24,4.06,1.64,3.43.48,13.45-.76.62,0,5.56-2.16.54.73,1,.19-.22-.8-.11-.37,2.48-1.41,3-3.85,1.92-.28-1.11-2.42-.3-.65-.47-1h0l-3.44,2.37-.16,0-2.94.75-7.17,2.83-7.54.89-2.58-1.84-6.55-2.9-5.86-.18-2.45-.52-3.59-.32-2.55-1-.19-.12-1.08-.7-6-3.89-2.41-.81-1.68-1.56-.82,0-2.57-1.47L243.76,628l-6.61-2.67-4.09-1.61-3.48-4,0-.88,2.07-.3,1.23-1-.26-.88-1.53.86-2.26-.8-1.62-1.8-3.5-2.32-1.65-.16-3.57-1.64-1.39-2-3.88-2.38-2.51.39-1.73-.46-1.27-.25-.59-1.68-.93.85-1.61-1-2.76-.35-2.07-1.47-1.64-2.24-3.25.23-1.28.09.12-.89,2-1.48.4-1.19-.85-2.85-1.83-3.18-4.68-5.38-.34-1.23.47-1.27.61-.6.9-.87,2.64-5,.74,0,.32-1.33-2.7-2.5-.87.63-.31,1.49-.67.17L188,572.61l.45-1.79-1-2.62-5.75-.2-.06-.43c0-.37-.17,0,0,.6L180.35,570l-1.5-4.5-.69-3.88.65-4.39,1.48-2.23,1.9-1.64,3.09-1.44,4.81.11,4.53,1.82,2.8,1.3,1.17,1.14-.34.6-.31.48-.95.16-6.8-1.87L185,554.13l-.49.4c-.12.26-2.63,3.25-2.28,4.12,0,.11.19.5.76,0,.35-.31.79-1.57,1.23-2a1.45,1.45,0,0,1,1.4-.41,6.38,6.38,0,0,1,0,2.61c-.48-.17-.46,1.21-.65,1.35,0,0-2.6,3.88-2.08,3a22.31,22.31,0,0,1,2.25-1.72c.07.15.75-2.25.54-1.4a.64.64,0,0,1,.11-.72c.5-.64.34-2,.4-2,.45-.07.44,1.67.48,1.77l3.18-1,5.9.82c0,.33-.64.76-.64.76l1.77.5.29,1-1.64.49-2.6-.22,2.79.61,1.88,1,.38,1.7-.69,1.36-.79,1-5.3,1.53-.88-1.45-.73.55,1.06,2.4,1.88.22,4-1.55,4.77-.46.33-.54-1.95-.51.18-.87.13-.52.55.1.26-.27.13-.43-.29-.71-.51-1.16.11-1.74.11-1.31,1.08-2.09L201.2,557l1.32.77,3.34,1.58,6.61,2.94-5.25-6.76-5.76-2.58,0,0,6.79-4.3,4.21-5.77,1.76-2.43,19.11-22.27,1.92-2.23,3-4.16.29-.26,2.24-2,3.42-3.09,5.9-7.21,6.57-9.37,3.1-5.23.05-.08,1.92-3.26.69-1.16h0l.56-.94,5-8.2.87-1.8,1.68-3.46,0,0,.16-.33,10.8-22.21.07-.15,3.16-6.5,3-7.56,1.58-3.93,2.57-6.37L296.17,405l.17-.56.33-1.63,1.29-2.06.64-5-.13-.5.14-.48,4-14.13,1.2-4.3,1-5.71,1.62-8.84.36-4.37.57-6.88,1.11-5.93.29-8.07,1-6.1,0-.27,1-5.71L311,322l.64-7.31v0l0-.45,2-12.22.85-1.14.58-.8.17-.23.52-.7,2.42-5.45,3.87-14.06.06-.21,2.1-7.67.16-.76,1.37-6.88.19-2,.52-5.19.68-15.51.86-1.67.87-1.7,1.27-1,2.23-.15,4-.27,3-.2,0,.32,0,.41-.17,1.39,1.25.64,1,.07,1.06-.73,1.18-.81.74.27h0l.11,2,.05.84v0l0,0-1.63,3.68-.1,1.77,3.59,8.39,2.65,2.15,3.61,1.65.09,0L354,260l4.69,1.81.1,0,1.09-.16,3.52-.53.27-.24.77-.67,6.4-2.74.4-.43.36-.39,3.09-3.33,1.59-3.28,1.57-1.22,1.08-.39,4.36-1.58,1.13-.41,2.84.9,2.56-1.39,1,.41.85.36,1-.84.69.88.62.82.63.8,0,0-.88,1.18-.08.11,1.48,1.21.63,1.25,2.42,4.77.79,1.57,1.17,1.16.57,1.46,1.46,3.81,4.92,8.88.81,1.46.13,2.37v.08l-2.51,18.57.18,1.1,1.86,1.66,1.24,1,.56,1.32-.11,1.55.72,1.53,2.08,1.44,1.44,2.92,1.24,1,3.56-.15,1.64-1.29,3.18-3.74,1.3-.46,0,0,.37,0,3.08.15,8.83.44,2.37.63.31.89v0l.36,1.07,1.25.51.13.05,1,2.13v.17l-.19,5,.89,2.79.45.48,1.1,1.18,0,.46,0,.58-.79,1.55-.08.17L441.28,324l.41,1.38,1.18.21v.11l0,.53v0l-2.74,3.49-.72-.68-.56-1.38-.41-1-3.93.37-.34,1-1.09,3.32-.28.85.1,1.54,0,.52-1.38,2.54-8.34,6.44h-3.33l-.58.55-2.75,2.62L411,348.09l-1.07-.34-.35-2.29-.84-.77L408,344l-.88-.15-2.31-.38-.53-.25-.11-.05-.78-.38-.5-.23-.48-1-1.4,0h-.19l-3.21,1.62L397,343l-3-.92-1.18.48-2.25.93-1.14.46-1,1.28-.48,1.71.95,5-.34,1.34.56,1.17-.27,1.56,3,6.38,0,0v.05l-.55,1.81,1.36,1.09.34.27.05.07.17.28.72,1.11.11.38.16.54,1,3.33.78,1.23.45,2.88,2.45,4.37,1.55,1.81,1,2.64-.11,1.47-.18.35-.76,1.44-.88,1.13-.44.28-1.79,1.1-.16,2.73,1.51,3-.81,1L397,397l-.28.09-4.81.71h0v0l.05.13.35,1v0h0l.13,0h.07l.34,0h.1l1.89-.27-.1.51-.3,1.56.7,4,.8.1,5.4.65,1.61.92-.44.38-1.15,1-1.22,1-.84,2.68L397,414.68l-1.58.26-3.29,4.14-1.49.48-2.08,4.25-.51.29-.94.52-.22,1.59-.53.8-.27.41-1.31-.87-1.06-.7-.36.14-.93.36-1.54.6-1.21,1.51-2.36.2-.95,1,.64.37,2.33,1.33.68-.11.1,0,1.57-.28.58-.1.39.59-.19,1.23,0,.24,0,.23.32.52.64,1.06,1.75,1.15,1.27.13,1.59-.52,1.33-.44,1.05.2,1.39,1.59-1.24,1.06v.13l0,1.27,1.15-.21.92-.16,3.2-.58.34-.06.13,0,1.92.44,2-.79,1.25.34,2.18,1.07.73.72,1,.54,3.65,1.34,2.46,2.06L414,447.4l1.79,1.26,2.35,1,3.87.18,5.71-1.25.9-.45,2.41-.36,2.52.18,1.12.45L438,450l3.76,1.26,1.85,1.25.78.63.45,1.08.67.71,1,2,1.18,1.7,2.39,1,1.48.09,2.24,1,3,.45,2.3.62,1.73,1.35,1.23,1.52,3.57,2.69,2,.9,1.4.18,1.23-.18,4.15-1.52.84-.63,3.19-1.08h1.29l4.15-1.61,2.69.27,2.52-.27,2-1,2.13-2.24,1.79-3,1.91-4.57,1.51-5,1.57-3.13,1.46-1.62L504,441l.89-.36,2.36-2.15.89-2.42,1.18-1.7,1-.72,1.18-.27,2.75-1.44,1.75-1.31,2.62-1.82,1-.36,1.68-1.34.72-.27.73-.34,2.36-1.37,3.92-1.79,2.07-.57.4-.17,1.74-.79,2.68-1.61.79-.72,1.29-.52,1.51-1.09,2-1.81,1.86-1.95,1-.73.52-.65,1.95-1.58.56-.36.35-.61,1-1.11,1.92-2.94,1-2.24,1.07-1.61.84-.72,1.28-1.8.51-1.07.67-2.51,1-2.33.95-3.94,1-2.33.62-.9.89-2.42-1.09-4.51-.58-5.89-.62-2.16L555,367.44l-.17-1.16-.56-1-1.9-1.16-1.35-.27-3.13-1.7.67-.46,5.49.36,2.52-.27L559.1,360l-2.24,1.17-1.12-.27-.9-.72-.33-1.16.39-1.17.89-4.22,0-.88,0-.46-2.29.36-10.77-.18-6.33.35-16.14-.17-2.86-.36-.93-1.22.29-.17-.06-.1-1.86-2.87,0-.06-3.63-5.6-1.69-1.45-3-4.16-.68-.06-.63-1-.38-.58-.7-.08-.35-.05-1.09-1.09.74-1.27.1-1.32.21-2.58.27-14.85,0-2.58-.36-3.68.87-4.19.82-3.88.43-.65,12.48-18.21,2.81-.35,2.12-.84,4.48-.36.61-.4.06,0-.16-.56v0l-.16-.55-.21-.07-.47-.18-3-1.1-4.26.13-2.8.56-.74-3.23-1.86-2.41-1.3-.12-1.87,2-3.4,1-2.28-.18L503,275l-2,3.95-4.7,1-2.51-.24L478.39,273l-1.83-.12-2.35-.18-4.53,2.16-4.29-1.7-4-3.37-1.22-1-1.53-.56-2.48-5.86.79-2.22,2.91-3.09,2.27-1.07,1.59,0,1.58-1.14.73-1.41-.33-5.38L464,244.32l.37-.67,1.89-.92.42-1.56-.49-2.2.74-.65.11-2.47-2.45-8.37.71-5.91-.45-3.83-1.32-1.46,1.56-1.86-.38-3-1.91,1.28-1.43-1-1.29-3.21.6-1.82,3.06,1.23.29-.74L463,204.5l-2.31-5.72-.36-2.77-.37-2.82.87-2.69,3.14-3.74,1.84-3.64,1.36-8.66-.33-4.94.67-1.27,2-.28-1.17-2.76,2.18-6.16,2.52-4.24,5.35-5,5.75-4.45.33-.24,1.34-1,.31-.22,2.43-1.13h0l1.36-.64.15-.15,6.18-6.51.29-1.64,1.64-2.6,5.84-4.44,3.35-2,10-2.26,2.74.16,1.6-1.28,2.22-.4,7.83-4.71,6.12-3.67,4.59-1.46L544,110l5.12-2.14,1.75-1.42,6.36-2,4.21-2.64,2.29-.91,6.29.39,8.15-3.5,4.22-1.3,4-.51,5.66-1.72,3.31,0,4.76-.86,3.24.35,1.22-1.12,9.21,1.8.21,0,3.69-1.55s-.47,3-.62,3.75a13.08,13.08,0,0,0-.07,3.29c.15.57.36.22.72.79a3.86,3.86,0,0,1,.43,2.22,19.67,19.67,0,0,0-.07,2,8.44,8.44,0,0,0,.85,2.57,6.57,6.57,0,0,1,.36,2c.05.57,0,1,0,1.93a3.38,3.38,0,0,0,.72,2.5c.71.93,1.57,2.08,1.86,2.36s1.17,1.06,1.64.79c.23-.13.5-.22.07-.86s-1.86-2.22-2.21-2.65a4,4,0,0,1-.65-2.5c.08-.44.5-1.14.86-1.21a4.49,4.49,0,0,1,2.29.78,3.75,3.75,0,0,1,.78,1.36c.29.7.22,2.15.65,2.43s.79-.14.79-.57-.33-2,.14-2.65a1.58,1.58,0,0,1,1.29-.5c.51.08,1,.7,1.36,1.08a9,9,0,0,1,.71,1,6.1,6.1,0,0,0,1,1.43,3.4,3.4,0,0,0,2,.57.82.82,0,0,0,.58-.29.66.66,0,0,0,0-.5c-.22-.55-1.12-.89-1.36-1.43-.12-.27-.25-.76-.07-1,.47-.63,1.88-.19,2.57-.57a3.16,3.16,0,0,0,1.5-1.5c.08-.28,0-.78-.21-.93s-1.05.25-1.5.35a4.73,4.73,0,0,1-1.36.29c-.51,0-1.53-.14-1.57-.65s1.32-.77,1.85-1.14c.29-.2.82-.38.94-.72a1.82,1.82,0,0,0-.43-1.5.81.81,0,0,0-.72-.21c-.64.22-.73,1.48-1.29,1.86a3.93,3.93,0,0,1-2.86.64,2.39,2.39,0,0,1-1.14-1.22c-.25-.5,0-1.39-.29-1.85a3.79,3.79,0,0,0-1.72-.93,12,12,0,0,1-2.43-.58c-.35-.2-1-.6-.93-1s1-.6,1.5-.71,1.37.4,1.65,0-.27-.94-.5-1.29a5.94,5.94,0,0,0-1.58-1.5c-.46-.31-1.41-.25-1.71-.72a2.18,2.18,0,0,1,.07-1.64,5.72,5.72,0,0,1,.93-1.29h1.79l.78.5a15,15,0,0,0,1.44,2.43,7.28,7.28,0,0,0,2.71,2,3.4,3.4,0,0,0,1.79,0c.46-.13,1.22-.39,1.36-.85a1.68,1.68,0,0,0-.65-1.5,15.82,15.82,0,0,1-2.28-.79c-.29-.22-1.36-.5-1.51-.86s-1.43-1.14-1.43-1.14l-1.93-1.08-.71-.57.61-1,1.11,1.22.16.19,5.83-1.59.49-.13.7-.19.66-.29,1.64-.76L642.18,93l3.41,2.34,2.48,2.86,4.68-3,9.38-3.69,1.38-.72,9.39-1.22,4-1,.86-.22,4.85-.69,3.78.51,9.4-1.37L699.32,85l6.24-1,2.82-1.87,4.34-1.53,2.16-1.41,4.55-1.93,11-2.81,5.48-.3,5.79,1.11L746,77l2.49-1.31,1-.52L752,76v2l-2.23,2.06,1.15,1.19,4.33.13v-.85l-1.55-.9-.08-.52.13-.29.57-1.33,1.23.15,7.09,4.88L761.84,85l.22,2.72L761,91.87l.09.14,1.18,1.65,1.88,2.64v3.84l3.14,11.65,4.61,3.11,4.45,4.29,5.22,1.64,1.54,1,.68,1.25,1.63.27,1.76.27.15.88.92.89,2.53,1.11,9.55,1.41,1.19.18h.09l3.46-2,.4-.23h0l.08.42.14.75-2,2.34-.22.52,1.13,4.66-.78,4.5,3.82,3.7,2.15.82,3.83.6,5.28,2.17,1.31-.65,3.52,1.64Z" fill="#fff" stroke="#000" stroke-miterlimit="10" stroke-width="0.25"/>
      <path class="path4314" d="M229.77,757.72l-2.43-2.27-1.85-3.89-.69-1.48-1.07-.71-3.55-.76-.5.54-.09,1.7.4.73-.72.47-1.23-1.3,0,1.49.86,1.59-.7.69L217,753.09l-.3-2.06-.6-.5-1.47.13-1.16.7-.4,1,.42,1.54,1.89,1.26,3.66.41,2.84.31,0,1-4.69-.32.16.56,1.78.9.5,1.61-.74.17L217.12,758l-1.2.5.53,1.44-.89.24-1.92-2.86-.46.51.84,2-2.4-3.24-1-.71-1.82.44-.56.9L210,760l2.09,1.75L212,762l-.12.39-.83.09-3.67-3.19-1-1.66L204.54,756l-2.82-.71-1.7-2.15-1.87-.74-4.73-.35-2.1-1.18-.91-1.93-2.37-5-1.48-1.94-1.51-1.12-1.81-.9-2.4-.11-4.25-.23-1.09,1.94-.49.86-.23,3.48-2.2,5.92-2.27.46-1,.7-3.12.39-1.94.24-3,2.78-3.82,2.15-2.09,2.82-1.83.22h-1.05l-1.75,0-3.77-1.5-1.76-.7-.72.46-7.74-2.1h-.08l-.81,1.47-.56,1-.27.47-.45-.22-.08-.05-3.68-1.91-3.49-.59-2-.82-.64-.26-6.81-6.07-1.72-.59-4,0L108.09,749l-6-2.84-2.44-.48-3.79-2.21-1.16-1-1-.84-2.41-.76-5.22-1.64-.61-.56L83,739l-7.41,4-5.74,1.74-3.54-.36-9.86,3.85-2,2.38c-.82,6.33,6.24,9-1.63,17.42l-.1,1.16c.18,1,1.53,1.67,2.39,2l.46,1c.15,1.19-.82,2.11-1.12,3.22.44,1.4,1.66,2.28,1.85,3.86.14,1.18-.26,2.56.28,3.68.86,1.81,3.79,2.65,5.32,3.84,1.95,1.51,3.44,3.65,5.43,5,3.68,2.58,9.31.84,13.29.17,1.37-.23,2.85-.52,4.2-.81l.67-.8c.21-3.15-1-9.5-.6-11.39l.72-.8,2.91.35c3.22-1.12,2.72-3.54,7.51-1.8a9.24,9.24,0,0,0,2-.8A11.76,11.76,0,0,1,100,773.3c3.29-1.72,8.67,5.35,14.86,3.57,2.76.66,3.86,4.32,6.27,5.47,2.77,1.34,6.52.32,9.47,1.35,1.94.69,2.69,2.35,5,2.8a13.09,13.09,0,0,1,2.19-.65,4.84,4.84,0,0,1,2.74,1.81c-.39,3.46-2.18,9.47-.06,12.64,2.75,1.93,9.09,3,12.38,2.67,2-.21,3.87-1.4,5.83-1.16a3.23,3.23,0,0,1,.18,2.35l.6.8c5.07,1.16,6.78-6,10.16-2.51,4.6.55,11.5-8.39,15.41-10.77,2.6-1.58,6.14.07,9.13-1.7s5.73-4,8.68-5.83c9.7-5.89,15.8-11.12,22.7-20.26a36.33,36.33,0,0,0,4.26-6.16" fill="#fff" stroke="#000" stroke-miterlimit="10" stroke-width="0.25"/>
      <polygon class="polygon4330" points="210.49 753.55 210.69 754.93 207.61 755.49 206.63 754.86 206.22 753.77 206.7 752.65 210.49 753.55" fill="#fff" stroke="#000" stroke-miterlimit="10" stroke-width="0.25"/>
      <polygon class="polygon4332" points="168.36 616.42 169.41 616.6 171.88 618.94 175.32 621.24 175.12 621.85 171.8 620.56 167.73 621.02 164.22 622.48 163.45 621.92 165.69 620.06 167.01 617.72 168.36 616.42" fill="#fff" stroke="#000" stroke-miterlimit="10" stroke-width="0.25"/>
      <polygon class="polygon4334" points="174.87 630.5 172.9 631.46 169.73 632.17 169.18 631.44 168.87 631.02 169.07 630.58 169.14 630.41 170.38 629.78 174.91 629.61 174.87 630.5" fill="#fff" stroke="#000" stroke-miterlimit="10" stroke-width="0.25"/>
      <path class="path4336" d="M165.64,633.62l-1-.11,0,0-.53-.77,0-.12.22-.62,1.26-.28,2.81,1.65-2.74.27Z" fill="#fff" stroke="#000" stroke-miterlimit="10" stroke-width="0.25"/>
      <polygon class="polygon4338" points="184.88 634.1 185.46 635.7 185.05 636.68 183.56 636.59 181.63 632.6 180.35 630.77 178.48 628.06 178.65 626.73 181.55 626.77 182.09 627.19 182.43 630.42 183.34 632.61 184.88 634.1" fill="#fff" stroke="#000" stroke-miterlimit="10" stroke-width="0.25"/>
      <polygon class="polygon4340" points="235.69 628.96 235.89 627.99 237.19 627.78 253.39 634.13 253.43 635.09 252.99 635.4 249.69 636.69 246.89 637 246.53 636.52 241.36 633.87 237.24 630.53 235.69 628.96" fill="#fff" stroke="#000" stroke-miterlimit="10" stroke-width="0.25"/>
      <polygon class="polygon4342" points="251.89 637.87 254.39 639.56 254.33 640.08 251.29 640.04 250.09 639.55 250.93 638.27 251.89 637.87" fill="#fff" stroke="#000" stroke-miterlimit="10" stroke-width="0.25"/>
      <polygon class="polygon4344" points="125.39 659.88 125.87 659.64 126.41 659.38 127.56 660.3 126.12 661.39 125.14 660.77 125.39 659.88" fill="#fff" stroke="#000" stroke-miterlimit="10" stroke-width="0.25"/>
      <polygon class="polygon4346" points="118.69 669.32 123.77 663.56 124.74 663.81 125.81 664.58 125.27 665.71 123.44 667.85 121.73 667.78 120.68 669.23 119.01 670.03 119.49 670.98 118.14 672.22 117.79 670.98 118.69 669.32" fill="#fff" stroke="#000" stroke-miterlimit="10" stroke-width="0.25"/>
      <path class="path4348" d="M153.83,623.94l.29,1.54,0,0-.14.25.45.15,1.89.64.56.94-.46,1.25,0,0-.1,0-4.73-2-2.21.31-.32.47-.8,1.2-.45,1.86.32,2.35,1.8.3.69.56,7.85-2.08,2.34.72,3.75,3,2.73-.62,1.49.37,8.29-.53,2,2.58,1.15,2.91.78,1.15,1.07.56,1.59,2.81,1.81,4.73,1.36.69,4.62.49,5.06,2.55,1.11,1.37,4.56.82,1.91.34-.9,1.8-.13,2.3-.84,1.28,0,.74-1,1.22-2.55,1.2-4.13,4.59-.91-.31-1.71-.56-1.32.27-3.62,2.2-4.1,1.34-6.43,2.09-3.08-2.72-2.14-1.88-1.37-2.46-.14-.36-1.4,2-1.24-1.28-.76,1.14-.9-.12L163,667.8l-2-1.32-.61-.35-.78-3.14,0-2.23L158,658.91l-1.4-3.56-2.52-1.82-1.77.29-.46-.15-4.64-1.42-.86-.62-.6-.43,0-2.67-.55-.71-2.41-.94-4.71,4.41-1.34,0-2,.81-1.36,1.17-.25,1-1.17.57-5.61.6-.54,0-1.38.1-3.95-2.35-2.43-3-.77-2.49-.29-3.23.44-1.94,2.05-4.07,1.55-2,3.34-1.63,7.35-1.85,3.35-1.22.14-.06.37-.13.46-.17,3.77-.23,5.47,1.1,1.31-4.25,0-.14-.26-1.33,3.92-1,3.57-1.74Z" fill="#fff" stroke="#000" stroke-miterlimit="10" stroke-width="0.25"/>
      <path class="path4350" d="M112.91,679.68l2.61-1.08,3.24-.43,2.72-.55,2.49,1.07,1.09,1.28,1.48,0,3.36-1,1.06.48,1.21-1.09,2.87-.48,2.45.2L138,678l6.7-1.84,1.5.38,3.08-.72,4,1.48,2.06,1.39.09.13,1,1.3,2.18,4.42,1.51.83,1,1.9.85,1.57.2.36-.3.71-.25.57-4.31,1.13-1.7,2.6a5.43,5.43,0,0,1-2.09.77,4.33,4.33,0,0,1-2.65-1.67c-.69-.84-.69-1.67-1.81-1.81a7.29,7.29,0,0,0-3.06-.14c-1.39.28-2.36,1.95-3.06,2.09a5.36,5.36,0,0,1-2.64-.56c-1.11-.42-2.09-.84-3.2-1.25a4.42,4.42,0,0,0-2.92-.42,26.55,26.55,0,0,0-3.48,1.81,11.78,11.78,0,0,0-2.09,1.67l-2.78,1.81a9.3,9.3,0,0,0-1.67,1.66c-.27.56-.41,2.23-1,2.23s-1.39-.14-1.39-1.11a29.12,29.12,0,0,0,.27-3.48,6.73,6.73,0,0,0-1.39-3.06c-.69-.83-3.06-2.5-3.75-3.2s-2.09-1.25-2.92-1.94-2-1.26-2.09-2.09-.83-3.2-.83-3.76,1.81-2.22,1.78-2.06Z" fill="#fff" stroke="#000" stroke-miterlimit="10" stroke-width="0.25"/>
      <polygon class="polygon4363" points="706.55 49.12 704.39 51.19 705.44 52.69 703 52.38 700.14 50.46 701.29 48.76 703.14 48.02 708.09 47.94 709.24 48.83 706.55 49.12" fill="#fff" stroke="#000" stroke-miterlimit="10" stroke-width="0.25"/>
      <polygon class="polygon4365" points="674.79 51.21 673.79 51.36 673.4 50.26 674.08 47.67 674.77 46.86 676.24 46.71 678.87 47.95 684.76 49.4 687.08 50.8 687.63 51.83 686.93 52.72 685.85 51.32 685.08 52.43 683.07 52.65 680.9 51.41 676.26 49.96 674.79 51.21" fill="#fff" stroke="#000" stroke-miterlimit="10" stroke-width="0.25"/>
      <polygon class="polygon4367" points="612.43 74.98 612.16 74.07 612.11 73.88 610.81 75.21 610.33 73.96 610.47 71.96 612.21 68.42 614.5 65.81 617.03 64.32 642.18 60.82 643 60.78 647.5 60.57 652.61 61.28 653.54 62.38 650.7 64.39 648.61 64.69 646.62 66.1 641.06 67.02 638.69 69.63 634.54 71.57 625.23 72.3 621.05 72.4 617.89 73.26 616.59 74.65 614.75 75.47 614.68 76.88 612.23 79.04 611.47 79.19 611.07 78.38 611.36 76.61 612.43 74.98" fill="#fff" stroke="#000" stroke-miterlimit="10" stroke-width="0.25"/>
      <polygon class="polygon4369" points="594.24 76.9 597.55 76.58 598.81 78.19 598.5 78.93 597.81 78.57 596.82 79.84 595.97 80.06 595.22 81.69 594.21 81.04 594.19 79.42 593.48 77.51 594.24 76.9" fill="#fff" stroke="#000" stroke-miterlimit="10" stroke-width="0.25"/>
      <polygon class="polygon4371" points="568.01 77.63 567.87 77.62 562.88 79.82 554.6 81.71 549.81 82.4 546.44 83.92 543.89 83.44 542.5 83.67 537.16 82.42 535.39 82.74 531.23 81.7 530.91 81.62 530.71 81.71 529.6 82.22 526.35 85.88 523.13 87.18 518.2 87.62 515.21 87.31 513.8 87.17 509.75 84.86 509.52 84.72 507.93 82.01 507.87 81.52 507.66 79.81 508.72 78.31 508.87 78.1 507.88 77.25 507.78 77.16 508.06 76.19 509.21 75.36 511.12 74.08 513.51 74.19 518.95 76.18 522.42 76.94 528.81 77.27 529.22 77.29 550.57 75.9 550.7 75.89 561.91 74.67 569.44 73.84 574.69 73.71 577.08 74.2 578.26 74.87 579.88 75.8 576.44 78.11 568.01 77.63" fill="#fff" stroke="#000" stroke-miterlimit="10" stroke-width="0.25"/>
      <polygon class="polygon4373" points="442.18 104.83 440.7 104.2 436.86 104.28 434.18 105.36 432.31 107.17 432.15 107.32 428.85 107.46 426.98 110.08 426.6 110.22 425.82 110.5 425.45 110.63 424.77 111.31 424.79 112.19 422.29 113.87 420.46 114.5 418.14 114.1 416.27 112.81 414.78 108.42 415.12 106.49 421.76 100.67 423.78 97.97 425.36 97.18 426.07 96.82 424.4 96.65 423.7 96.57 424.58 96.06 425.64 95.43 427.43 95.7 428.58 95.89 432.33 95.42 437.81 94.74 438.38 94.62 439.96 94.3 443.78 93.52 458.73 89.4 462.4 88.27 484.68 81.47 491.99 79.23 495.54 78.89 499.5 80.53 499.86 81.23 499.9 81.32 497.64 82.48 496.77 82.93 494.99 83.03 494.02 84.6 493.77 84.72 491.21 86.06 490.02 86.68 489.06 87.18 487.67 86.78 487.35 86.69 485.07 88.28 483.3 88.68 481.94 89.73 480.32 90.13 479.07 89.11 478.07 88.99 479.12 91.55 476.98 91.43 475.1 89.95 474.04 89.89 474.06 90.48 477.77 93.72 476.86 94.69 462.55 95.21 456.83 98.22 454.62 99.7 454.15 100.03 453.82 100.25 449.54 103.15 449.39 103.1 447.6 102.59 445.45 103 444.09 104.21 442.18 104.83" fill="#fff" stroke="#000" stroke-miterlimit="10" stroke-width="0.25"/>
      <polygon class="polygon4375" points="380.4 145.19 376.19 148.54 372.39 149.88 367.41 156.35 364.27 156.57 362.18 155.67 361.72 155.71 361.53 155.73 360.9 155.78 357.89 156.06 355.72 155.16 354.97 155.77 354 154.1 355.05 153.18 359.05 150.57 363.16 149.44 366.93 146.91 370.9 143.28 372.82 141.09 374.93 138.68 375.64 138.19 380.62 134.76 383.31 132.9 383.68 132.64 390.88 128.72 395.98 126.45 397.74 126.2 403.38 127.25 403.79 128.5 402.95 129.67 402.83 129.84 397.47 129.97 397.06 129.98 394.59 132.46 391.11 134.69 390.64 134.84 385.55 136.51 383.31 137.48 378.03 139.79 377.52 140.52 377.36 140.76 377.69 141.29 378.18 142.08 379.21 143.74 380.37 143.86 380.76 144.44 380.4 145.19" fill="#fff" stroke="#000" stroke-miterlimit="10" stroke-width="0.25"/>
      <polygon class="polygon4377" points="325.58 225.54 324.5 222.4 324.5 219.67 327.6 205.78 328.6 203.56 329.68 201.15 331.37 198.89 332.58 195.69 333.19 194.78 333.27 194.65 335.75 190.94 336.31 190.11 343.11 179.97 344.93 177.25 348.78 171.52 348.95 171.26 353.66 166.72 354.89 166.84 358.28 170.23 358.64 172.21 358.86 172.67 359.87 174.77 361.7 175.79 362.5 176.24 365.11 182.09 364.82 183.21 363.87 186.91 364.26 189.58 364.33 190.08 364.24 190.59 363.81 193.06 363.8 193.19 363.6 194.3 363.6 199.83 359.72 203.17 358.32 208 354.39 212.75 351.71 215.03 347.46 216.25 342.89 222.13 341.76 224.47 341.6 224.81 340.74 224.4 340.07 224.86 339.51 226.71 338.23 227.27 336.17 227.17 335.66 228.08 334.38 228.62 329.08 230.09 327.88 229.12 327.51 228.81 327.33 228.51 327.15 228.2 326.56 227.21 325.58 225.54" fill="#fff" stroke="#000" stroke-miterlimit="10" stroke-width="0.25"/>
      <polygon class="polygon4379" points="404.82 397.03 405.49 396.87 406.45 397.64 407.65 398.6 411.64 398.29 412.03 398.87 411.74 399.39 410.38 399.64 406.71 401.46 403.98 402.81 403.13 402.31 403.12 401.42 404.36 399.92 404.82 397.03" fill="#fff" stroke="#000" stroke-miterlimit="10" stroke-width="0.25"/>
      <polygon class="polygon4381" points="476.11 377.22 476.95 376.59 478.19 374.71 479.14 372.47 479.75 371.48 482.67 370.58 486.25 370.04 487.99 368.88 492.42 364.13 493.32 363.5 495.5 361.17 498.98 358.75 501.33 358.3 505.08 358.03 508.28 357.05 511.14 355.52 512.26 355.25 513.15 354.63 514.5 352.83 517.02 356.24 519.32 357.23 521.78 358.03 523.29 358.21 524.48 358.75 528.62 359.65 535.68 360.63 536.63 361.17 538.09 362.78 539.62 363.06 542.07 363.5 546.22 363.68 550.2 364.49 551.04 365.2 551.89 366.55 551.99 366.73 552.1 366.86 552.66 367.54 553.91 370.28 554.63 371.3 555.91 373 557.09 375.96 557.4 380.08 555.91 389.68 554.29 392.91 552.89 395.2 550.98 399.09 549.02 402.13 545.83 406.35 544.37 409.67 543.75 410.66 542.02 411.91 537.42 414.6 535.46 415.5 528.73 415.32 523.29 416.94 512.2 423.21 509.29 426.08 507.44 428.95 506.77 429.31 504.13 429.75 499.87 429.4 498.92 429.85 497.3 431.28 493.48 435.04 493.26 436.48 493.37 437.64 496.12 443.47 496.23 444.64 492.75 452.35 492.03 454.95 491.08 457.19 490.18 457.82 487.6 458.89 475.1 461.58 469.78 463.38 467.2 463.38 464.9 462.48 463.5 460.86 457.9 455.84 456.89 455.31 455.49 453.69 450 448.85 444.95 446.07 439.52 443.47 433.47 441.32 430.83 440.69 426.07 438.9 422.2 439.08 421.08 439.35 419.12 440.33 416.77 440.69 415.76 440.42 414.81 439.79 413.96 439.08 412.73 437.38 411.95 435.4 411.83 434.15 411.95 431.46 412.17 430.02 412.06 428.86 411.78 427.69 411.11 426.89 410.66 425.9 411.11 425.09 417.33 421.42 418.79 419.8 419.85 417.74 420.58 416.94 423.16 415.05 424.28 414.78 432.68 410.12 439.58 405.1 441.42 404.11 443.11 402.86 450.5 398.55 454.37 396.58 460.37 392.28 461.99 390.85 463.95 389.95 466.31 389.59 467.31 389.14 469.89 387.26 471.74 386.27 474.21 384.21 474.71 383.13 475.05 381.79 475.01 379.44 475.5 378.12 476.11 377.22" fill="#fff" stroke="#000" stroke-miterlimit="10" stroke-width="0.25"/>
      <polygon class="polygon4383" points="460.09 202.19 461.22 204.97 460.66 206.64 458.71 205.61 456.8 202.25 457.09 201.14 460.09 202.19" fill="#fff" stroke="#000" stroke-miterlimit="10" stroke-width="0.25"/>
    </g>
    <g class="layer3">
      <polygon class="polygon2795" points="380.38 723.62 374.58 731.83 367.33 730.15 369.02 722.17 380.38 723.62" fill="#e0e0e0" stroke="#000" stroke-miterlimit="10" stroke-width="0.25"/>
      <polygon class="polygon2787" points="779.23 6.22 782.72 5.12 787.45 4.55 793.42 4.13 795.44 4.65 802.19 3.86 804.12 4.24 805.2 6.23 798.4 7.01 798.3 7.02 794.11 6.71 792.17 7.29 792.05 7.3 784.19 7.71 783.48 8.17 782.94 8.52 781.23 8.4 780.54 8.37 768.37 10.69 765.19 10.76 763.56 10.61 762.33 9.5 762.33 8.47 762.87 7.95 764.3 7.63 766.12 7.22 779.23 6.22" fill="#e0e0e0" stroke="#000" stroke-miterlimit="10" stroke-width="0.25"/>
      <polygon class="polygon2789" points="760.84 16.35 762.32 16.07 763.32 14.52 764.33 14.01 765.73 14.07 768.74 16.37 770.37 15.93 771.92 16.38 772.38 17.12 769.28 20.06 768.35 22.2 767.26 21.45 766.8 22.27 767.57 23.82 766.41 23.96 763.47 23.15 761.77 22.04 761.07 20.78 760.84 16.35" fill="#e0e0e0" stroke="#000" stroke-miterlimit="10" stroke-width="0.25"/>
      <polygon class="polygon2791" points="721.15 38.64 719.21 37.15 718.57 34.15 718.88 31.99 719.73 30.96 730.87 27.04 733.82 24.97 735.98 24.16 736.62 24.14 738.61 24.08 741.25 25.19 745.04 28.07 748.98 29.17 749.91 30.06 749.75 31.02 744.73 30.95 741.4 32.19 738.77 32.42 736.99 32.94 734.52 35.37 731.42 36.19 731.11 36.85 732.59 37.14 735.37 40.23 737.57 41.74 737.85 41.93 737.3 43.04 736.08 44.02 735.84 44.22 734.99 42.52 732.96 40.59 732.36 40.16 731.43 40.6 727.79 40.83 726.4 42.08 721.15 38.64" fill="#e0e0e0" stroke="#000" stroke-miterlimit="10" stroke-width="0.25"/>
    </g>
    <g class="layer7">
      <path class="path4006" d="M107.21,681.61l4.33-.35" fill="none" stroke="#000" stroke-width="0.25"/>
      <path class="path4008" d="M118,678.13l.35-6.6" fill="none" stroke="#000" stroke-width="0.25"/>
      <path class="path4010" d="M124.77,663.67l.83-2.37" fill="none" stroke="#000" stroke-width="0.25"/>
      <path class="path4012" d="M153.73,624.42l1.74-2.83" fill="none" stroke="#000" stroke-width="0.25"/>
      <path class="path4016" d="M191.07,603.58l3-3.61" fill="none" stroke="#000" stroke-width="0.25"/>
      <path class="path4189" d="M393.33,246.28l51.78-45,10-2.64,5-5" fill="none" stroke="#000" stroke-width="0.25"/>
      <path class="path4191" d="M442.17,327.47l4.12-.59,10.59,4.71L466,341l10.89,17.94,2.64,8.53-5.29,2.65-4.12,10,4.7.88" fill="none" stroke="#000" stroke-width="0.25"/>
      <path class="path4304" d="M617.64,93.35l3.43-1.72,3.44.79" fill="none" stroke="#000" stroke-width="0.25"/>
      <path class="path4309" d="M126.38,659.62l.21-4" fill="none" stroke="#000" stroke-width="0.25"/>
    </g>
    <g class="layer1">
      <path class="path2811" d="M.05,770.23a43.91,43.91,0,0,1,6.32-3.45,185.06,185.06,0,0,1,22.55-7.86c2.78-.74,7.61-1.35,10-2.36,1.62-.69,3.2-1.67,4.85-2.28,3.65-1.33,6.86-1.54,10.6-3.4" fill="none" stroke="#000" stroke-linejoin="round" stroke-width="0.25"/>
      <polygon class="polygon2813" points="206.22 753.77 206.7 752.65 210.49 753.55 210.68 754.93 207.61 755.49 206.63 754.86 206.22 753.77" fill="none" stroke="#000" stroke-linejoin="round" stroke-width="0.25"/>
      <polyline class="polyline2815" points="54.41 750.48 56.48 748.31 66.34 744.46 69.88 744.81 75.62 743.07 83.03 739.05 85.52 738.72 86.13 739.27 91.35 740.91 93.76 741.67 94.74 742.51 95.91 743.49 99.69 745.7 102.13 746.18 108.08 749.02 112.18 750.11 116.16 750.15 117.88 750.75 124.69 756.82 125.33 757.08 127.31 757.89 130.8 758.48 134.48 760.39 134.57 760.44 135.02 760.67 135.28 760.2 135.84 759.19 136.66 757.72 136.73 757.74 144.47 759.84 145.19 759.37 146.95 760.07 150.73 761.58 152.47 761.55 153.52 761.54 155.35 761.33 157.45 758.5 161.26 756.36 164.25 753.58 166.19 753.34 169.3 752.94 170.31 752.24 172.57 751.79 174.77 745.86 175 742.38 175.49 741.52 176.59 739.59 180.84 739.81 183.24 739.92 185.04 740.82 186.56 741.94 188.03 743.88 190.4 748.91 191.32 750.85 193.42 752.02 198.15 752.37 200.01 753.11 201.71 755.26 204.54 755.97 206.36 757.61 207.38 759.27 211.06 762.47 211.89 762.37 212 761.98 212.07 761.73 209.99 759.98 208.26 757.17 208.82 756.26 210.64 755.82 211.62 756.53 214.02 759.77 213.18 757.79 213.64 757.27 215.56 760.13 216.46 759.89 215.92 758.45 217.12 757.95 218.8 759.74 219.54 759.57 219.04 757.96 217.26 757.06 217.1 756.5 221.79 756.82 221.83 755.86 218.99 755.55 215.33 755.14 213.44 753.88 213.02 752.34 213.43 751.37 214.58 750.66 216.05 750.53 216.65 751.04 216.95 753.09 218.18 754.52 218.89 753.83 218.02 752.24 218.04 750.75 219.27 752.05 219.99 751.58 219.59 750.86 219.68 749.15 220.18 748.61 223.74 749.38 224.79 750.08 225.49 751.56 227.34 755.45 229.76 757.72" fill="none" stroke="#000" stroke-linejoin="round" stroke-width="0.25"/>
      <path class="path2817" d="M229.77,757.72c.74.55.76,1.62,1.31,2.33s1.42,1.62,1.95,2.46c1.81,2.89,1.07,6.68,3.73,10.13,1.56,2,7.38,4.65,7.87,6,.87,2.35-3.31,5.16-2.43,7.48l.83.76h1c.29-.9.32-1.88.59-2.75.69-2.21,3.11-3.94,3.08-6.34-2-3.82-6.32-3.5-8.29-6.82-3-5,2.41-9.86-5.2-14.29-.7-2-2.33-4.55-2.46-6.69" fill="none" stroke="#000" stroke-linejoin="round" stroke-width="0.25"/>
      <polygon class="polygon2821" points="171.8 620.56 167.73 621.02 164.22 622.48 163.45 621.92 165.69 620.06 167.01 617.72 168.36 616.42 169.41 616.6 171.88 618.94 175.32 621.24 175.12 621.85 171.8 620.56" fill="none" stroke="#000" stroke-linejoin="round" stroke-width="0.25"/>
      <polygon class="polygon2823" points="168.87 631.02 169.07 630.58 169.14 630.41 170.38 629.78 174.91 629.61 174.86 630.5 172.9 631.46 169.73 632.17 169.18 631.44 168.87 631.02" fill="none" stroke="#000" stroke-linejoin="round" stroke-width="0.25"/>
      <path class="polygon2825" d="M165.64,633.62l-1-.11,0,0-.53-.77,0-.12.22-.62,1.26-.28,2.81,1.65-2.74.27Z" fill="none" stroke="#000" stroke-linejoin="round" stroke-width="0.25"/>
      <polygon class="polygon2827" points="181.63 632.6 180.35 630.77 178.48 628.06 178.65 626.73 181.55 626.77 182.09 627.19 182.43 630.42 183.34 632.61 184.88 634.1 185.46 635.7 185.05 636.68 183.56 636.59 181.63 632.6" fill="none" stroke="#000" stroke-linejoin="round" stroke-width="0.25"/>
      <polygon class="polygon2829" points="252.99 635.4 249.69 636.69 246.88 637 246.53 636.52 241.36 633.87 237.24 630.53 235.69 628.96 235.89 627.99 237.19 627.78 253.39 634.13 253.43 635.09 252.99 635.4" fill="none" stroke="#000" stroke-linejoin="round" stroke-width="0.25"/>
      <polygon class="polygon2831" points="250.09 639.55 250.93 638.27 251.88 637.87 254.39 639.56 254.33 640.08 251.29 640.04 250.09 639.55" fill="none" stroke="#000" stroke-linejoin="round" stroke-width="0.25"/>
      <polygon class="polygon2833" points="126.12 661.39 125.13 660.77 125.39 659.88 125.87 659.64 126.41 659.38 127.56 660.3 126.12 661.39" fill="none" stroke="#000" stroke-linejoin="round" stroke-width="0.25"/>
      <polygon class="polygon2835" points="125.27 665.71 123.44 667.85 121.73 667.78 120.68 669.23 119.01 670.03 119.49 670.97 118.14 672.22 117.79 670.97 118.68 669.31 123.77 663.56 124.74 663.81 125.81 664.58 125.27 665.71" fill="none" stroke="#000" stroke-linejoin="round" stroke-width="0.25"/>
      <path class="polygon2837" d="M153.83,623.94l.29,1.54,0,0-.14.25.45.15,1.89.64.56.94-.46,1.25,0,0-.1,0-4.73-2-2.21.31-.32.47-.8,1.2-.45,1.86.32,2.35,1.8.3.69.56,7.85-2.08,2.34.72,3.75,3,2.73-.62,1.49.37,8.29-.53,2,2.58,1.15,2.91.78,1.15,1.07.56,1.59,2.81,1.81,4.73,1.36.69,4.62.5,5.06,2.54,1.11,1.37,4.56.82,1.91.34-.9,1.8-.13,2.3-.84,1.28,0,.75-1,1.21-2.55,1.2-4.12,4.59-.92-.31-1.71-.56-1.32.27-3.62,2.2-4.1,1.34-6.43,2.09-3.08-2.72-2.14-1.88-1.37-2.46-.14-.36-1.4,2-1.24-1.28-.76,1.14-.9-.12L163,667.8l-2-1.32-.6-.35-.79-3.14,0-2.23L158,658.91l-1.4-3.56-2.52-1.82-1.77.28-.46-.14-4.64-1.42-.86-.62-.6-.43,0-2.67-.55-.71-2.41-.94-4.71,4.41-1.34,0-2,.82-1.36,1.17-.25,1-1.17.57-5.61.6-.54,0-1.38.11-3.95-2.35-2.43-3-.77-2.49-.29-3.23.44-1.94,2.05-4.07,1.55-2,3.34-1.62,7.35-1.86,3.35-1.21.14-.06.37-.13.46-.17,3.77-.23,5.47,1.1,1.31-4.25,0-.14-.26-1.34,3.92-1,3.57-1.74Z" fill="none" stroke="#000" stroke-linejoin="round" stroke-width="0.25"/>
      <polygon class="polygon2839" points="762.33 8.47 762.87 7.95 764.3 7.63 766.12 7.22 779.23 6.22 782.72 5.12 787.45 4.54 793.42 4.13 795.43 4.64 802.18 3.86 804.12 4.24 805.2 6.23 798.4 7.01 798.3 7.02 794.11 6.71 792.17 7.29 792.05 7.3 784.19 7.71 783.48 8.17 782.94 8.52 781.23 8.4 780.54 8.37 768.37 10.69 765.19 10.76 763.56 10.61 762.33 9.5 762.33 8.47" fill="none" stroke="#000" stroke-linejoin="round" stroke-width="0.25"/>
      <polygon class="polygon2841" points="761.76 22.04 761.07 20.78 760.84 16.35 762.32 16.07 763.32 14.52 764.33 14 765.73 14.07 768.74 16.37 770.37 15.93 771.92 16.38 772.38 17.12 769.28 20.06 768.34 22.2 767.26 21.45 766.8 22.27 767.57 23.82 766.41 23.96 763.47 23.15 761.76 22.04" fill="none" stroke="#000" stroke-linejoin="round" stroke-width="0.25"/>
      <polygon class="polygon2843" points="718.88 31.99 719.73 30.96 730.87 27.04 733.82 24.97 735.98 24.16 736.61 24.14 738.61 24.08 741.25 25.19 745.04 28.07 748.98 29.17 749.91 30.06 749.75 31.02 744.73 30.95 741.4 32.19 738.77 32.42 736.99 32.94 734.52 35.37 731.42 36.18 731.11 36.85 732.59 37.14 735.37 40.23 737.57 41.74 737.85 41.93 737.3 43.04 736.08 44.02 735.84 44.22 734.99 42.52 732.96 40.59 732.36 40.16 731.43 40.6 727.79 40.83 726.41 42.08 721.15 38.64 719.21 37.15 718.57 34.15 718.88 31.99" fill="none" stroke="#000" stroke-linejoin="round" stroke-width="0.25"/>
      <polygon class="polygon2845" points="700.14 50.46 701.29 48.76 703.14 48.02 708.09 47.94 709.24 48.83 706.55 49.12 704.39 51.19 705.44 52.69 703 52.38 700.14 50.46" fill="none" stroke="#000" stroke-linejoin="round" stroke-width="0.25"/>
      <polygon class="polygon2847" points="674.77 46.86 676.24 46.71 678.87 47.95 684.76 49.4 687.08 50.8 687.63 51.83 686.93 52.71 685.84 51.32 685.08 52.43 683.07 52.65 680.9 51.41 676.26 49.96 674.79 51.21 673.79 51.36 673.4 50.26 674.08 47.67 674.77 46.86" fill="none" stroke="#000" stroke-linejoin="round" stroke-width="0.25"/>
      <polygon class="polygon2849" points="611.07 78.38 611.36 76.61 612.43 74.98 612.16 74.07 612.11 73.88 610.81 75.21 610.33 73.96 610.47 71.96 612.21 68.42 614.5 65.81 617.03 64.32 642.18 60.82 643 60.78 647.5 60.57 652.61 61.28 653.54 62.38 650.7 64.39 648.61 64.69 646.62 66.1 641.06 67.02 638.69 69.63 634.54 71.57 625.23 72.3 621.05 72.4 617.88 73.26 616.59 74.65 614.75 75.47 614.68 76.88 612.23 79.04 611.47 79.19 611.07 78.38" fill="none" stroke="#000" stroke-linejoin="round" stroke-width="0.25"/>
      <polygon class="polygon2851" points="596.82 79.83 595.97 80.06 595.22 81.69 594.21 81.04 594.19 79.42 593.47 77.5 594.24 76.9 597.55 76.58 598.8 78.19 598.5 78.93 597.81 78.57 596.82 79.83" fill="none" stroke="#000" stroke-linejoin="round" stroke-width="0.25"/>
      <polygon class="polygon2853" points="529.6 82.22 526.34 85.88 523.13 87.18 518.2 87.62 515.21 87.31 513.8 87.17 509.75 84.86 509.52 84.72 507.93 82.01 507.87 81.52 507.66 79.81 508.72 78.31 508.87 78.1 507.88 77.25 507.78 77.16 508.06 76.19 509.21 75.36 511.11 74.08 513.51 74.19 518.95 76.18 522.42 76.94 528.81 77.27 529.22 77.29 550.57 75.9 550.7 75.89 561.91 74.67 569.44 73.84 574.68 73.71 577.08 74.2 578.26 74.87 579.88 75.79 576.44 78.11 568.01 77.63 567.87 77.62 562.88 79.82 554.59 81.71 549.81 82.4 546.43 83.92 543.89 83.44 542.5 83.67 537.16 82.42 535.39 82.74 531.23 81.7 530.91 81.62 530.71 81.71 529.6 82.22" fill="none" stroke="#000" stroke-linejoin="round" stroke-width="0.25"/>
      <polygon class="polygon2855" points="445.45 103 444.09 104.21 442.18 104.83 440.7 104.2 436.86 104.28 434.18 105.36 432.31 107.17 432.15 107.32 428.84 107.46 426.98 110.08 426.6 110.22 425.82 110.5 425.45 110.63 424.77 111.3 424.79 112.19 422.29 113.87 420.46 114.5 418.14 114.1 416.26 112.81 414.78 108.42 415.11 106.49 421.76 100.67 423.78 97.97 425.36 97.17 426.07 96.82 424.4 96.65 423.7 96.57 424.58 96.06 425.64 95.43 427.43 95.7 428.58 95.88 432.33 95.42 437.8 94.74 438.38 94.62 439.96 94.3 443.78 93.52 458.73 89.4 462.4 88.27 484.68 81.47 491.99 79.23 495.53 78.89 499.5 80.53 499.86 81.23 499.9 81.32 497.64 82.48 496.77 82.93 494.99 83.03 494.02 84.6 493.77 84.72 491.21 86.06 490.02 86.68 489.06 87.18 487.67 86.78 487.35 86.69 485.07 88.28 483.3 88.68 481.93 89.73 480.32 90.13 479.07 89.11 478.07 88.99 479.12 91.55 476.98 91.43 475.1 89.95 474.04 89.89 474.06 90.48 477.77 93.71 476.86 94.69 462.55 95.21 456.83 98.22 454.62 99.7 454.15 100.03 453.82 100.25 449.54 103.15 449.39 103.1 447.6 102.59 445.45 103" fill="none" stroke="#000" stroke-linejoin="round" stroke-width="0.25"/>
      <polygon class="polygon2859" points="355.72 155.16 354.97 155.77 354 154.1 355.05 153.18 359.05 150.57 363.16 149.44 366.93 146.91 370.9 143.28 372.82 141.09 374.93 138.67 375.63 138.19 380.61 134.76 383.31 132.9 383.68 132.64 390.88 128.71 395.98 126.45 397.74 126.2 403.38 127.25 403.79 128.5 402.95 129.67 402.83 129.84 397.47 129.97 397.06 129.98 394.59 132.46 391.11 134.69 390.64 134.84 385.55 136.51 383.31 137.48 378.03 139.79 377.52 140.52 377.36 140.76 377.69 141.29 378.18 142.08 379.21 143.74 380.36 143.86 380.76 144.44 380.4 145.19 376.19 148.54 372.38 149.88 367.41 156.35 364.27 156.57 362.17 155.67 361.71 155.71 361.53 155.73 360.9 155.78 357.89 156.06 355.72 155.16" fill="none" stroke="#000" stroke-linejoin="round" stroke-width="0.25"/>
      <polygon class="polygon2861" points="347.46 216.25 342.89 222.13 341.76 224.47 341.6 224.81 340.74 224.4 340.07 224.86 339.51 226.71 338.23 227.27 336.17 227.17 335.66 228.08 334.38 228.62 329.08 230.09 327.88 229.12 327.51 228.81 327.33 228.51 327.15 228.2 326.56 227.21 325.58 225.54 324.5 222.39 324.49 219.67 327.6 205.78 328.6 203.56 329.68 201.15 331.37 198.89 332.58 195.69 333.19 194.78 333.27 194.65 335.75 190.94 336.31 190.11 343.11 179.97 344.93 177.25 348.78 171.52 348.95 171.26 353.66 166.72 354.89 166.84 358.28 170.23 358.64 172.21 358.86 172.67 359.87 174.77 361.7 175.79 362.5 176.24 365.11 182.09 364.82 183.21 363.87 186.91 364.26 189.58 364.33 190.08 364.24 190.59 363.81 193.06 363.8 193.19 363.6 194.29 363.6 199.83 359.71 203.17 358.32 208 354.39 212.75 351.71 215.03 347.46 216.25" fill="none" stroke="#000" stroke-linejoin="round" stroke-width="0.25"/>
      <polygon class="polygon2863" points="412.03 398.87 411.74 399.39 410.38 399.64 406.71 401.46 403.98 402.81 403.13 402.31 403.12 401.42 404.36 399.92 404.82 397.03 405.49 396.87 406.45 397.64 407.65 398.6 411.64 398.29 412.03 398.87" fill="none" stroke="#000" stroke-linejoin="round" stroke-width="0.25"/>
      <polygon class="polygon2865" points="519.32 357.23 521.78 358.03 523.29 358.21 524.48 358.75 528.62 359.64 535.68 360.63 536.63 361.17 538.09 362.78 539.62 363.06 542.07 363.5 546.22 363.68 550.2 364.49 551.04 365.2 551.89 366.55 551.99 366.73 552.1 366.86 552.66 367.54 553.91 370.28 554.63 371.3 555.91 373 557.09 375.96 557.4 380.08 555.91 389.68 554.29 392.9 552.88 395.19 550.98 399.09 549.02 402.13 545.83 406.35 544.37 409.67 543.75 410.65 542.01 411.91 537.42 414.6 535.46 415.5 528.73 415.32 523.29 416.94 512.2 423.21 509.29 426.08 507.44 428.95 506.77 429.31 504.13 429.75 499.87 429.4 498.92 429.84 497.3 431.28 493.48 435.04 493.26 436.48 493.37 437.64 496.12 443.47 496.23 444.63 492.75 452.35 492.03 454.95 491.08 457.19 490.18 457.81 487.6 458.89 475.1 461.58 469.78 463.38 467.2 463.38 464.91 462.48 463.5 460.86 457.9 455.84 456.89 455.31 455.49 453.69 450 448.85 444.95 446.07 439.52 443.47 433.47 441.32 430.83 440.69 426.07 438.9 422.2 439.08 421.08 439.35 419.12 440.33 416.77 440.69 415.76 440.42 414.81 439.79 413.96 439.08 412.73 437.38 411.95 435.4 411.83 434.15 411.95 431.46 412.17 430.02 412.06 428.86 411.78 427.69 411.11 426.88 410.66 425.9 411.11 425.09 417.33 421.42 418.79 419.8 419.85 417.74 420.58 416.94 423.16 415.05 424.28 414.78 432.68 410.12 439.58 405.1 441.42 404.11 443.11 402.86 450.5 398.55 454.37 396.58 460.37 392.28 461.99 390.85 463.95 389.95 466.31 389.59 467.31 389.14 469.89 387.26 471.74 386.27 474.21 384.21 474.71 383.13 475.05 381.79 475.01 379.44 475.5 378.11 476.11 377.22 476.95 376.59 478.19 374.71 479.14 372.47 479.75 371.48 482.67 370.58 486.25 370.04 487.99 368.88 492.42 364.13 493.32 363.5 495.5 361.17 498.98 358.75 501.33 358.3 505.08 358.03 508.28 357.05 511.14 355.52 512.26 355.25 513.15 354.63 514.5 352.83 517.02 356.24 519.32 357.23" fill="none" stroke="#000" stroke-linejoin="round" stroke-width="0.25"/>
      <polygon class="polygon2867" points="456.8 202.25 457.09 201.14 460.09 202.19 461.22 204.97 460.66 206.64 458.71 205.61 456.8 202.25" fill="none" stroke="#000" stroke-linejoin="round" stroke-width="0.25"/>
      <path class="path4003" d="M112.91,679.68l2.61-1.08,3.24-.43,2.72-.55,2.49,1.07,1.09,1.28,1.48,0,3.36-1,1.06.48,1.21-1.09,2.87-.48,2.45.2L138,678l6.7-1.84,1.5.38,3.08-.72,4,1.48,2.06,1.39.1.13,1,1.3,2.18,4.42,1.51.83,1,1.9.85,1.57.2.36-.3.71-.24.57-4.32,1.13-1.7,2.61a5.47,5.47,0,0,1-2.09.76,4.33,4.33,0,0,1-2.65-1.67c-.69-.84-.69-1.67-1.81-1.81a7.28,7.28,0,0,0-3.06-.14c-1.39.28-2.36,1.95-3.06,2.09a5.25,5.25,0,0,1-2.64-.56c-1.11-.42-2.09-.83-3.2-1.25a4.42,4.42,0,0,0-2.92-.42,27.2,27.2,0,0,0-3.48,1.81,11.78,11.78,0,0,0-2.09,1.67l-2.78,1.81a9.1,9.1,0,0,0-1.67,1.67c-.27.55-.41,2.22-1,2.22s-1.39-.14-1.39-1.11a31.19,31.19,0,0,0,.28-3.48,6.8,6.8,0,0,0-1.4-3.06c-.69-.83-3.06-2.5-3.75-3.2s-2.09-1.25-2.92-1.94-2-1.25-2.09-2.09-.83-3.2-.83-3.75,1.81-2.23,1.78-2.07Z" fill="none" stroke="#000" stroke-linejoin="round" stroke-width="0.25"/>
      <path class="path4301" d="M231.8,750l-.68-2.1.49-2.89-1.73-3.58-1.83-1.25-3.89.36-.92-1.07-1.13-.63-2.13.44-2.14,1.93-2.27.23-2.09.88-1,.41-2.3-.15-2.68-1-2-1.26-8.24-2-4-2-1.53-3.63-2.53-2.72-.88.19-2.55-.94-2.2-1.54-6.09-5.08-.74,0-1.81,1.11-3.23.27-3.82,2.36-.9,1.36.66,1.82-1.5,3.09-.33,1.55-.17.76-1.4,1.9-2.54,6.53L159,743l-1.09-.08-.69-.63-4.48,2-7.64,1.21-1.15.18-.63-.62-4.05-3.92-2.2-1.46-.26-1-1.56-.53-2.78-.92-1,.56-3.72-.88-1.23-1.43-.07-.61-.06-.7-1-2-.6-1.16-.86-.71-2.42-2h0l-3.74-3.07.68-.61.52-.48,1.12.25,1-2-1.11-1.64-.83,1.13-2.78.57-.48.83-1.42-.39-1.29,1L113,725l-.45.07-1.6.24-1.39,1.83-1.8,1.25-1-.32-2.8.27-1.55-.15-.73-1.44-1,.44-1.75.83-.4.19-.15,0-1.68.37-.29.06-3.23-2.89L92,725.35l-.76-.26-4.38-3.72-3.15-6.15-4.3-5.2L74,706.64l-4.1-3.94-2.13-1.24.15-3.33,1.71-3,5.19-3,4.42-3.59,2-1.31L86,684.24l1.83-.38,3.72-3,3.6-2,2-.39,1.88.73,3.48-.08,2.85,1,1,.36,1.27,1.36a9.84,9.84,0,0,1,.45,2.62c0,1.25.56,3.2,1.25,3.34s1.11,1.81,1.81,1.94,3.06,2.09,3.62,2.51,2.08,1.94,2.08,2.78,1.53,3.2,1.67,3.75a17.1,17.1,0,0,0,2.37,3.9,3.47,3.47,0,0,0,2.64,1.11,10.18,10.18,0,0,0,2.64-1.53s1.53-1.81,1.53-2.36.56-2.78,1.11-3.06,1-1.81,1.67-1.95a9.11,9.11,0,0,1,2.37-.28,12.1,12.1,0,0,1,3.61.42,15.79,15.79,0,0,0,3.62.28c.56,0,2.23-.14,2.78-.14s1.81-1.39,2.78-1.53a20.35,20.35,0,0,1,3.9.42l2.5,2.22,1.4.11,2.19-.22L158,696l3,.47,1.8-1.11,2.88-.1.81,0,1,.85,2.92,4.47,4.31-1,3.07.91,5.2,2.76,1.72.38,2.37,2,1.37.84,3.92,2.37,2.11,5.08-.69,1.36,1.61,3.34L200,723l2.26,3.23,4.29,2.43,1.7.23,2.29,1.91,2.15.3.69-1,1.85-.73,1.21-.48,2-1.71,1.16-1,1.17-.2.84.71,2.06-.22.35,1.22.07.25.56,0,1.87-.07,1.66-.82h0l1.25-.55.34-.15.7.86.57-.51,1.57-1.41,1.1,0,.33.25.51.38,1.76-.35.63,1.23,2.59-1.86,2.06-.51-.32-4.86L239.6,716l.14-1.6,0-.17L239.3,713l-.19-.46-.66-.57-1-.9-.83-.73-1.21-.58-1-.45-1.63-2.24-.56-.21-1.39-.52-4.56-1.7-.91,1.09-1,1.2-1.1.18-2.93-1.6-.78-.93-5.11-2.55-1.53.65-2.46-.5-.91-.94-2.4,1.35-10-2.22-.67-.85-1.81-2.31-.44-1.53-1.48-1.54L191.56,693l-3.29-.83-1.94-4.51-3.1-1.82-1.31-.77h-1.38l-1.15-.91-.58-1.61.29-1.22.16-.64,1.07-.92,1.25-.24,4.09-1.23,1.65.46,8.75-5.41h3.33l2.55.88,2.82,2.18,1.49.17,7.67-.71,4,.24.71,0-1-2.15.79-.38.14-1-3,.71-1.44.34-1.8-.67-2.2-.06-2.84-.06-1.15-3.05-1.14-1.15-1.58-.46-.57-1.38.35-2.12.12-.73,1.87-2,4.63-1,1.87.3,4.39,2.65,5.92,2.56.4.17,2.61.49,1.07-.92,2.63.72,4.52.14,3.86.32,2.13-.37,5-2.16,5.38-1,1.29-1.07,2.41-.84,1.67-1.29,2.93-1.2,1.85-2.13,3.19-6.67.49-1.86v0l-.46-1.19-.42.44-1.87,2-.52-.12,1.47-2.64-1.87-.6-.7,1.28-.06,0-1.55.76-1.69,4.17-1.43,2-1.75.7L248.82,657l-2.61,1.64-10,.92H236l-3.06-.86-5.16-3.22-.14,0-1-.23-2.29-1.92-2.92-.63-1.21-.92-3.14-.4-1.69-1.71-.35-.55-1.92-2.92-3.48-1.65-6.06-1.69-2.21.66-1.27-.47-3.26.34-1.35-.28-.14,0L194.08,642l-.37-.29-.22.08-.44.17-.63-.79-.15-2.06-1.47-3.57-1.59-2.82-.24-2.35-1.76.65-.61-.57-.69-2.33.7-3.06,0-2.88-.78-2.7L183.63,617l-1.15-2.53-.06-.13-.34-.75-2.37-.38-1.42.31-1.65-.24-1.28-.76-3.42.06-1.16,1-6.11,1.2-1,1.44-.94.1-.16,0h0l-3.28,3.45-1.27,0-1.36-.69-.21,2.23-1.16.78-.18-.81L155,621l-.37-1.6.31-.47.36-.56.37-.57L153.85,614l-.57-3.09.66-1.94,1.35-1.68,2.9-1.88,1.2-.25,4.42-.9,2-.4.35-.19,5.12-2.61,6.24-2.16,1.35-.06,2.26-.11,2.16-.11,1.28-.06-.52,1.72,2.52,1.82.91,1,1.58,1.72.73-.17,0-1,1.48-.61.6,2.53-1,.41.79,1.23,1.09-.79,1.35.18,2.45,2,6.52,3.16,1.85,1.7,1.74.69,1.5.6,5,3.45,6.79,3,1.69-.65,1.73,3.24,1.5,2.1,1.52.69,1.32,1.81,4,2.74,2.27,3.54,3.47,3.72,6.3,1.93,1.64,1.27,1.11.86,4,1.34,3.4-.11,3.16-.92,1.16-.92.88,0h0l.79,1.06.45.6,1.51-1.6.07-.07.08,0,.51.11v.1l.23,3.74.73.33.78-.68,1.19,0,1.28-1.45,1.12.19-2.38,2.07.27,1.14.53.38,1.81-1.23,2.06-.51,1.06.18.82.94,3.07,1.23,4.07,1.65,3.43.48,13.44-.76.62,0,5.57-2.16.53.73,1.05.19-.23-.8-.1-.37,2.48-1.41,3-3.85,1.91-.28-1.1-2.42-.3-.65-.48-1h0l-3.44,2.37-.16,0-2.93.75-7.18,2.83-7.53.89-2.59-1.84-6.54-2.9-5.87-.18-2.45-.52-3.59-.32-2.55-1-.19-.12-1.08-.7-6-3.89-2.4-.81-1.69-1.56-.82,0-2.57-1.47L243.75,628l-6.61-2.67-4.08-1.61-3.49-4,0-.88,2.07-.3,1.23-1-.26-.88-1.53.86-2.26-.81-1.62-1.79-3.5-2.31-1.64-.16-3.58-1.65-1.39-2-3.87-2.38-2.52.39-1.73-.45-1.27-.25-.58-1.68-.94.85-1.6-1-2.77-.35-2.06-1.47-1.64-2.24-3.26.23-1.27.09.11-.89,2-1.48.41-1.19-.86-2.85-1.83-3.18-4.67-5.38-.35-1.23.47-1.27.61-.6.9-.87,2.64-5,.74,0,.33-1.33-2.71-2.5L189.73,574c-.37.1-.88-2-1-3.05,0-.26-1.29-2.7-1.29-2.7l-4.31-.9-2.48,2.59-1.12-2.52-.65-2.72-.65-3.31.67-4.66,2.28-3.56L184.1,552l2.43-.46,2.79.22,2.59.68,2.7,1.42,2.81,1.3,1.16,1.14-1.19,1.55-11.76-3.68-3.82,5.93,3.42-4.11,1.05,3.74-3.21,3.56,6.75-5.81,8.47,2.84-1.75,1.88-4-.62,4,1.13L198,564.8l-.7,1.35-.78,1-5.31,1.52-.88-1.44-.72.54,1.06,2.4,1.87.22,4-1.55,4.63-.15,9.52,3.57-9-4.42L200,567l.75-1.72-.62-1.8-.46-1.17.51-1.48,1.25-2.5-.65-1.93,5.84,2.71,11.56,6.74-10.95-10.31-5.76-2.59h0l6.78-4.3,4.22-5.77,1.76-2.43,19.11-22.27,1.91-2.23,3-4.16.29-.26,2.23-2,3.43-3.09,5.9-7.21,6.57-9.37,3.09-5.23,0-.08,1.93-3.26.69-1.16h0l.55-.94,5-8.2.86-1.8,1.69-3.46,0,0,.16-.33,10.79-22.21.08-.15,3.16-6.5,3-7.56,1.58-3.93,2.57-6.38,4.28-13.52.17-.56.33-1.64L298,400.8l.64-5-.13-.51.13-.48,4-14.12,1.2-4.31,1-5.7,1.61-8.84.37-4.38.57-6.87,1.11-5.94.28-8.06,1-6.1,0-.28,1-5.7L311,322l.65-7.3v0l0-.45,2-12.22.84-1.15.59-.79.17-.23.51-.7,2.43-5.45,3.87-14.06.06-.21,2.1-7.67.15-.76,1.37-6.89.2-2,.51-5.18.69-15.52.85-1.67.87-1.69,1.28-1,2.22-.16,4-.27,3-.19,0,.32-.05.41-.16,1.38,1.25.65,1,.07,1.06-.73,1.19-.81.74.27h0l.11,2,.05.83v0l0,.06-1.63,3.67-.11,1.78,3.6,8.39,2.65,2.15,3.61,1.65.09,0L354,260l4.69,1.8h.1l1.09-.17,3.52-.52.27-.24.77-.67,6.4-2.74.4-.43.36-.39,3.09-3.33,1.59-3.28,1.57-1.22,1.08-.39,4.35-1.58,1.14-.41,2.84.9,2.56-1.39,1,.41.86.35,1-.83.69.88.62.82.63.79,0,0-.88,1.18-.08.1,1.48,1.22.62,1.25,2.43,4.77.79,1.56,1.17,1.16.57,1.46,1.46,3.82,4.92,8.88.81,1.46.13,2.37v.07l-2.51,18.57.18,1.11,1.86,1.65,1.24,1,.56,1.32-.11,1.55.72,1.53,2.08,1.43,1.44,2.93,1.23,1,3.57-.15,1.63-1.29,3.19-3.75,1.29-.46h.43l3.08.16,8.83.44,2.37.62.31.9v0l.36,1.06,1.25.51.13.06,1,2.12v.17l-.19,5,.9,2.78.45.48,1.1,1.19,0,.45,0,.59-.79,1.54-.09.17-2.24,1.6.41,1.38,1.18.21v.68l-2.73,3.49-.72-.68-.57-1.38-.4-1-3.93.37-.34,1-1.1,3.32-.27.84.09,1.55,0,.52-1.38,2.53-8.34,6.45h-3.34l-.57.55-2.75,2.61L411,348.1l-1.06-.34-.36-2.29-.84-.77L408,344l-.89-.15-2.31-.38-.53-.25-.1-.06-.78-.37-.5-.24-.48-1-1.41,0h-.18l-3.22,1.62L397,343l-3-.92-1.18.48-2.26.92-1.14.47-1,1.28-.48,1.7,1,5-.35,1.33.56,1.18-.26,1.56,3,6.37,0,.05,0,0-.54,1.82,1.36,1.09.33.27.05.07.18.28.71,1.11.12.37.16.55,1,3.33.79,1.23.45,2.87,2.45,4.38,1.55,1.81,1,2.63-.11,1.47-.19.36-.76,1.44-.88,1.13-.44.27L397.17,390l-.15,2.73,1.5,3-.8,1L397,397l-.29.09-4.81.71h0v0l0,.13.35,1v0h0l.13,0h.07l.33,0,.1,0,1.9-.26-.1.51-.3,1.56.69,4,.81.1,5.39.65,2.08-2.57-1.83,2.77,1.36.72-.44.38-1.15,1-1.21,1.05-.84,2.68-2.34,3.22-1.57.26-3.29,4.13-1.5.49-2.07,4.25-.51.28-.95.52-.21,1.6-.53.79-.28.41-1.31-.86-1.06-.71-.36.15-.93.36-1.54.6-1.2,1.5-2.37.21-.95,1.05.65.37,2.33,1.33.68-.12h.09l1.57-.28.58-.1.39.58-.19,1.23,0,.24,0,.23.33.52.64,1.07,1.74,1.15,1.28.13,1.59-.53,1.32-.43,1.06.19,1.39,1.6L390.44,438v.13l0,1.27,1.15-.21.91-.16,3.2-.58.35-.06.13,0,1.91.44,2-.79,1.25.34,2.19,1.07.73.72,1,.54,3.64,1.34,2.47,2.06,2.63,3.32,1.79,1.26,2.36,1,3.86.18,5.72-1.26.9-.44,2.4-.36,2.53.18,1.12.45L438,450l3.75,1.25,1.85,1.26.79.63.44,1.07.68.72,1,2,1.18,1.71,2.38,1,1.48.09,2.25,1,3,.44,2.3.63,1.73,1.35,1.24,1.52,3.57,2.69,2,.9,1.4.18,1.24-.18,4.14-1.53.84-.62,3.2-1.08h1.29l4.14-1.61,2.69.27,2.52-.27,2-1,2.13-2.24,1.79-3,1.91-4.57,1.51-5,1.56-3.14,1.46-1.61L504,441l.9-.35,2.35-2.15.9-2.42,1.18-1.71,1-.72,1.18-.26,2.74-1.44,1.76-1.31,2.61-1.83,1-.36,1.68-1.34.73-.26.72-.35,2.37-1.36,3.92-1.8,2.07-.56.4-.18,1.73-.78,2.69-1.61.79-.72,1.28-.52,1.51-1.09,2-1.82,1.86-1.95,1-.73.53-.65,1.95-1.57.56-.36.35-.61,1-1.11,1.93-2.94,1-2.24,1.07-1.62.84-.71,1.29-1.8.5-1.07.68-2.51,1-2.33,1-3.95,1-2.33.61-.9.9-2.42-1.1-4.51-.58-5.89-.62-2.15L555,367.45l-.16-1.17-.57-1-1.9-1.16-1.35-.27-3.12-1.7.66-.45,5.49.36,2.52-.28L559.1,360l-2.24,1.17-1.12-.27-.9-.72-.33-1.16.39-1.17.89-4.21,0-.89,0-.46-2.29.36-10.77-.18-6.33.36-16.14-.18-2.85-.36-.94-1.22.29-.17-.06-.1-1.86-2.87,0-.06-3.63-5.6-1.69-1.45-2.94-4.16-.69-.06-.63-1-.38-.57-.7-.09-.35-.05-1.09-1.08.74-1.28.1-1.31.21-2.59.27-14.84.05-2.58-.37-3.69.87-4.19.82-3.88.43-.64,12.48-18.22,2.81-.34,2.12-.84,4.48-.36.61-.41.06,0-.16-.56v0l-.15-.54-.22-.07-.47-.18-3-1.11-4.26.13-2.8.56-.74-3.23-1.86-2.4-1.3-.13-1.86,2-3.41,1-2.28-.18L503,275l-2,3.94-4.7,1-2.51-.24L478.39,273l-1.83-.12-2.35-.17-4.53,2.15-4.29-1.7-4-3.37-1.23-1-1.53-.56-2.48-5.86.8-2.22,2.9-3.09,2.27-1.07,1.6,0,1.57-1.14.73-1.41-.33-5.38L464,244.32l.37-.67,1.89-.91.42-1.57-.49-2.2.74-.65.11-2.46-2.45-8.38.71-5.91-.45-3.83-1.32-1.45,1.56-1.87-.38-3-1.91,1.27-1.43-1-1.29-3.22.6-1.82,3.06,1.23.29-.74L463,204.5l-2.31-5.72-.36-2.77-.37-2.82.87-2.68,3.14-3.75,1.84-3.64,1.36-8.66-.33-4.94.67-1.26,2-.29-1.17-2.75,2.18-6.17,2.52-4.24,5.35-5,5.75-4.45.33-.24,1.34-1,.31-.22,2.43-1.13h0l1.36-.64.15-.15,6.18-6.51.29-1.63,1.64-2.61,5.84-4.44,3.35-2,10-2.27,2.74.16,1.59-1.28,2.23-.4,7.83-4.7,6.12-3.68,4.59-1.46L544,110l5.12-2.14,1.75-1.42,6.36-2,4.21-2.64,2.29-.9,6.28.38,8.16-3.5,4.22-1.29,4-.52,5.66-1.72,3.31,0,4.76-.85,3.24.34,1.22-1.11,9.21,1.79.21,0,3.69-1.55s-.47,3-.62,3.75a13.08,13.08,0,0,0-.07,3.29c.15.58.36.22.72.79a3.86,3.86,0,0,1,.43,2.22,19.77,19.77,0,0,0-.07,2,8.5,8.5,0,0,0,.85,2.58,6.45,6.45,0,0,1,.36,2c.05.57,0,1,0,1.93a3.38,3.38,0,0,0,.72,2.5c.71.93,1.57,2.08,1.86,2.36s1.17,1.06,1.64.79c.23-.13.5-.22.07-.86s-1.86-2.22-2.21-2.64a4,4,0,0,1-.65-2.51c.08-.44.5-1.14.86-1.21a4.52,4.52,0,0,1,2.29.78,3.75,3.75,0,0,1,.78,1.36c.29.7.22,2.15.65,2.43s.78-.14.78-.57-.32-2,.15-2.64a1.52,1.52,0,0,1,1.29-.5c.51.07,1,.69,1.35,1.07a8.72,8.72,0,0,1,.72,1,5.64,5.64,0,0,0,1,1.43,3.4,3.4,0,0,0,2,.57.87.87,0,0,0,.58-.28.72.72,0,0,0,0-.5c-.22-.55-1.12-.89-1.36-1.43-.12-.28-.25-.76-.07-1,.47-.63,1.88-.19,2.57-.57a3.12,3.12,0,0,0,1.5-1.5c.08-.27,0-.78-.21-.93-.4-.24-1.05.26-1.5.36a5.07,5.07,0,0,1-1.36.28c-.51,0-1.53-.13-1.57-.64s1.32-.77,1.85-1.15c.29-.2.82-.38.93-.71a1.79,1.79,0,0,0-.42-1.51.87.87,0,0,0-.72-.21c-.64.22-.73,1.48-1.29,1.86a3.93,3.93,0,0,1-2.86.64,2.37,2.37,0,0,1-1.14-1.21c-.25-.51,0-1.4-.29-1.86a3.79,3.79,0,0,0-1.72-.93,12.62,12.62,0,0,1-2.43-.57c-.35-.21-1-.6-.93-1s1-.6,1.5-.71,1.37.41,1.65,0-.27-.94-.5-1.29a6.26,6.26,0,0,0-1.58-1.5c-.46-.3-1.41-.24-1.71-.71a2.2,2.2,0,0,1,.07-1.65,5.72,5.72,0,0,1,.93-1.29h1.79l.78.5a15.45,15.45,0,0,0,1.43,2.44,7.51,7.51,0,0,0,2.72,2,3.4,3.4,0,0,0,1.79,0c.46-.14,1.22-.4,1.36-.86a1.68,1.68,0,0,0-.65-1.5,13.72,13.72,0,0,1-2.28-.79c-.29-.21-1.36-.5-1.51-.85s-1.43-1.15-1.43-1.15l-1.93-1.07-.71-.57.61-1,1.11,1.23.16.18,5.83-1.59.49-.13.7-.19.66-.29,1.64-.76L642.18,93l3.4,2.34,2.49,2.86,4.68-3,9.38-3.69,1.38-.72,9.39-1.22,4-1,.86-.22,4.85-.68,3.78.5,9.4-1.37L699.32,85l6.24-1,2.82-1.87,4.34-1.53,2.16-1.41,4.54-1.93,11-2.8,5.48-.31,5.79,1.11L746,77l2.49-1.31,1-.52L752,76v2l-2.23,2.07,1.15,1.18,4.33.14v-.86l-1.55-.9-.08-.52.13-.29.57-1.32,1.23.14,7.09,4.88L761.83,85l.23,2.73L761,91.88l.09.13,1.18,1.65,1.88,2.65v3.84l3.13,11.65,4.62,3.11,4.45,4.28,5.22,1.65,1.53,1,.69,1.25,1.63.26,1.76.27.15.89.92.89,2.53,1.11,9.55,1.41,1.19.18h.09l3.46-2,.4-.22h0l.08.42.14.75-2,2.34-.22.53,1.13,4.65-.78,4.5,3.82,3.7,2.15.82,3.83.61,5.28,2.17,1.32-.66,3.52,1.64,5.12.24" fill="none" stroke="#000" stroke-linejoin="round" stroke-width="0.25"/>
      <path class="path2911" d="M887.58,7.89C886,6.72,884.29,5,882.14,4.32A13.9,13.9,0,0,0,878.49,4c-3.89,0-7.8.38-11.68.38-3.72,0-7.43-.92-11.19-.76a64.21,64.21,0,0,0-9.17,1.05c-2.46.49-2.2,1.94-3.26,2.46-1.52.75-6.4.91-9.29,3.12s-1.8,3-3.37,4.55-4.78,2-6.45,3.78A38.45,38.45,0,0,0,821.77,22a25.19,25.19,0,0,1-2.9,2.75,29.06,29.06,0,0,0-2.6,3.47,5.69,5.69,0,0,1-.95,1.07c-4,3.48-11.16,3.63-11,10.61.12,3.53,3.34,4,5.69,5.39.72.44,1.05,1.27,1.65,1.8s1.62.7,2.19,1.23l-1,2.6s-1.87,2.19-2.66,3A16.32,16.32,0,0,1,807,56.27,3.09,3.09,0,0,1,803.2,56c-.47-.62-.47-1.72-1.41-1.56s-1.25.47-1.72-.63-2.82-2.82-3.61-2.35a2.11,2.11,0,0,0-1.1,2.67,13.66,13.66,0,0,0,1.73,3.29,6.71,6.71,0,0,1,.78,2.19l-.1.85c-1.22,1.94-1.29,4-2.34,6.21-.63,1.36-1.81,1.79-2.19,3.5-.52,2.4-.08,5-.59,7.48-1.17,5.6-3.14,11.85-3,17.61,0,1.17.62,2.47.65,3.7,0,1.42-.46,2.74-.24,4.16a17.61,17.61,0,0,0,1.54,5c1,1.92,2.47,2.48,3.81,5.9a4.16,4.16,0,0,0,.67,1.2,10.21,10.21,0,0,0,.85,1c3,2.29,10.73.28,14.44-.1,5.36-.56,7.42,2.63,12.49-.29a38.76,38.76,0,0,1,4.14,1.23c1.53.37,3.05,0,4.56.19a49.66,49.66,0,0,1,5.32,1.61c2.51.81,3.09,2,6.1,2.09s10.15-.14,12.37,1.32,2.86,4.73,3.91,7c-.58-.23-1.3-.25-1.84-.48-2.09-.87-2.38-3.71-4.38-4.73-2.2-1.13-4.79-.46-7.1-.57-2.81-.13-7.52-1.82-9.76.57-1.43,1.52-1.13,3.13-2.13,4.73a17.82,17.82,0,0,1-1.66,1.71c-.11,1.48,1,2.87,1,4.45.1,3.17-1.69,8.62-3.9,11-.4.42-1.43,1-1.72,1.56" fill="none" stroke="#000" stroke-linejoin="round" stroke-width="0.25"/>
    </g>
    <g class="layer5">
      <path class="polyline2871" d="M647.48,196.21l-4.82-2.33-3-2.78-2-1.26-2.58-.53-3.75.44-3.19-.54-2.19.1-1.4-.45-.67-.54L619,182l.22-1.43-.11-8.61,1.12-2.87,4.76-6.45.4-.36,1-.09,1-1.52,2.13-2.51,1.12-2.42.16-1.8-.72-2.24-1.68-1.79-.4-.81.11-.63.73-.62,1-.18.84-.72,1-1.79v-2.06l.56-2.25.78-1.34,2.24-1.26-.22-1.52.06-2.69.33-.72.68-.63,1.34-.45.62-.53,2-3,2.92-1.44.78-1-.23-.27-2-.54-.68-.63-.17-2.51.9-5.29.5-1.52-.56-.45-4.65-1.61h-.89l-.51.27-1,.9-.95.35-1-.18a8.61,8.61,0,0,1-.94-1c-.59-.83-.84-2.27-1.51-3a6.45,6.45,0,0,0-2.2-1.51,21.6,21.6,0,0,0-4.33-.75l-1.24-.35-1-1-1-1.39-.94-3.51.07-2,1.46-3.32,1.93-3.18.57-2.35" fill="none" stroke="#000" stroke-linejoin="round" stroke-width="0.25"/>
      <polyline class="polyline2873" points="647.48 196.21 647.42 196.83 646.13 201.14 657.79 205.35 657.85 205.89 656.73 214.94 656.78 215.57 663.17 220.23 664.18 221.49 665.02 223.37 670.68 231.62 673.43 236.1 672.7 237.63 670.01 241.66 668.77 243.9 666.76 246.77 666.03 248.56 658.75 253.59 654.37 256.1 650.84 252.51 647.93 250.18 638.51 249.55 632.85 254.93 630.5 258.34 629.49 260.13 622.43 264.25 615.82 268.92 611.84 272.23 611.18 273.23" fill="none" stroke="#000" stroke-linejoin="round" stroke-width="0.25"/>
      <polyline class="polyline2875" points="805.46 278.42 804.11 278.87 802.26 278.96 801.98 278.24 802.03 275.64 800.52 275.19 796.38 270.35 795.82 268.65 795.59 268.47 790.38 267.75 790.43 267.12 791.67 263.72 791.84 262.82 793.74 258.61 795.31 255.74 795.76 254.3 794.3 254.21 791.84 253.59 788.25 248.93 787.35 247.31 784.5 243.46 776.93 234.49 771.89 227.05 770.2 225.34 765.61 221.4 763.76 219.43 762.81 218.8 759.73 215.3 755.97 211.63 754.01 210.1 748.01 204.19 736.02 191.01 732.77 188.14 728.04 187.69 725.21 187.51 722.14 188.18 720.39 189.03 719.15 189.31 712.26 191.99 711.92 190.47 710.92 189.31 710.3 186.97 708.12 183.57 708.28 182.49 708.12 182.13 705.54 179.26 705.03 178.99 703.18 179.17 701.33 175.05 699.43 175.68 698.53 173.43 697.07 171.01 695.17 168.15 693.6 166.44 692.08 164.2 689.9 164.47 688.84 163.48 688.33 163.3 687.27 163.3 686.2 162.94 684.69 163.03 684.02 162.77 682.95 161.06 681.66 160.08 681.1 159.81 679.54 159.9 677.97 160.43 677.52 161.33 677.29 162.32 676.96 162.77 674.94 163.66 674.38 164.83 673.31 166.26 672.7 166.71 670.01 168.06 666.92 168.95 666.53 169.67 665.69 172.18 664.85 173.35 661.77 175.68 661.27 176.3 661.54 178.01 660.87 180.16 657.29 187.51 656.95 189.66 656.5 190.92 655.21 192.35 652.8 197.82 647.48 196.21" fill="none" stroke="#000" stroke-linejoin="round" stroke-width="0.25"/>
      <polyline class="polyline2879" points="611.18 273.23 611 273.13 608.53 275.01 603.38 277.07 601.75 277.25 597.61 276.54 596.32 277.16 594.69 278.42 594.58 278.87 595.08 279.94 595.64 280.39 595.59 281.02 593.91 282.63 590.82 284.07 589.65 282.9 588.53 282.54 586.73 282.63 584.04 283.98 583.32 283.53 582.25 283.35 580.57 280.75 578.72 277.34 578.38 276.36 578.1 276.36 576.64 276.81 576.64 278.33 576.37 278.87 575.92 279.14 575.02 279.23 573.9 278.6 572.61 278.6 570.14 279.68 569.53 280.3 569.53 281.38 567.62 284.43 566.89 285.14 564.15 286.76 562.86 288.1 560.51 289.36 559.72 289.45 557.09 288.46 552.83 288.19 551.77 287.92 549.47 285.68 548.12 285.32 547.39 285.5 541.68 289.27 541.44 289.02" fill="none" stroke="#000" stroke-linejoin="round" stroke-width="0.25"/>
      <polyline class="polyline2881" points="729.9 346.37 729.3 346.46 727.56 346.11 727.39 345.66 727.22 341.8 728.18 340.01 728.12 339.65 725.6 338.13 712.15 331.85 710.36 331.31 709.29 331.31 705.82 332.12 701.89 332.66 696.23 334.36 689.57 340.46 689.68 342.52 690.63 349.61 690.63 350.86 690.13 351.4 687.49 349.69 685.64 348.98 681.89 348.08 680.54 346.56 679.48 346.64 678.58 349.25 677.85 349.78 676.23 349.87 675.27 349.51 673.87 348.53 672.98 346.11 672.42 345.57 671.19 346.2 670.85 346.82 669.5 347.63 668.21 347.99 665.8 349.16 663.67 349.87 663.12 349.78 662.44 349.25 660.37 343.69 659.25 341.9 657.51 340.01 655.77 338.67 654.71 337.5 653.31 336.33 652.64 336.15 652.3 335.8 652.08 335.26 652.02 333.73 651.79 333.2 650.73 332.57 649.83 332.57 645.24 333.64 643.89 333.73 642.6 333.11 641.26 333.11 639.97 333.47 636.72 331.23 635.09 329.34 633.08 328.98 630.56 327.28 628.65 326.74 627.42 327.64 626.52 328.98 625.62 329.88 624.45 330.42 623.89 330.06 622.88 328.8 621.48 328.98 621.03 328.71 619.18 325.49 618.28 324.86 617.73 323.51 617.22 321.45 616.21 319.03 616.21 318.67 614.36 315.18 611.89 308.99 611.39 307.56 611.23 306.39 611.28 305.23 611.73 304.33 612.4 303.61 614.48 302.72 618.06 301.73 622.15 297.88 626.47 294.38 627.47 293.12 627.2 292.14 625.07 288.73 614.3 278.06 613.29 276.89 611.84 273.76 611.18 273.23" fill="none" stroke="#000" stroke-linejoin="round" stroke-width="0.25"/>
      <polyline class="polyline2883" points="555.8 352.75 555.91 352.29 560 350.77 560.84 350.14 563.87 348.88 580.89 336.84 577.32 333.92 570.65 333.38 570.2 332.93 569.98 331.94 570.48 331.23 571.21 330.96 572.78 329.07 575.3 327.28 576.93 325.67 574.18 320.74 572.33 317.87 569.75 309.35 568.52 306.93 566 304.33 562.58 301.82 559 298.5 556.47 296.8 554.34 295.99 551.99 295.54 549.92 295.45 547.45 295.81 544.82 292.59 541.44 289.02" fill="none" stroke="#000" stroke-linejoin="round" stroke-width="0.25"/>
      <polyline class="polyline2887" points="342.07 475.75 338.71 475.57 337.81 475.83 336.46 477.27 333.55 477.99 331.98 478.79 331.2 479.6 329.63 482.2 327.39 479.69 327.05 475.83 327.11 473.6 324.62 472.71 318.87 475.83 317.97 475.93 316.62 475.57 311.92 477.81 309 479.6 307.44 480.05 302.73 480.41 300.65 479.87 300.37 479.42 292.47 478.17 291.69 476.64 291.75 475.39 292.25 474.31 294.32 471.62 294.83 470.54 295.55 466.96 295.55 464.45 295.27 462.75 295.55 461.94 295.89 461.4 298.47 459.16 300.1 457.19 302.73 450.56 304.58 447.5 300.38 446.16 298.98 447.32 298.19 447.5 296.96 448.31 294.88 448.67 290.79 447.24 281.47 443.08" fill="none" stroke="#000" stroke-linejoin="round" stroke-width="0.25"/>
      <polyline class="polyline2889" points="738.49 511.67 731.2 511.34 729.13 510.89 727.05 509.99 719.83 508.38 718.76 507.75 718.37 507.39 718.65 506.68 719.94 505.06 721.06 502.82 721.11 501.65 720.44 499.06 720.56 497.71 720.33 496.46 719.66 495.56 716.58 494.13 714.28 493.68 712.71 493.94 711.98 494.13 709.68 495.65 706.82 496.1 706.32 495.74 706.6 494.48 706.6 492.87 705.98 490.99 705.42 490.36 699.37 491.7 697.52 491.88 696.06 491.88 690.91 490.99 688.11 490.9 684.46 491.52 682.11 489.46 680.15 488.12 679.31 485.34 676.56 483.1 673.31 478.88 670.51 474.58 669 471.17 668.83 470.37 669 469.65 668.89 469.38 666.14 469.29 665.41 469.02 662.05 469.02 660.37 470.01 658.29 470.54 656.56 470.63 653.98 471.89 653.19 472.7 652.8 474.58 648.21 474.94 646.02 474.94 644.06 474.67 643.44 474.31 640.87 474.4 639.69 475.03 631.57 474.49 627.25 473.41 624.22 472.25 621.59 471.71 620.69 471.98 619.74 472.7 617.78 474.76 617.5 476.11 617.27 476.46 616.77 476.37 615.2 474.85 614.41 474.49 613.63 473.41 613.69 471.8 615.14 469.56 615.31 468.66 615.14 468.12 614.81 467.77 610.44 466.96 609.54 466.24 609.54 465.25 610.33 463.91 611.28 463.91 611.5 463.59 610.61 462.48 610.04 460.77 609.49 460.15 609.09 458.53 608.2 456.38 607.47 453.78 606.02 450.74 604.61 451 602.59 450.91 601.81 449.93 600.57 445.53 600.35 445.17 598.22 444.55 599.01 442.48 600.24 435.85 600.3 434.86 600.57 434.24 602.81 433.34 603.38 432.8 603.56 432.33 601.14 430.29 600.8 429.57 600.91 428.77 601.58 428.32 603.32 427.78 607.19 427.24 609.26 425.9 609.93 424.38 610.66 421.6 611.63 420.2 610.05 418.97 608.08 416.93 608.73 415.01 608.77 412.71 609.82 410.12 608.65 407.97 606.52 405.63 606.18 404.83 606.12 401.51 605.9 400.62 604.16 396.85 601.25 394.16 597.27 391.29 596.88 388.42 595.75 386.18 593.85 384.75 591.34 383.65 589.31 384.93 588.02 384.57 585.05 386.99 582.53 389.41 580.23 392.1 578.72 393 578.27 393 577.1 391.47 574.85 391.38 574.35 391.83 573.62 393.26 571.1 394.88 570.6 394.07 569.64 391.74 568.07 389.23 565.72 384.3 563.14 380.71 561.18 379.73 559.31 379.7" fill="none" stroke="#000" stroke-linejoin="round" stroke-width="0.25"/>
      <path class="polyline2895" d="M388.58,596.42l2.86-.23,2.74.23,1.32-.62.5-.61-.66-.82-1.26-.72-.44-1.23,1-1.4,1.51-.27,2.85-.25,1.06-1,.74-1.49.22-1.43.62-.65,1.52.31,1.51-.11,1.37.09.85-1.24.17-1.25.9-1.79,1.74-2.51,2.41-4.85,1.46-2.46,4.08-6.87,2.13-4.56s2.65,2.85,4.53,2.85,4.37-1.5,4.75-3.25,2.5-4.25,3.87-2.75,4.25,3.88,5.88,4.38a28.08,28.08,0,0,0,3.5.87,6.86,6.86,0,0,1,3.12,1.25c1,.75,4.75,1.38,6.63-1.12s4-3.75,5.25-2.88a5,5,0,0,0,4.37.5c1.25-.5,6.38-2,7-2.5s2.75-3.87,5.75-2.87a13.42,13.42,0,0,0,5.5.75c.88,0,4.63.75,5.88,2a12.53,12.53,0,0,0,3.87,2.25c1.25.62,3,.5,3.75,1.87a8.47,8.47,0,0,0,5.25,3.75c2.25.38,4.63.63,5.5,1.5s1.88,1.75,1.88,1.75l3.12-1.75.25-1.12,1.25-.13a12.18,12.18,0,0,0-.37-2.37c-.25-.63-1-2.13-1-2.13a8.85,8.85,0,0,0,.87-1.87,2.2,2.2,0,0,0-.5-1.75c-.37-.5-1.62-1.5-1.62-2.5a16.52,16.52,0,0,0-.25-2.38l-1-1.12-1,.12-2.5-2.62v-2.25l-1.25-.88,1.12-1.25v-1.5l-.75-1.25.63-2.25.12-1.25-4.5-2,.63-2.5-3.38-.37,1.25-6.38a11.12,11.12,0,0,0,.25-2,9.1,9.1,0,0,0,0-2.62,6.75,6.75,0,0,0-1.5-1.38v-3l-1.25-.12,1.25-1.25-1-1.88-4,1.13,1.88,1.5-.25,3-1.38-.38-1.37,1.25,1.62,1-2,1.5a4.66,4.66,0,0,0-1.62-.12,3.44,3.44,0,0,0-1.75,1.25c-.38.5-.5,1.25-1.5,1.25a4.51,4.51,0,0,0-1.75.25,11.88,11.88,0,0,1-1.25.25s-2.13-1.38-2.5-1.5l-.38-.13-.62-1.25a3.7,3.7,0,0,0-1-.25c-.38,0-1.38-.75-.13-1.25a6,6,0,0,0,2.25-2.12l2.63-1.5-.25-3.88a16,16,0,0,1,1.75-1.37.83.83,0,0,0,.12-1.38,3.48,3.48,0,0,0-1.12-.62s2.62-.38,2.87.12,1.38.25,1.13-.12a4.17,4.17,0,0,1-.38-1.25l-1.62-.13a2,2,0,0,1-.25-1.25c.12-.62.37-2.12.37-2.12l2.75-.5.38-2-3-1v-2.25l-3.25-1s.62-2.13,0-2.88a4,4,0,0,1-.75-1.87l-7.13-.88-.62-1L472.57,483l-6.13-5.37-.62,2-2.63-2.38,2.37-9.93" fill="none" stroke="#000" stroke-linejoin="round" stroke-width="0.25"/>
      <polyline class="polyline2895-2" data-name="polyline2895" points="385.35 606.91 388.58 607.47 389.12 602.82 389.44 601.56 387.62 601.25 385.53 601.16 384.25 600.75 382.83 600.16 382.84 597.81 382.31 595.8 384.64 596.71 386.63 596.38 388.58 596.42" fill="none" stroke="#000" stroke-linejoin="round" stroke-width="0.25"/>
      <polyline class="polyline2897" points="555.71 626.25 556.7 625.74 556.98 625.02 557.48 621.16 562.36 620.09 563.03 620.36 563.76 621.79 566.62 625.38 566.95 626.72 567.62 627.53 571.04 628.6 571.54 630.13 572.11 630.94 572.61 631.03 576.53 629.74" fill="none" stroke="#000" stroke-linejoin="round" stroke-width="0.25"/>
      <polyline class="polyline2899" points="555.71 626.25 551.88 626.45 545.15 627.98 540.56 628.52 538.99 629.05 537.48 628.79 536.52 628.25 534.95 626.81 532.83 623.14 531.25 621.7 529.97 621.34 527.22 621.25 525.93 620.9 525.32 620.09 524.59 618.03 523.97 617.13 521.23 616.59 517.97 614.98 516.57 613.45 514.33 608.61 511.92 606.73 503.8 603.59 502.45 603.5 497.57 603.95 495.22 604.49 494.21 604.94 492.75 606.46 491.81 606.91 490.57 607.09 489.39 606.91 485.86 604.22 483.96 603.05 482.62 602.96 481.49 603.23 480.76 604.04 480.32 605.21 478.35 607.9 476.56 608.97 474.49 609.69 472.02 609.87 470.56 609.69 469.27 609.33 467.04 606.91 465.86 606.73 465.02 607.36 462.83 609.69 462.27 610.67 460.2 613.18 458.4 616.05 456.83 619.19 455.94 625.02 455.6 626.36 454.43 628.25 453.7 629.05 452.69 629.5 449.44 630.31 444.67 632.73 443.56 633 441.03 632.82 436.21 634.79 435.03 634.61 432.35 632.64 431.23 632.19 429.71 632.01 426.29 632.64 419.45 632.19 414.69 632.82 413.57 633.17 409.82 633.36 408.7 633.63 408.19 633.27 408.25 632.37 408.59 631.57 411.61 627.98 411.17 627.62 410.83 626.9 410.83 624.39 411 623.14 410.77 622.87 405.5 619.73 404.33 618.56 403.54 618.12 402.42 618.12 398.95 620.18 397.99 620.36 397.04 620.09 393.18 615.16 391.33 613.36 386.45 610.94 385.67 609.78 385.39 608.25 385.35 606.91" fill="none" stroke="#000" stroke-linejoin="round" stroke-width="0.25"/>
      <polyline class="polyline2901" points="309.81 639.74 312.21 638.87 314.59 638.21 316.93 637.54 318.94 635.89 320.91 634.72 324.36 632.19 326.66 630.13 330.19 626.27 331.25 624.21 331.81 621.97 332.48 620.44 334.89 617.49 335.96 616.5 340.4 614.44 343.75 613.81 349.3 614.17 352.83 613.63 355.74 612.29 362.52 607.27 366.39 605.48 369.81 604.76 371.04 604.67 375.36 605.12 385.35 606.91" fill="none" stroke="#000" stroke-linejoin="round" stroke-width="0.25"/>
      <polyline class="polyline2903" points="237.96 749.58 237.83 748.74 237.28 747.75 236.6 747.4 235.26 747.4 235.03 747.13 235.03 746.77 235.7 745.96 235.82 745.33 235.76 742.55 235.26 740.58 234.7 739.24 234.31 736.37 234.81 734.93 236.55 733.23 234.05 725.5" fill="none" stroke="#000" stroke-linejoin="round" stroke-width="0.25"/>
      <polyline class="polyline2907" points="555.71 626.25 557.15 626.54 559.44 627.53 560.84 629.05 561.57 631.11 561.35 635.15 561.63 636.23 562.25 637.03 563.98 638.38 566.56 639.1 569.3 639.27 570.48 639.1 571.66 640.17 574.46 640.8 575.97 641.51 577.21 643.22 577.49 644.29 577.71 646.72 579.17 650.84 579.53 653.59 579.35 655.88 579.59 658.41 580 660.65 580.59 662.12 581.47 663.3 583.37 664.47 586.79 665.9 587.74 666.53 588.98 668.23 589.48 670.38 589.98 671.1 590.54 673.25 590.99 676.75 592.34 679.71 594.19 682.22 594.19 683.29 593.46 685.8 593.74 686.88 594.89 688.69 593.4 690.38 592.34 690.11 591.83 691.36 591.33 691.1 588.53 688.14 587.52 687.51 586.34 687.24 585.27 687.33 580.85 688.76 574.4 691.63 569.75 692.89 568.19 692.79 567.35 692.44 563.81 689.66 563.03 689.39 561.57 689.12 553 688.67 552.33 688.4 554.34 699.97 555.13 708.04 556.86 711.89 557.09 712.79 559.22 725.79 562.02 730.72 566.89 736.73 572.05 746.95 570.2 748.92 565.66 752.24 560.12 757.08 550.53 759.5 538.09 763.8 531.03 765.5 523.47 768.28 519.09 769.54 517.69 771.15 509.62 783.88 509.74 788.19 508.9 796.44 504.53 798.95 502.9 798.5 499.13 799.57" fill="none" stroke="#000" stroke-linejoin="round" stroke-width="0.25"/>
      <polyline class="polyline2877" points="541.44 289.02 540.67 286.4 540.39 284.43 533.44 277.52 529.63 277.07 528.17 277.61 528.23 278.09" fill="none" stroke="#000" stroke-linejoin="round" stroke-width="0.25"/>
      <path class="path3089" d="M229.13,704.92s1.66-6.67.53-9.56-5.14-5.29-6.38-7.45-2.38-4.07-2.65-6.38a12.56,12.56,0,0,1,1.06-6.91c1.09-2.51,5.85-7.44,5.85-7.44" fill="none" stroke="#000" stroke-linejoin="round" stroke-width="0.25"/>
      <path class="path3195" d="M447.59,458.62l-10-1.86-4.63,8.87-4.25,9.63-1.5,7.12-4.75,9.25-14.37-1.25-15.5,4.88-.75-5.75-1.75-.13.87-4.37-3.25-1.13.25-1.25,3,.75-.12-2.25a44.73,44.73,0,0,1-.25-4.5c.12-.37,1.12-2.25,1.12-2.25l3.38-2.12-2.25-2.5s-.25-2.63-.38-3.38-1.12-1.5-1.25-.62-.62,1.37-1.12,1-1.13-.75-.5-1.5a1.52,1.52,0,0,0-.13-2.13,1.68,1.68,0,0,1-.87-1.25c0-.37-1.38-1.75-.25-1.62a1.81,1.81,0,0,0,1.87-1c.38-.5.63-1.38,1.5-1.13a6.64,6.64,0,0,0,1.63.25l.62-1.12,1.63-1.38.5,1.88,1.25-.38-.5-2.12-1.38-1.13-3.37,2.5-2.88-2.12-1.5,2.25.13-6.88h-2.25s-1.63,1.25-1.75,2a13.37,13.37,0,0,1-1.25,2.63l-2.75-.38-2.5,2s.25,1.25-.63,1.63a8.69,8.69,0,0,1-3,.37c-.75,0-2.37.5-2.87-.12s-1.25-1-1.75-.75a1.09,1.09,0,0,0-.63,1.12c0,.5.5,2.88.5,2.88l-1,.37-.12,1.75-1.13.13-.12,1.37-1.63,1.63a1.6,1.6,0,0,0-1.5.37c-.5.63-1.37.13-2-.37a2.13,2.13,0,0,0-2.25-.13c-.37.38-1.5.75-1.87.25s-.5.13-1.13.5-2.5,1.75-2.5,1.75-.12,1.75-.75,2.25-3.5,2.13-4.37,2.63-2.88,1.5-2.88,1.5l-2.12-.38-1.5.87" fill="none" stroke="#000" stroke-linejoin="round" stroke-width="0.25"/>
      <path class="path3197" d="M388.58,596.42c.13-1.84-.45-1.91-.7-2.29a2.17,2.17,0,0,1-.31-1.12c0-.25.44-3.69.44-3.69l-5.63,2.81s-.19-.87-.25-1.37.19-.75.5-1.32a3.68,3.68,0,0,0-.12-2.68,3.29,3.29,0,0,1-.25-2,17.52,17.52,0,0,0-.19-2.38l-4.31,2.06-.06-3.75-1.75-.81-.07-1.12-1.75-.63-1.62-6a2.44,2.44,0,0,0-.75.63,11.12,11.12,0,0,1-.81,1l-1.5-6.19-1-1.18c-.58,1.25-1.34,2.46-2.23,2.61-1.5.25-7.75,1.88-7.75,1.88l-1.25-5.63s-2.25-4-3-4.87a23.16,23.16,0,0,0-2.5-2.25l-5.5-7.88,7.87-2-2.12-4-1.63.38-2.62-.38-1.38,1.63-3-.25-.87-2.75,2.37-1.63-.75-2s2.38-.62,2.75-1.87a29.33,29.33,0,0,1,2.13-4.13l3.37-2.37,4.38-1.5.75-2-6.38-.13-2.12.88.75-2-1.63-.75-1-9.63L348,515l-7.25-5.5a14.69,14.69,0,0,0,2.5-.37c.75-.25,1.37-1.88,1.25-2.75s-.25-1.75.62-2.13,2.75-1,2.75-1,1.13-.87,2-.25,1,1.38,1.75,1.38h1.5l.75.75a12,12,0,0,0,1.88-.13c.5-.12,1.87-.5,1.87-.5l.13-5.62,3.5-2-7.5-6s-2.88-.25-3.25-.88-3-3.5-3-3.5v-1.12l-1.88-1.88h-2.25l-.12-5-1.13-2.76" fill="none" stroke="#000" stroke-linejoin="round" stroke-width="0.25"/>
    </g>
    <g class="layer4">
      <path class="path2799" d="M587.46,949.75a7.56,7.56,0,0,0-.57,1.7c1.2,1.85,4.56,1.7,5,3.86-.28.76-.85,1.36-1.11,2.13-.46,1.37-.91,5.5.67,6.11a6.9,6.9,0,0,1,2-.19c.67-4.14,4.75-2.42,7.56-2.13,1.07.11,2-.13,3.08.35l.46.62a2.45,2.45,0,0,1,1.61-1.61l.78.1c1.46,1.3,1.15,3.64,2,5.27,1,.95,1.19,2.44,1.79,3.6,1.81,3.48,5.52,9.91,8.06,12.74.52.57,1.44.66,2,1.32l.22.89-.38.74c-.73.48-1.69.34-2.31,1,1.11,2.23,3.15,3,1.13,5.92l.22.64a2.48,2.48,0,0,0,2.25.61c2.22-5.44,8.14.65,13.61.1,1.24-.13,2.5-.78,3.76-.62,2.56,2.77-3.42,5.82-3.74,7.62" fill="none" stroke="#000" stroke-linejoin="round" stroke-width="0.25"/>
      <path class="path2801" d="M828.82,147.52c.45.68.81,4.34,1.06,5.47,1.11,5,1.41,10.45-.89,15.24-.6,1.26-1.84,2.05-2.35,3.41-.59,1.55-.08,3.48-.62,5-.68,1.89-1.57,2.93-1.73,5.11-.47,6.12,2.9,5,3.64,8.33.51,2.29-.11,6.09-.18,8.52,0,2.07,1.36,21,1.75,22.16.09.28.69,1,.88,1.35.22,1.27-1.8,3.52-1.56,5.54-.79,2.69-1.11,5.21-1.62,7.71-.26,1.32-3.92,11.47-4.54,12.55-1.67,2.89-4.22,5-5.89,7.81a14.89,14.89,0,0,0-.95,2.41,21.82,21.82,0,0,1-3.14,4.86c-2,2.59-4.66,4.62-6.33,7.43a8.7,8.7,0,0,0-1.3,6.08c.68,3.56-3.24,5.82-4.2,9.07a21.85,21.85,0,0,0-.16,3.24c-.9,6.27-.38,11.61-.78,17.7-.12,3.1,0,6.22-.29,9.28-.29,3.39-.91,6.76-1.17,10.13-.21,2.82.31,5.64.22,8.43-.06,2.32-1.61,8.7-3.87,9.75-5.3,2.47-8.69-4.73-12-3.93-.68.48-1,1.23-1.68,1.71-.34.1-9.62.58-10.36.52-1-.44-2.11-3.54-3.65-4.22a6.35,6.35,0,0,0-1.52-.35,38.57,38.57,0,0,0-4.58.73,91.69,91.69,0,0,1-11.72.52c-4.22,0-5.06-3.05-10-.71-3.47,1.63-6.3,6.58-8.74,7.08l-.39.9c4.24,5.54,1,6.79.28,12.64,1.25,1.82,6.78,3.53,8.18,6.56l-.27.8c-1.27,1.31-4.92.27-6.62.36-1.24,1.41-.63,2.17-1.24,3.22-1.25,2.14-4.44.3-6.1.54l-.28.9c.82,1.44,2.27,3.29,2.74,4.83a41.15,41.15,0,0,1,.55,11,21.26,21.26,0,0,0-.55,3.12,7.46,7.46,0,0,1,.62,1.52c2.61,1.78,7.06,4.53,9.07,6.81,4.73,5.38,16.34.75,20,1.9.89.65.81,2,1.73,2.67a5.87,5.87,0,0,0,1,.5,3.26,3.26,0,0,0,1.2.3c2.44.23,4.69,2,7.06,2.54a31.83,31.83,0,0,0,3.2.26c1.67.22,4.67,2,6.21,1.44,2.8-1.05,5.17-5.77,6.67-8.07l.73-.35c2.45.85,5.11,11.29,6.27,13.61a7.4,7.4,0,0,0,2.71,2.84c5.66,3.73,5.85,2.65,6.94,9.9.35,2.32,1.23,5.4.9,7.71s-6.14,11.63-6.9,14.7c-2.35,9.55-2.6,10.54,1.61,19.36a22.68,22.68,0,0,1,1.69,4l-.1.61c-2.6,2.61-8.29,2-11.84,2.61-3.7,3.2-4,10-7.16,14.18-1.51,2-9.93,2.9-10.93,3.48-1.45.83-2.07,3.6-3.08,4.85-.76.94-1.69.78-2.31,2.15-1.44,3.19.25,7.69-3.42,10-3.49,2.24-17.71-1-20.39,1.87a4.7,4.7,0,0,0-.46.64c-.59,1.34-.78,2.81-1.45,4.21a6.59,6.59,0,0,0-.34.71c-.44,1.73.25,3.12-.78,4.86-2.26,3.81-8,2.28-10.13,4.31-.65.6-1.13,4.34-1.13,5.27,0,1.09-.52,3.58-.12,4.4l.69.46c7.64-.71,6.18.25,11.81,4,4.66,3.14,8.28,3,11.84,8a23.18,23.18,0,0,0,3.52,3.69c-.14,2.49,1.82,4.84.57,7.46-1,2.12-3.6,1.2-5,2.76s-1.31,6.92-3,9.33-5.27,3-7.34,5c-.58.56-.77,1.45-1.29,2.06-.81.39-4.86,2.74-5.22,2.7-2.09-.95-4-1.72-5.44-3.6-.45-.59-.81-1.46-1.62-1.71-2-.62-3.56,1.54-5.21,2.35-2,1-9.67,2.1-13.11,3.5-2.47,1-4.66,3-7.23,3.77a8.13,8.13,0,0,0-2-.29c-1.55,1-2.67,2.72-4.32,3.5-1.45.68-3.35,1-4.65,2-2.92,2.14-.52,2.56-5.83,4.21a5.69,5.69,0,0,1-2.59.55c-.52-.63-2.19-2.49-2.95-2.61a11,11,0,0,0-1.91.29,38.11,38.11,0,0,1-5.39-1.45c-1.07-.4-2.07-1.26-3.3-.71l-.28.9c.46.88,1.16,2,1.51,2.87a63.48,63.48,0,0,1,.4,9c-.86.24-1.83-1-2.85-1-1.68-.07-4,1.4-5.55.8-.24-1.6.81-3.26.44-4.47-1.52-1.76-6.26-3-8.47-2.79a26.12,26.12,0,0,1-2.69.54c-1.22-1.67-1-3.21-2-4.66-.76-1.16-2.93-3.4-4.44-3.15-.83.14-1.42.89-2.23,1.09a18.11,18.11,0,0,1-3.14.16c-3.48-.23-8.37,2.09-10.31-1.77-.38-.77-.43-1.66-.84-2.44a5,5,0,0,1-1.45-.8,18.51,18.51,0,0,0-1.18-3.22,15.4,15.4,0,0,0-4.55-3.31,3.14,3.14,0,0,0-2.35.8,5.09,5.09,0,0,1-2.35.9c-1.24.11-2.92-.22-4,.16-.44.75-1.28,1.32-1.29,2.25.51.81,2,.81,2.75,1.51,3.3,3,2.07,3.35,3.64,6.2,2.25,4.07,5.84,1.65,5.72,7.63,0,.68,0,1.92-.61,2.41-5.2-2.73-11-2.88-16.54-4.66-2.14-.69-3.68-2.31-5.55-3.41-1.53,4.63-1.09,2.85-4.09,5.21-1.52,1.21-4.44,4.68-6,5.18-4,1.31-7.28-2.31-11.94,1.8v.64a5.26,5.26,0,0,1,1.45.8l-.32.55a4.89,4.89,0,0,0-1.47.8l-.34.71.28.81c6.75,1.36,2.62,5.35,5.38,8a2.34,2.34,0,0,1,1.69.54c.2.52.42,1,.67,1.52l-.12,1.09a3.26,3.26,0,0,0-.83,1.32,4.38,4.38,0,0,1,1.35,2c0,2.35-4.41,3.87-6,5.44a4.47,4.47,0,0,1-1.06.83,4.38,4.38,0,0,0,1.18,3.51c2,.08,4-.92,5.88-.74,2.94.29,8.51,5,10.53,7.1l-.33.52a2.93,2.93,0,0,0-1.34.9c-.59,2.07,0,4.13,0,6.28,0,1.41-.59,3.4-.28,4.66,1.08,4.39,8.15,5.44,11.7,6.36,1.78.47,3.5,1.27,5.27,1.71l.52.54c-.73,2.83-5.32,13.41-4.44,15.34,1.31,1.4,3.39,2,4.38,3.48,1.38,2.1,1.52,4.81,3.14,6.82,1.24,1.55,3.19,1.75,4.58,3.15,1.1,1.09,2,4.54,2.81,6.08,1.87,3.71,5.77,6.32,7.62,10.13a8.68,8.68,0,0,1,.51,3.86c-.68,5.33,3.08,8.17,2.79,11.22-.19,2-1.78,4-1.85,6,0,1.6.77,3.05.57,4.85-.23,2-2.07,7.64-1.9,9l.45.73a5.16,5.16,0,0,1,3.07,1.35l.17.88c-.51.62-1.28.93-1.8,1.54-.46,1.34,2.1,6.93,1.29,9.23s-3.71,4-5.43,5.66c-.87.83-1.06,2.65-1.79,3.76-1.37.38-2.67,1-4,1.42-1.48,3.39-2.47,6.64-4.26,9.87-1.18,2.13-3.24,3.57-4.36,5.64-.69,1.26-1,2.69-1.63,4a35.5,35.5,0,0,1-4.64,5.73c-1.06,1.07-2.48,1.81-3.26,3.14-.07,1.41,1.21,3.31,1.41,4.93-.9.58-2,1.12-2.25,2.25-.36,1.45.77,12.26,1.46,13.63a4.93,4.93,0,0,0,2.18,2.24,12,12,0,0,0,2,.08c1.54-.36,8.91-7,10.91-7.79,1.54-.63,4.11-.1,4,2-2,1.21-3.84,3-5.89,4.05l-.32.71c1.25,2.47,3,1.88,4.81,3a2.78,2.78,0,0,1,.51,1.71,34.91,34.91,0,0,1-7.11,4.92c-2.52,1.22-5.23,1.83-7.46,3.6-1.15.9-1.62,2.68-3,3.13s-4,1.22-4.91,2.15c-1.35,1.31-2.07,4-3.54,5.37-2.31,2.23-6,2.69-8.18,5.11-1.58,1.51-3.71,3.39-4.7,5.21-1.08,2-1,4.79-2.3,6.63-.42.6-1.22,1-1.68,1.61s-.5.91-1,1.26a7.72,7.72,0,0,1-2.86.37c-4.58-.86-4.11-8.32-6.28-9.16l-.89.29c-2.6,4.37-6.91,3.64-7.62,5.47-.59,1.51,1.24,2.28,1.45,3.66a17.44,17.44,0,0,1-.5,5.12c1.37,3.25,1.19,1.78,3.86,2.86,1,1.76,1.56,3.48,2.47,5.21-.13,2.24-2.53,4.35-1.85,6.81,2.3,1.12,7.36-3,9.81-3.78,2.8-.91,3.68,1.81,6,2.24,3.09.6,9.49-2.77,11.78.29l.1,1c-.92,1.68-3.56,2-3.7,4a2.65,2.65,0,0,1,.68,1.52,3.72,3.72,0,0,0-1,1.25c.53,3.56.19,7.58,4.49,8.69,1.18.31,2.75,0,3.8.38a3.3,3.3,0,0,1,.68,1.61c1.63.62,4.18.19,5.43,1.16l.22.71c-.76,2.46-2.35,4-2.07,6.91.18,1.87,3.2,5.51,2.64,7a13.11,13.11,0,0,0-1.69,1.63c-1.1,1.67.06,5.17-3,5.82l-.9-.29a3.19,3.19,0,0,0-.95-1.15c-2.69-.42-5.72,1.62-7.61,3.31-.73,3,2.75,5.41.65,10-1.44,3.1-2.52,4.19-5.64,2.15H582l-.68.45c-.29.61-.85,1.53-.6,2.22,3.5,4.25,9.37,6,6.72,12.48" fill="none" stroke="#000" stroke-linejoin="round" stroke-width="0.25"/>
      <path class="path2805" d="M229.77,757.72a36.28,36.28,0,0,1-4.27,6.17c-6.9,9.14-13,14.37-22.69,20.26-3,1.8-5.7,4.05-8.68,5.82s-6.53.13-9.14,1.71c-3.91,2.38-10.8,11.31-15.41,10.77-3.37-3.52-5.09,3.67-10.15,2.51l-.61-.81a3.2,3.2,0,0,0-.17-2.34c-2-.24-3.88.94-5.83,1.16-3.29.35-9.64-.74-12.39-2.68-2.12-3.16-.32-9.17.06-12.64a4.85,4.85,0,0,0-2.73-1.8,13.45,13.45,0,0,0-2.19.64c-2.29-.44-3-2.11-5-2.79-2.94-1-6.69,0-9.47-1.35-2.4-1.15-3.5-4.81-6.27-5.47-6.19,1.78-11.57-5.3-14.85-3.57a11.56,11.56,0,0,0-1.85,2.77,9.64,9.64,0,0,1-2,.8c-4.79-1.75-4.29.68-7.5,1.8l-2.91-.36-.73.81c-.43,1.89.81,8.23.61,11.39l-.67.8c-1.36.29-2.84.57-4.21.8-4,.68-9.6,2.41-13.28-.16-2-1.4-3.48-3.53-5.43-5-1.53-1.19-4.46-2-5.33-3.84-.54-1.12-.14-2.51-.28-3.69-.18-1.57-1.41-2.45-1.85-3.86.3-1.11,1.27-2,1.12-3.21l-.45-1c-.86-.38-2.21-1-2.4-2.06l.1-1.16c7.88-8.46.81-11.08,1.75-17.2" fill="none" stroke="#000" stroke-linejoin="round" stroke-width="0.25"/>
      <path class="path2807" d="M587.46,949.75a16.15,16.15,0,0,1-2.19.26c-.72,0-1.49.47-2.24.45-2-.06-3.24-2.2-5.26-2.42s-9.33,3.13-12.78,2.8l-1-.83a6.85,6.85,0,0,0,0-3.86,6.76,6.76,0,0,0-1.85-.17c-1.06,1.47-4.59,3.82-6.44,3.13a4.37,4.37,0,0,1-.51-2.15l-1-.36c-1.88.9-4.59,3.34-6.67,3.15-2.3-1.73-1.92-4.43-5.66-4.4a3.92,3.92,0,0,1-1.51-2.77l-.78-.73c-2.45.19-3.5,3.65-5,5.25-.51.55-1.05,1.07-1.52,1.66L532,949l-1.12-.45-.61-.88c-3.39-.51-3.29,2.1-6,1.87l-1.35-.89c.53-2.39,2.48-4.6,2.74-6.9.22-1.93-1.68-3.4-1.57-5.39a7.36,7.36,0,0,0,.85-2.32c-3.77-2.71-8.94-3.37-11-8.07-1.74-3.91-2.47-6.07-1.35-10.39,1.72-.6,1.71-3,1.91-4.5a10.66,10.66,0,0,1,6.78-1.7c.41-1.68,1.8-2.36,2.53-3.77s.66-3.19,1.34-4.65c.22-.47.06-.29.45-.57l.56-.41c5.74,1.53,5.55-5.29,8.46-9.52,1.32-1.9,3.13-3.79,1.68-6.18l-1.11-.45c-1.77.79-3.74,3.1-5.79,1.16-1.9-5.06,6.24-7.24,8.14-10.39.09-.15,1.57-4.74,1.57-5.11A16.13,16.13,0,0,1,539,867c.21-1.4,1-2.5,1.07-4l-.45-.9c-1.39-.86-2.85-1.51-2.31-3.48,2.65-3.11,1.23-4.83,2.41-6.56,1.14,0,2.14.85,3,1.45l1.17-.19a3.82,3.82,0,0,0,1.24-1.87c.18-.79,0-1.78.1-2.61.16-1,.77-1.93.92-2.94l.15-1a7.59,7.59,0,0,0-1.07-3.67l.73-.8c2.1-.56,6.46,1.95,7.17-2.16l-.28-1.08c-1.07-1.29-4.27-1.16-5-3.93,0-3.78,6.06-5,7.7-9.13a2.29,2.29,0,0,0,.2-1.55,8.29,8.29,0,0,0-1.95-2.42c-1-1.09-1.8-2.58-3.48-2.69-2.47.79-4.64,2.22-7.24,2.51A14.89,14.89,0,0,1,541,817.7c-1.87-3.34,1.86-4.15-5.49-7.62-3.77-1.79-4.65.55-7.73,1.16-1.27.25-2.76-.29-4-.19-1.51.11-3,1.14-4.61.8-4.59-1-2.28-4.38-5.71-6.18-2.84-1.49-16.13-5.26-17.27-6.72-.69-1.94-.05-6,0-8.26.13-3.48-.4-6.53-3.38-8.69a13.28,13.28,0,0,1-2.52-2c-.66-.75-1.15-1.93-1.85-2.6-1.45-1.39-5.18-1.9-7.07-1.25-1.27,1.15-2,3.17-3.64,4a50.73,50.73,0,0,1-5.05,1.87c-1.11.32-2.45,0-3.52.54s-1.73,2.14-2.81,2.68a4.89,4.89,0,0,1-3.43.14c-2.11-.61-4.36-1.71-6.36-1.92-3.36-.35-3.79,2.87-6.68,3.32-4.9.75-7.95-1.68-11.65-1.54-1.55.06-2.9.81-4.37,1.18a5.22,5.22,0,0,1-4.54-.54l-.46-1c.33-2.52,3.15-11.37,2.42-13-1.37-1.68-3.75-1.58-5.36-2.65-5.13-3.4-7.07,3.26-13.52-.66-2.19-1.33-1.42-6-2.19-8.24-2-5.68-11.59-12.42-11.38-17.69.17-4.41,5.4-7.15,5.6-11.64-1-2.13-4.58-11-6.27-11.84-1.26-.65-2.51.11-3.86-.26-2.2-1.59-1.25-3.39-2.59-4.59l-1.17-.16c-6.91,4.94-2.69,7.13-5.27,13.18-1.44,3.4-9.54,10.31-12.56,12.9-.75.65-1.29,1.85-2.23,2.25-.22.09-1,.2-1.24.26-2.69-.64-4.24-5.2-8.13-5.63a45.5,45.5,0,0,0-7.39.52c-3.44.56-12.73,3.38-14.84-1a25.06,25.06,0,0,1,.32-4.15l.74-.8c1.11.42,2.31,0,3.47.54,2.57,1.14,4.49,3.42,7.61,3.22a26.79,26.79,0,0,1-1.39-2.86c-.49-1.71-.31-7.35.84-8.69.45-.52,1.12-.86,1.57-1.44.18-1-.24-1.57-.28-2.42,0-1.33.86-2.59.44-3.95-1.6-.86-2.67-2.42-4-3.58-3.15-2.79-9.66-5.22-13.11-2.15-1.1,1-1.5,2.66-2.63,3.5s-2.55,1.1-3.7,2c-.89,1-1.81,2.5-2.86,3.12-.58.35-1.44.51-2,.9-1.87,1.41-2,4.15-3.48,5.85-.92,1.06-3,1.28-3.64,2.67l-.34.71c.46,1,.21,2.36.9,3.24l-.34,1c-1.64.2-4.12,1.69-5.37,1.53-3.53-1.82-2.85-.68-5.5-1.35a41.5,41.5,0,0,1-4.14-1.74,7,7,0,0,0-1.69-.5c-2.33-.16-7.33,3.59-9.41,2.43a10.17,10.17,0,0,1-.78-8.35c.28-.7.8-1.31,1.06-2.06.43-1.23,1.74-6.69,1.23-7.69l-.78-.74c-.36-.11-8,1-9.41,1.1a11.26,11.26,0,0,0-2.47.26c-1.27.36-2.13,1.83-3.3,2.51-4.29,2.47-9,3.85-13.42,6a4.11,4.11,0,0,0-2,1.4l.46,1a3.46,3.46,0,0,1,2.68,3.15c-.5,2.26-3.13,3.85-2.58,6.63.45,2.27,3.11,4,4.27,6,.71,1.21,1.14,2.66,1.84,3.86.49.82,1.52,1.6,1.91,2.41a7.87,7.87,0,0,1,.28,1.16c-1.11,1.23-.59,3.28-2,4.31-2.79,2.1-13.59,1.52-16.37-.16-1.15-.71-1.34-2.72-1.67-4-1.54-1.76-15.52-1.06-18.12-.48" fill="none" stroke="#000" stroke-linejoin="round" stroke-width="0.25"/>
      <polygon class="polygon2809" points="374.58 731.83 367.33 730.15 369.02 722.17 380.38 723.62 380.38 723.62 374.58 731.83" fill="none" stroke="#000" stroke-linejoin="round" stroke-width="0.25"/>
    </g>
  </g>
  <g class="pallino">
    <circle cx="258.76" cy="562.84" r="14.2" stroke="#fff" stroke-miterlimit="10" stroke-width="0.25"/>
  </g>
</svg>
