<svg width='500' height='500' viewBox="0 0 887.64 1000.51"><title>Netherlands_location_map</title><g class="svg3008" stroke="#000" stroke-width="0.25"><g class="layer9" fill="#fff" stroke-miterlimit="10"><path class="path4312" d="M828.82 147.52c.45.68.81 4.34 1.06 5.47 1.11 5 1.41 10.45-.89 15.24-.6 1.26-1.84 2.05-2.35 3.41-.59 1.55-.08 3.48-.62 5-.68 1.89-1.57 2.93-1.73 5.11-.47 6.12 2.9 5 3.64 8.33.51 2.29-.11 6.09-.18 8.52 0 2.07 1.36 21 1.75 22.16.09.28.69 1 .88 1.35.22 1.27-1.8 3.52-1.56 5.54-.79 2.69-1.11 5.21-1.62 7.71-.26 1.32-3.92 11.47-4.54 12.55-1.67 2.89-4.22 5-5.89 7.81a14.89 14.89 0 0 0-.95 2.41 21.82 21.82 0 0 1-3.14 4.86c-2 2.59-4.66 4.62-6.33 7.43a8.7 8.7 0 0 0-1.3 6.08c.68 3.56-3.24 5.82-4.2 9.07a21.85 21.85 0 0 0-.16 3.24c-.9 6.27-.38 11.61-.78 17.7-.12 3.1 0 6.22-.29 9.28-.29 3.39-.91 6.76-1.17 10.13-.21 2.82.31 5.64.22 8.43-.06 2.32-1.61 8.7-3.87 9.75-5.3 2.47-8.69-4.73-12-3.93-.68.48-1 1.23-1.68 1.71-.34.1-9.62.58-10.36.52-1-.44-2.11-3.54-3.65-4.22a6.35 6.35 0 0 0-1.52-.35 38.57 38.57 0 0 0-4.58.73 91.69 91.69 0 0 1-11.72.52c-4.22 0-5.06-3.05-10-.71-3.47 1.63-6.3 6.58-8.74 7.08l-.39.9c4.24 5.54 1 6.79.28 12.64 1.25 1.82 6.78 3.53 8.18 6.56l-.28.8c-1.26 1.31-4.91.27-6.61.36-1.24 1.41-.63 2.17-1.24 3.22-1.25 2.14-4.44.3-6.1.54l-.28.9c.82 1.44 2.27 3.29 2.74 4.83a41.15 41.15 0 0 1 .55 11 21.26 21.26 0 0 0-.55 3.12 7.46 7.46 0 0 1 .62 1.52c2.61 1.78 7.06 4.53 9.07 6.81 4.73 5.37 16.34.75 20 1.9.89.65.81 2 1.73 2.67a5.87 5.87 0 0 0 1 .5 3.26 3.26 0 0 0 1.2.3c2.44.23 4.69 2 7.06 2.54a31.83 31.83 0 0 0 3.2.26c1.67.22 4.67 2 6.21 1.44 2.8-1.05 5.17-5.77 6.67-8.07l.73-.35c2.45.85 5.11 11.29 6.27 13.61a7.54 7.54 0 0 0 2.71 2.84c5.66 3.73 5.85 2.65 6.94 9.9.35 2.32 1.23 5.4.9 7.71s-6.14 11.63-6.9 14.7c-2.35 9.55-2.6 10.54 1.62 19.36a23.42 23.42 0 0 1 1.68 4l-.1.61c-2.6 2.61-8.29 2-11.84 2.61-3.7 3.2-4 10-7.16 14.18-1.51 2-9.93 2.9-10.93 3.48-1.45.83-2.07 3.6-3.08 4.85-.76.94-1.69.78-2.31 2.16-1.44 3.18.25 7.68-3.42 10-3.49 2.24-17.71-1-20.39 1.87a4.7 4.7 0 0 0-.46.64c-.59 1.34-.78 2.81-1.45 4.22a6.44 6.44 0 0 0-.34.7c-.44 1.73.25 3.12-.78 4.86-2.26 3.81-8 2.28-10.13 4.31-.65.61-1.13 4.34-1.13 5.27 0 1.09-.52 3.58-.12 4.41l.69.45c7.64-.71 6.18.25 11.81 4.05 4.66 3.13 8.28 3 11.84 8a23.18 23.18 0 0 0 3.52 3.69c-.14 2.49 1.82 4.84.57 7.46-1 2.12-3.6 1.2-5 2.76s-1.31 6.92-3 9.33-5.26 3-7.33 5c-.58.56-.77 1.45-1.29 2.06-.81.39-4.86 2.74-5.22 2.7-2.09-.95-4-1.72-5.44-3.6-.45-.59-.81-1.45-1.62-1.71-2-.62-3.56 1.54-5.21 2.35-2 1-9.67 2.1-13.11 3.5-2.48 1-4.66 3-7.23 3.77a8.64 8.64 0 0 0-2-.29c-1.54 1-2.66 2.73-4.32 3.5-1.44.68-3.34 1-4.64 2-2.92 2.14-.52 2.56-5.83 4.21a5.69 5.69 0 0 1-2.59.55c-.52-.63-2.19-2.49-3-2.61a11 11 0 0 0-1.9.29 37.75 37.75 0 0 1-5.39-1.45c-1.08-.4-2.07-1.25-3.3-.71l-.28.9c.46.88 1.16 2 1.51 2.87a63.48 63.48 0 0 1 .4 9c-.86.24-1.83-1-2.86-1-1.67-.07-4 1.4-5.54.8-.24-1.6.81-3.26.44-4.47-1.52-1.76-6.26-3-8.47-2.79a26.12 26.12 0 0 1-2.69.54c-1.22-1.67-1-3.2-2-4.66-.76-1.16-2.93-3.4-4.44-3.15-.83.14-1.42.89-2.23 1.09a18.11 18.11 0 0 1-3.14.16c-3.48-.23-8.37 2.09-10.31-1.77-.39-.77-.44-1.66-.84-2.44a5 5 0 0 1-1.45-.8 18.82 18.82 0 0 0-1.19-3.22 15.23 15.23 0 0 0-4.54-3.31 3.16 3.16 0 0 0-2.35.8 5.13 5.13 0 0 1-2.35.9c-1.24.11-2.92-.22-4 .16-.44.75-1.28 1.32-1.29 2.25.51.81 2 .81 2.75 1.51 3.3 3 2.07 3.35 3.64 6.21 2.25 4.06 5.84 1.64 5.71 7.62 0 .69 0 1.92-.6 2.41-5.2-2.72-11-2.88-16.54-4.66-2.14-.69-3.68-2.31-5.55-3.4-1.53 4.62-1.09 2.84-4.09 5.2-1.52 1.21-4.44 4.69-6 5.18-4 1.31-7.28-2.31-11.94 1.8v.64a5.26 5.26 0 0 1 1.45.8l-.32.55a4.77 4.77 0 0 0-1.47.8l-.34.71.28.81c6.75 1.36 2.62 5.35 5.38 8a2.34 2.34 0 0 1 1.69.54c.2.52.42 1 .67 1.52l-.12 1.09a3.22 3.22 0 0 0-.83 1.32 4.38 4.38 0 0 1 1.35 2c0 2.35-4.41 3.88-6 5.44a4.68 4.68 0 0 1-1.06.83 4.38 4.38 0 0 0 1.18 3.51c2 .08 4-.92 5.88-.74 2.93.29 8.51 5 10.53 7.1l-.33.52a2.93 2.93 0 0 0-1.34.9c-.59 2.07 0 4.13 0 6.28 0 1.41-.59 3.4-.28 4.66 1.07 4.39 8.15 5.44 11.7 6.36 1.78.47 3.49 1.27 5.27 1.71l.52.54c-.73 2.83-5.32 13.41-4.44 15.34 1.3 1.4 3.39 2 4.38 3.48 1.38 2.1 1.52 4.81 3.14 6.82 1.24 1.55 3.19 1.75 4.58 3.15 1.1 1.09 2 4.54 2.81 6.08 1.86 3.71 5.76 6.32 7.62 10.13a8.68 8.68 0 0 1 .51 3.86c-.68 5.33 3.08 8.17 2.79 11.22-.19 2-1.78 4-1.85 6 0 1.6.77 3.05.56 4.85-.22 2-2.06 7.64-1.89 9l.44.73a5.12 5.12 0 0 1 3.08 1.36l.16.87c-.5.62-1.27.93-1.79 1.54-.46 1.34 2.09 6.93 1.29 9.23s-3.71 4-5.43 5.66c-.87.84-1.07 2.65-1.79 3.76-1.37.38-2.67 1-4 1.42-1.48 3.39-2.47 6.64-4.26 9.87-1.18 2.13-3.24 3.57-4.36 5.64-.69 1.27-1 2.69-1.63 4a35.5 35.5 0 0 1-4.64 5.73c-1.06 1.07-2.48 1.81-3.26 3.14-.07 1.41 1.21 3.31 1.41 4.93-.9.59-2 1.12-2.25 2.25-.36 1.45.77 12.27 1.46 13.63a5 5 0 0 0 2.18 2.25 13.21 13.21 0 0 0 2 .07c1.54-.36 8.91-7 10.91-7.79 1.54-.63 4.11-.1 4 2-2 1.2-3.84 2.94-5.89 4l-.32.71c1.25 2.47 3 1.88 4.81 3a2.8 2.8 0 0 1 .51 1.71 34.91 34.91 0 0 1-7.11 4.92c-2.52 1.22-5.23 1.83-7.46 3.6-1.15.9-1.62 2.68-3 3.13s-4 1.23-4.91 2.15c-1.35 1.31-2.07 4-3.54 5.37-2.31 2.23-6 2.69-8.18 5.11-1.58 1.51-3.71 3.39-4.7 5.21-1.08 2-1 4.79-2.3 6.63-.42.6-1.22 1-1.68 1.61s-.5.91-1 1.26a7.7 7.7 0 0 1-2.86.37c-4.58-.86-4.11-8.32-6.28-9.16l-.89.29c-2.6 4.37-6.91 3.64-7.62 5.47-.59 1.51 1.24 2.28 1.45 3.66a17.44 17.44 0 0 1-.5 5.12c1.37 3.25 1.19 1.78 3.86 2.86 1 1.76 1.56 3.48 2.47 5.21-.13 2.24-2.53 4.35-1.85 6.81 2.3 1.12 7.36-3 9.81-3.78 2.8-.91 3.69 1.81 6 2.25 3.09.59 9.49-2.78 11.78.28l.1 1c-.92 1.68-3.56 2-3.7 4.05a2.59 2.59 0 0 1 .68 1.51 3.66 3.66 0 0 0-1 1.26c.53 3.55.19 7.58 4.49 8.68 1.18.31 2.75 0 3.8.38a3.3 3.3 0 0 1 .68 1.61c1.63.62 4.18.19 5.43 1.16l.22.71c-.76 2.46-2.35 4-2.07 6.92.18 1.86 3.2 5.5 2.64 7a13.11 13.11 0 0 0-1.69 1.63c-1.1 1.67.06 5.17-3 5.82l-.9-.28a3.14 3.14 0 0 0-.95-1.16c-2.69-.41-5.73 1.62-7.62 3.31-.72 3 2.76 5.42.65 10-1.43 3.1-2.51 4.19-5.63 2.15H582l-.68.45c-.29.61-.86 1.53-.6 2.22 3.5 4.25 9.37 6 6.72 12.48a14.84 14.84 0 0 1-2.19.25c-.72 0-1.5.47-2.24.45-2-.06-3.25-2.2-5.27-2.41s-9.32 3.12-12.77 2.8l-1-.84a6.85 6.85 0 0 0 0-3.86 6.38 6.38 0 0 0-1.85-.16c-1.07 1.46-4.6 3.82-6.45 3.13a4.51 4.51 0 0 1-.5-2.16l-1-.35c-1.88.89-4.59 3.33-6.67 3.14-2.29-1.72-1.91-4.42-5.65-4.4a3.82 3.82 0 0 1-1.51-2.77l-.79-.73c-2.45.2-3.49 3.65-5 5.26-.51.54-1.06 1.06-1.52 1.65L532 949l-1.13-.45-.6-.87c-3.4-.51-3.3 2.1-6 1.87l-1.35-.9c.53-2.38 2.48-4.59 2.74-6.89.21-1.93-1.69-3.4-1.57-5.4a7.25 7.25 0 0 0 .84-2.32c-3.77-2.7-8.94-3.37-11-8.07-1.75-3.91-2.48-6.07-1.35-10.39 1.72-.6 1.7-3 1.91-4.5a10.75 10.75 0 0 1 6.77-1.7c.41-1.68 1.8-2.35 2.53-3.76s.67-3.19 1.35-4.66c.21-.47 0-.28.45-.57l.56-.41c5.73 1.53 5.54-5.28 8.46-9.51 1.32-1.91 3.13-3.8 1.67-6.18l-1.1-.45c-1.77.78-3.74 3.09-5.79 1.16-1.91-5.07 6.24-7.25 8.14-10.39.09-.16 1.57-4.75 1.57-5.12a16.1 16.1 0 0 1-.1-2.49c.21-1.4 1-2.49 1.06-4l-.44-.89c-1.39-.87-2.85-1.52-2.31-3.48 2.64-3.11 1.23-4.83 2.41-6.56 1.13 0 2.14.85 3 1.44l1.17-.19a3.79 3.79 0 0 0 1.25-1.87c.17-.79 0-1.77.1-2.6.16-1.06.77-1.93.92-2.94l.15-1a7.56 7.56 0 0 0-1.07-3.67l.72-.81c2.11-.55 6.46 2 7.18-2.15l-.28-1.09c-1.07-1.29-4.27-1.15-5-3.93 0-3.78 6.07-5 7.7-9.12a2.33 2.33 0 0 0 .21-1.56 8.12 8.12 0 0 0-2-2.41c-1-1.1-1.79-2.59-3.48-2.7-2.46.79-4.64 2.23-7.23 2.51a14.55 14.55 0 0 1-2.19-2.32c-1.87-3.34 1.87-4.14-5.49-7.62-3.77-1.78-4.64.56-7.72 1.16-1.27.25-2.76-.29-4-.19-1.5.12-3 1.14-4.6.81-4.6-1-2.29-4.38-5.71-6.18-2.84-1.49-16.13-5.26-17.27-6.73-.7-1.93-.05-6 0-8.26.13-3.47-.41-6.52-3.39-8.69a13.88 13.88 0 0 1-2.52-2c-.65-.75-1.14-1.93-1.85-2.6-1.45-1.4-5.17-1.9-7.07-1.26-1.26 1.16-2 3.17-3.64 4a47.36 47.36 0 0 1-5 1.87c-1.12.33-2.45 0-3.52.55s-1.73 2.14-2.81 2.67a5 5 0 0 1-3.44.15c-2.1-.62-4.35-1.72-6.36-1.92-3.36-.35-3.79 2.87-6.67 3.31-4.91.75-7.95-1.68-11.66-1.54-1.55.06-2.89.81-4.36 1.19a5.22 5.22 0 0 1-4.54-.55l-.46-1c.33-2.52 3.14-11.38 2.41-13-1.37-1.67-3.74-1.58-5.36-2.65-5.13-3.39-7.06 3.26-13.52-.66-2.18-1.33-1.41-6-2.19-8.24-2-5.68-11.58-12.42-11.38-17.68.18-4.41 5.4-7.16 5.61-11.65-1-2.13-4.59-11-6.27-11.83-1.27-.65-2.51.1-3.86-.26-2.21-1.6-1.25-3.4-2.59-4.6l-1.17-.16c-6.91 5-2.69 7.13-5.27 13.19-1.45 3.39-9.55 10.3-12.56 12.89-.76.65-1.3 1.85-2.24 2.25a9.37 9.37 0 0 1-1.24.26c-2.69-.64-4.24-5.19-8.12-5.63a45.54 45.54 0 0 0-7.4.52c-3.43.57-12.73 3.38-14.84-1a26.07 26.07 0 0 1 .33-4.14l.73-.81c1.11.42 2.32 0 3.47.55 2.58 1.14 4.49 3.41 7.62 3.22a25.23 25.23 0 0 1-1.4-2.87c-.48-1.7-.31-7.35.85-8.69.45-.52 1.11-.85 1.57-1.44.18-1-.25-1.57-.28-2.42-.06-1.33.85-2.59.44-3.95-1.61-.86-2.67-2.41-4-3.57-3.15-2.79-9.66-5.23-13.1-2.15-1.1 1-1.5 2.65-2.64 3.5s-2.55 1.09-3.7 2c-.89 1-1.81 2.5-2.86 3.13-.57.34-1.44.51-2 .9-1.87 1.4-2 4.14-3.48 5.84-.93 1.07-3 1.29-3.65 2.68l-.33.71c.45 1 .21 2.35.9 3.24l-.34 1c-1.65.2-4.12 1.69-5.37 1.54-3.53-1.82-2.86-.69-5.51-1.35a40.49 40.49 0 0 1-4.13-1.75 7.36 7.36 0 0 0-1.7-.5c-2.32-.16-7.32 3.6-9.4 2.44a10.2 10.2 0 0 1-.79-8.36c.28-.69.8-1.3 1.07-2.06.43-1.23 1.73-6.68 1.23-7.69l-.79-.73c-.35-.12-8 1-9.41 1.09a12 12 0 0 0-2.47.26c-1.26.37-2.12 1.83-3.3 2.51-4.29 2.47-9 3.86-13.41 6a4.14 4.14 0 0 0-2 1.4l.47 1a3.46 3.46 0 0 1 2.67 3.15c-.49 2.26-3.12 3.86-2.57 6.63.45 2.27 3.1 4.06 4.26 6 .71 1.21 1.14 2.67 1.85 3.86.48.82 1.51 1.6 1.91 2.42a9.38 9.38 0 0 1 .28 1.16c-1.11 1.22-.6 3.28-2 4.3-2.79 2.1-13.58 1.53-16.36-.16-1.16-.7-1.35-2.72-1.67-3.95-1.55-1.76-15.52-1.07-18.11-.49l-.66-2.1.49-2.9-1.73-3.57-1.83-1.25-3.89.36-.93-1.08-1.13-.63-2.12.45-2.14 1.93-2.28.23-2.09.88-1 .41-2.29-.15-2.68-1-2-1.26-8.24-2-4-2-1.53-3.63-2.54-2.72-.88.19-2.54-.94-2.2-1.54-6.1-5.08h-.73l-1.81 1.1-3.23.27-3.82 2.37-.91 1.36.67 1.82-1.5 3.09-.24 1.36-.16.76-1.4 1.9-2.54 6.53-2.7-.19-1.09-.08-.69-.63-4.48 2-7.65 1.21-1.14.18-.63-.62-4.05-3.92-2.2-1.46-.26-1-1.57-.53-2.77-.92-1 .56-3.72-.88-1.24-1.43-.06-.61-.07-.71-1-1.95-.6-1.16-.87-.71-2.41-2-3.75-3.06.69-.61.52-.48 1.12.25 1-2-1.11-1.65-.83 1.14-2.78.57-.48.83-1.42-.39-1.29 1L113 725l-.45.08-1.6.24-1.39 1.83-1.8 1.25-1-.32-2.79.27-1.56-.15-.72-1.45-1 .45-1.76.82-.39.2h-.16l-1.68.37-.28.06-3.23-2.89-1.19-.4-.76-.26-4.38-3.72-3.16-6.15-4.28-5.23-5.42-3.35-4.1-3.94-2.13-1.24.15-3.33 1.71-2.95 5.19-3 4.42-3.59 2-1.31 4.76-3.04 1.83-.38 3.72-3 3.6-2 2-.39 1.88.73 3.47-.08 2.85 1 1 .36 1.26 1.36a9.65 9.65 0 0 1 .46 2.62c0 1.25.55 3.2 1.25 3.34s1.11 1.81 1.81 1.94 3.06 2.09 3.61 2.51 2.09 1.94 2.09 2.78 1.53 3.2 1.67 3.75a17.4 17.4 0 0 0 2.36 3.9 3.47 3.47 0 0 0 2.65 1.11 10.18 10.18 0 0 0 2.64-1.53s1.53-1.81 1.53-2.36.56-2.78 1.11-3.06 1-1.81 1.67-1.95a9 9 0 0 1 2.36-.28 12.18 12.18 0 0 1 3.62.42 15.79 15.79 0 0 0 3.62.28c.55 0 2.22-.14 2.78-.14s1.81-1.39 2.78-1.53a20.33 20.33 0 0 1 3.89.42l2.51 2.22 1.39.11 2.2-.22L158 696l3 .47 1.8-1.11 2.88-.1h.81l1 .85 2.91 4.47 4.32-1 3.07.91 5.2 2.76 1.72.38 2.37 2 1.37.84 3.92 2.37 2.11 5.08-.69 1.36 1.6 3.33L200 723l2.25 3.24 4.29 2.43 1.71.23 2.28 1.91 2.15.3.7-1 1.85-.73 1.21-.49 2-1.7 1.15-1 1.18-.2.83.71 2.07-.22.35 1.22.06.25h.56l1.88-.06 1.66-.82 1.25-.55.34-.15.69.86.58-.51 1.57-1.41h1.1l.33.26.51.38 1.76-.36.63 1.24 2.59-1.86 2.05-.51-.32-4.86-1.67-3.6.15-1.6v-.18l-.46-1.14-.18-.46-.66-.58-1-.89-.83-.73-1.22-.58-1-.45-1.63-2.24-.57-.21-1.39-.52-4.55-1.7-.92 1.08-1 1.21-1.1.18-2.94-1.6-.77-.94-5.11-2.54-1.53.65-2.46-.51-.92-.93-2.39 1.34-10-2.21-.67-.85-1.82-2.31-.43-1.54-1.48-1.53-1.15-1.22-3.29-.84-2-4.51-3.09-1.82-1.31-.76h-1.39l-1.14-.91-.59-1.61.3-1.23.15-.63 1.07-.93 1.25-.23 4.09-1.23 1.66.46 8.75-5.42h3.32l2.55.87 2.83 2.19 1.48.16 7.67-.71 4 .24h.71l-1-2.15.79-.39.15-1-3 .71-1.44.34-1.78-.68-2.21-.05-2.83-.07-1.15-3.05-1.15-1.15-1.57-.46-.57-1.38.35-2.12.12-.73 1.87-2 4.63-1 1.86.3 4.4 2.65 5.92 2.56.39.17 2.61.5 1.08-.93 2.62.73 4.53.13 3.86.32 2.13-.37 5-2.16 5.37-1 1.3-1.08 2.41-.83 1.67-1.3 2.93-1.2 1.85-2.13 3.19-6.67.49-1.86-.46-1.19-.43.44-1.86 2-.52-.12 1.47-2.64-1.88-.6-.72 1.27h-.07l-1.54.75-1.7 4.17-1.43 2-1.74.7-3.69 1.48-2.61 1.64-10 .92H236l-3.06-.85-5.15-3.22h-.14l-1-.22-2.29-1.92-2.92-.64-1.22-.92-3.13-.4-1.69-1.71-.36-.55-1.91-2.92-3.48-1.65-6.07-1.69-2.2.66-1.28-.46-3.25.34-1.36-.29h-.14l-1.3-1.05-.37-.29-.22.08-.44.17-.63-.79-.15-2.06-1.48-3.57-1.59-2.82-.23-2.35-1.76.65-.61-.57-.69-2.33.7-3.06v-2.88l-.78-2.7-2.17-2.55-1.15-2.53v-.13l-.34-.74-2.37-.39-1.42.31-1.65-.24-1.29-.76-3.42.06-1.15 1-6.12 1.2-1 1.44-.94.1h-.17l-3.27 3.45h-1.27l-1.36-.69-.21 2.23-1.16.78-.19-.81-.06-.3-.38-1.6.31-.47.37-.56.37-.57-1.9-3.78-.57-3.09.66-2 1.35-1.67 2.9-1.88 1.19-.25 4.42-.9 2-.4.35-.19 5.11-2.61 6.25-2.16 1.34-.06 2.27-.11 2.16-.11 1.28-.06-.53 1.72 2.52 1.82.92 1 1.57 1.72.74-.17v-1l1.47-.61.61 2.53-1 .41.79 1.23 1.09-.79 1.34.18 2.46 2 6.51 3.16 1.85 1.7 1.75.69 1.5.6 5 3.45 6.8 3 1.69-.65 1.73 3.24 1.5 2.1 1.51.69 1.32 1.81 4 2.74 2.28 3.54 3.47 3.72 6.3 1.93 1.64 1.27 1.11.86 4 1.34 3.41-.1 3.15-.93 1.17-.92h.87l.8 1.06.45.6 1.51-1.6.06-.07h.09l.51.12v.09l.23 3.74.74.33.78-.68h1.18l1.29-1.45 1.12.19-2.38 2.07.27 1.14.52.39 1.81-1.24 2.06-.51 1.07.19.82.93 3.07 1.24 4.06 1.64 3.43.48 13.45-.76h.62l5.56-2.16.54.73 1 .19-.22-.8-.11-.37 2.48-1.41 3-3.85 1.92-.28-1.11-2.42-.3-.65-.47-1-3.44 2.37h-.16l-2.94.75-7.17 2.83-7.54.89-2.58-1.84-6.55-2.9-5.86-.18-2.45-.52-3.59-.32-2.55-1-.19-.12-1.08-.7-6-3.89-2.41-.81-1.68-1.56h-.82l-2.57-1.47-5.62-1.2-6.61-2.67-4.09-1.61-3.48-4v-.88l2.07-.3 1.23-1-.26-.88-1.53.86-2.26-.8-1.62-1.8-3.5-2.32-1.65-.16-3.57-1.64-1.39-2-3.88-2.38-2.51.39-1.73-.46-1.27-.25-.59-1.68-.93.85-1.61-1-2.76-.35-2.07-1.47-1.64-2.24-3.25.23-1.28.09.12-.89 2-1.48.4-1.19-.85-2.85-1.83-3.18-4.68-5.38-.34-1.23.47-1.27.61-.6.9-.87 2.64-5h.74l.32-1.33-2.7-2.5-.87.63-.31 1.49-.67.17-1.53-2.44.45-1.79-1-2.62-5.75-.2-.06-.43c0-.37-.17 0 0 .6l-1.29 1.83-1.5-4.5-.69-3.88.65-4.39 1.48-2.23 1.9-1.64 3.09-1.44 4.81.11 4.53 1.82 2.8 1.3 1.17 1.14-.34.6-.31.48-.95.16-6.8-1.87-5.19-1.53-.49.4c-.12.26-2.63 3.25-2.28 4.12 0 .11.19.5.76 0 .35-.31.79-1.57 1.23-2a1.45 1.45 0 0 1 1.4-.41 6.38 6.38 0 0 1 0 2.61c-.48-.17-.46 1.21-.65 1.35 0 0-2.6 3.88-2.08 3a22.31 22.31 0 0 1 2.25-1.72c.07.15.75-2.25.54-1.4a.64.64 0 0 1 .11-.72c.5-.64.34-2 .4-2 .45-.07.44 1.67.48 1.77l3.18-1 5.9.82c0 .33-.64.76-.64.76l1.77.5.29 1-1.64.49-2.6-.22 2.79.61 1.88 1 .38 1.7-.69 1.36-.79 1-5.3 1.53-.88-1.45-.73.55 1.06 2.4 1.88.22 4-1.55 4.77-.46.33-.54-1.95-.51.18-.87.13-.52.55.1.26-.27.13-.43-.29-.71-.51-1.16.11-1.74.11-1.31 1.08-2.09-.23-1.34 1.32.77 3.34 1.58 6.61 2.94-5.25-6.76-5.76-2.58 6.79-4.3 4.21-5.77 1.76-2.43 19.11-22.27 1.92-2.23 3-4.16.29-.26 2.24-2 3.42-3.09 5.9-7.21 6.57-9.37 3.1-5.23.05-.08 1.92-3.26.69-1.16.56-.94 5-8.2.87-1.8 1.68-3.46.16-.33 10.8-22.21.07-.15 3.16-6.5 3-7.56 1.58-3.93 2.57-6.37 4.29-13.68.17-.56.33-1.63 1.29-2.06.64-5-.13-.5.14-.48 4-14.13 1.2-4.3 1-5.71 1.62-8.84.36-4.37.57-6.88 1.11-5.93.29-8.07 1-6.1v-.27l1-5.71.24-2.46.64-7.31v-.45l2-12.22.85-1.14.58-.8.17-.23.52-.7 2.42-5.45 3.87-14.06.06-.21 2.1-7.67.16-.76 1.37-6.88.19-2 .52-5.19.68-15.51.86-1.67.87-1.7 1.27-1 2.23-.15 4-.27 3-.2v.73l-.17 1.39 1.25.64 1 .07 1.06-.73 1.18-.81.74.27.11 2 .05.84-1.63 3.68-.1 1.77 3.59 8.39 2.65 2.15 3.61 1.65h.09L354 260l4.69 1.81h.1l1.09-.16 3.52-.53.27-.24.77-.67 6.4-2.74.4-.43.36-.39 3.09-3.33 1.59-3.28 1.57-1.22 1.08-.39 4.36-1.58 1.13-.41 2.84.9 2.56-1.39 1 .41.85.36 1-.84.69.88.62.82.63.8-.88 1.18-.08.11 1.48 1.21.63 1.25 2.42 4.77.79 1.57 1.17 1.16.57 1.46 1.46 3.81 4.92 8.88.81 1.46.13 2.37v.08l-2.51 18.57.18 1.1 1.86 1.66 1.24 1 .56 1.32-.11 1.55.72 1.53 2.08 1.44 1.44 2.92 1.24 1 3.56-.15 1.64-1.29 3.18-3.74 1.3-.46h.37l3.08.15 8.83.44 2.37.63.31.89.36 1.07 1.25.51.13.05 1 2.13v.17l-.19 5 .89 2.79.45.48 1.1 1.18v1.04l-.79 1.55-.08.17-2.21 1.61.41 1.38 1.18.21v.64l-2.74 3.49-.72-.68-.56-1.38-.41-1-3.93.37-.34 1-1.09 3.32-.28.85.1 1.54v.52l-1.38 2.54-8.34 6.44h-3.33l-.58.55-2.75 2.62-5.52 1.68-1.07-.34-.35-2.29-.84-.77-.74-.69-.88-.15-2.31-.38-.53-.25-.11-.05-.78-.38-.5-.23-.48-1H400.82l-3.21 1.62-.61-.18-3-.92-1.18.48-2.25.93-1.14.46-1 1.28-.48 1.71.95 5-.34 1.34.56 1.17-.27 1.56 3 6.38v.05l-.55 1.81 1.36 1.09.34.27.05.07.17.28.72 1.11.11.38.16.54 1 3.33.78 1.23.45 2.88 2.45 4.37 1.55 1.81 1 2.64-.11 1.47-.18.35-.76 1.44-.88 1.13-.44.28-1.79 1.1-.16 2.73 1.51 3-.81 1-.82.25-.28.09-4.81.71.05.13.35 1h.64l1.89-.27-.1.51-.3 1.56.7 4 .8.1 5.4.65 1.61.92-.44.38-1.15 1-1.22 1-.84 2.68-2.3 3.22-1.58.26-3.29 4.14-1.49.48-2.08 4.25-.51.29-.94.52-.22 1.59-.53.8-.27.41-1.31-.87-1.06-.7-.36.14-.93.36-1.54.6-1.21 1.51-2.36.2-.95 1 .64.37 2.33 1.33.68-.11h.1l1.57-.28.58-.1.39.59-.19 1.23v.47l.32.52.64 1.06 1.75 1.15 1.27.13 1.59-.52 1.33-.44 1.05.2 1.39 1.59-1.24 1.06v1.4l1.15-.21.92-.16 3.2-.58.34-.06h.13l1.92.44 2-.79 1.25.34 2.18 1.07.73.72 1 .54 3.65 1.34 2.46 2.06 2.5 3.38 1.79 1.26 2.35 1 3.87.18 5.71-1.25.9-.45 2.41-.36 2.52.18 1.12.45L438 450l3.76 1.26 1.85 1.25.78.63.45 1.08.67.71 1 2 1.18 1.7 2.39 1 1.48.09 2.24 1 3 .45 2.3.62 1.73 1.35 1.23 1.52 3.57 2.69 2 .9 1.4.18 1.23-.18 4.15-1.52.84-.63 3.19-1.08h1.29l4.15-1.61 2.69.27 2.52-.27 2-1 2.13-2.24 1.79-3 1.91-4.57 1.51-5 1.57-3.13 1.46-1.62L504 441l.89-.36 2.36-2.15.89-2.42 1.18-1.7 1-.72 1.18-.27 2.75-1.44 1.75-1.31 2.62-1.82 1-.36 1.68-1.34.72-.27.73-.34 2.36-1.37 3.92-1.79 2.07-.57.4-.17 1.74-.79 2.68-1.61.79-.72 1.29-.52 1.51-1.09 2-1.81 1.86-1.95 1-.73.52-.65 1.95-1.58.56-.36.35-.61 1-1.11 1.92-2.94 1-2.24 1.07-1.61.84-.72 1.28-1.8.51-1.07.67-2.51 1-2.33.95-3.94 1-2.33.62-.9.89-2.42-1.09-4.51-.58-5.89-.62-2.16-3.21-4.26-.17-1.16-.56-1-1.9-1.16-1.35-.27-3.13-1.7.67-.46 5.49.36 2.52-.27 2.53-1.78-2.24 1.17-1.12-.27-.9-.72-.33-1.16.39-1.17.89-4.22v-1.34l-2.29.36-10.77-.18-6.33.35-16.14-.17-2.86-.36-.93-1.22.29-.17-.06-.1-1.86-2.87v-.06l-3.63-5.6-1.69-1.45-3-4.16-.68-.06-.63-1-.38-.58-.7-.08-.35-.05-1.09-1.09.74-1.27.1-1.32.21-2.58.27-14.85v-2.58l-.36-3.68.87-4.19.82-3.88.43-.65 12.48-18.21 2.81-.35 2.12-.84 4.48-.36.61-.4h.06l-.16-.56-.16-.55-.21-.07-.47-.18-3-1.1-4.26.13-2.8.56-.74-3.23-1.86-2.41-1.3-.12-1.87 2-3.4 1-2.28-.18L503 275l-2 3.95-4.7 1-2.51-.24-15.4-6.71-1.83-.12-2.35-.18-4.53 2.16-4.29-1.7-4-3.37-1.22-1-1.53-.56-2.48-5.86.79-2.22 2.91-3.09 2.27-1.07h1.59l1.58-1.14.73-1.41-.33-5.38-1.7-3.74.37-.67 1.89-.92.42-1.56-.49-2.2.74-.65.11-2.47-2.45-8.37.71-5.91-.45-3.83-1.32-1.46 1.56-1.86-.38-3-1.91 1.28-1.43-1-1.29-3.21.6-1.82 3.06 1.23.29-.74-1.03-2.66-2.31-5.72-.36-2.77-.37-2.82.87-2.69 3.14-3.74 1.84-3.64 1.36-8.66-.33-4.94.67-1.27 2-.28-1.17-2.76 2.18-6.16 2.52-4.24 5.35-5 5.75-4.45.33-.24 1.34-1 .31-.22 2.43-1.13 1.36-.64.15-.15 6.18-6.51.29-1.64 1.64-2.6 5.84-4.44 3.35-2 10-2.26 2.74.16 1.6-1.28 2.22-.4 7.83-4.71 6.12-3.67 4.59-1.46L544 110l5.12-2.14 1.75-1.42 6.36-2 4.21-2.64 2.29-.91 6.29.39 8.15-3.5 4.22-1.3 4-.51 5.66-1.72h3.31l4.76-.86 3.24.35 1.22-1.12 9.21 1.8h.21l3.69-1.55s-.47 3-.62 3.75a13.08 13.08 0 0 0-.07 3.29c.15.57.36.22.72.79a3.86 3.86 0 0 1 .43 2.22 19.67 19.67 0 0 0-.07 2 8.44 8.44 0 0 0 .85 2.57 6.57 6.57 0 0 1 .36 2c.05.57 0 1 0 1.93a3.38 3.38 0 0 0 .72 2.5c.71.93 1.57 2.08 1.86 2.36s1.17 1.06 1.64.79c.23-.13.5-.22.07-.86s-1.86-2.22-2.21-2.65a4 4 0 0 1-.65-2.5c.08-.44.5-1.14.86-1.21a4.49 4.49 0 0 1 2.29.78 3.75 3.75 0 0 1 .78 1.36c.29.7.22 2.15.65 2.43s.79-.14.79-.57-.33-2 .14-2.65a1.58 1.58 0 0 1 1.29-.5c.51.08 1 .7 1.36 1.08a9 9 0 0 1 .71 1 6.1 6.1 0 0 0 1 1.43 3.4 3.4 0 0 0 2 .57.82.82 0 0 0 .58-.29.66.66 0 0 0 0-.5c-.22-.55-1.12-.89-1.36-1.43-.12-.27-.25-.76-.07-1 .47-.63 1.88-.19 2.57-.57a3.16 3.16 0 0 0 1.5-1.5c.08-.28 0-.78-.21-.93s-1.05.25-1.5.35a4.73 4.73 0 0 1-1.36.29c-.51 0-1.53-.14-1.57-.65s1.32-.77 1.85-1.14c.29-.2.82-.38.94-.72a1.82 1.82 0 0 0-.43-1.5.81.81 0 0 0-.72-.21c-.64.22-.73 1.48-1.29 1.86a3.93 3.93 0 0 1-2.86.64 2.39 2.39 0 0 1-1.14-1.22c-.25-.5 0-1.39-.29-1.85a3.79 3.79 0 0 0-1.72-.93 12 12 0 0 1-2.43-.58c-.35-.2-1-.6-.93-1s1-.6 1.5-.71 1.37.4 1.65 0-.27-.94-.5-1.29a5.94 5.94 0 0 0-1.58-1.5c-.46-.31-1.41-.25-1.71-.72a2.18 2.18 0 0 1 .07-1.64 5.72 5.72 0 0 1 .93-1.29h1.79l.78.5a15 15 0 0 0 1.44 2.43 7.28 7.28 0 0 0 2.71 2 3.4 3.4 0 0 0 1.79 0c.46-.13 1.22-.39 1.36-.85a1.68 1.68 0 0 0-.65-1.5 15.82 15.82 0 0 1-2.28-.79c-.29-.22-1.36-.5-1.51-.86s-1.43-1.14-1.43-1.14l-1.93-1.08-.71-.57.61-1 1.11 1.22.16.19 5.83-1.59.49-.13.7-.19.66-.29 1.64-.76 7.11 2.66 3.41 2.34 2.48 2.86 4.68-3 9.38-3.69 1.38-.72 9.39-1.22 4-1 .86-.22 4.85-.69 3.78.51 9.4-1.37 3.53-1.8 6.24-1 2.82-1.87 4.34-1.53 2.16-1.41 4.55-1.93 11-2.81 5.48-.3 5.79 1.11L746 77l2.49-1.31 1-.52L752 76v2l-2.23 2.06 1.15 1.19 4.33.13v-.85l-1.55-.9-.08-.52.13-.29.57-1.33 1.23.15 7.09 4.88-.8 2.48.22 2.72-1.06 4.15.09.14 1.18 1.65 1.88 2.64v3.84l3.14 11.65 4.61 3.11 4.45 4.29 5.22 1.64 1.54 1 .68 1.25 1.63.27 1.76.27.15.88.92.89 2.53 1.11 9.55 1.41 1.19.18h.09l3.46-2 .4-.23.08.42.14.75-2 2.34-.22.52 1.13 4.66-.78 4.5 3.82 3.7 2.15.82 3.83.6 5.28 2.17 1.31-.65 3.52 1.64Z"/><path class="path4314" d="m229.77 757.72-2.43-2.27-1.85-3.89-.69-1.48-1.07-.71-3.55-.76-.5.54-.09 1.7.4.73-.72.47-1.23-1.3v1.49l.86 1.59-.7.69-1.2-1.43-.3-2.06-.6-.5-1.47.13-1.16.7-.4 1 .42 1.54 1.89 1.26 3.66.41 2.84.31v1l-4.69-.32.16.56 1.78.9.5 1.61-.74.17-1.77-1.8-1.2.5.53 1.44-.89.24-1.92-2.86-.46.51.84 2-2.4-3.24-1-.71-1.82.44-.56.9L210 760l2.09 1.75-.09.25-.12.39-.83.09-3.67-3.19-1-1.66-1.84-1.63-2.82-.71-1.7-2.15-1.87-.74-4.73-.35-2.1-1.18-.91-1.93-2.37-5-1.48-1.94-1.51-1.12-1.81-.9-2.4-.11-4.25-.23-1.09 1.94-.49.86-.23 3.48-2.2 5.92-2.27.46-1 .7-3.12.39-1.94.24-3 2.78-3.82 2.15-2.09 2.82-1.83.22h-2.8l-3.77-1.5-1.76-.7-.72.46-7.74-2.1h-.08l-.81 1.47-.56 1-.27.47-.45-.22-.08-.05-3.68-1.91-3.49-.59-2-.82-.64-.26-6.81-6.07-1.72-.59h-4l-4.04-1.19-6-2.84-2.44-.48-3.79-2.21-1.16-1-1-.84-2.41-.76-5.22-1.64-.61-.56L83 739l-7.41 4-5.74 1.74-3.54-.36-9.86 3.85-2 2.38c-.82 6.33 6.24 9-1.63 17.42l-.1 1.16c.18 1 1.53 1.67 2.39 2l.46 1c.15 1.19-.82 2.11-1.12 3.22.44 1.4 1.66 2.28 1.85 3.86.14 1.18-.26 2.56.28 3.68.86 1.81 3.79 2.65 5.32 3.84 1.95 1.51 3.44 3.65 5.43 5 3.68 2.58 9.31.84 13.29.17 1.37-.23 2.85-.52 4.2-.81l.67-.8c.21-3.15-1-9.5-.6-11.39l.72-.8 2.91.35c3.22-1.12 2.72-3.54 7.51-1.8a9.24 9.24 0 0 0 2-.8 11.76 11.76 0 0 1 1.97-2.61c3.29-1.72 8.67 5.35 14.86 3.57 2.76.66 3.86 4.32 6.27 5.47 2.77 1.34 6.52.32 9.47 1.35 1.94.69 2.69 2.35 5 2.8a13.09 13.09 0 0 1 2.19-.65 4.84 4.84 0 0 1 2.74 1.81c-.39 3.46-2.18 9.47-.06 12.64 2.75 1.93 9.09 3 12.38 2.67 2-.21 3.87-1.4 5.83-1.16a3.23 3.23 0 0 1 .18 2.35l.6.8c5.07 1.16 6.78-6 10.16-2.51 4.6.55 11.5-8.39 15.41-10.77 2.6-1.58 6.14.07 9.13-1.7s5.73-4 8.68-5.83c9.7-5.89 15.8-11.12 22.7-20.26a36.33 36.33 0 0 0 4.26-6.16"/><path class="polygon4330" d="m210.49 753.55.2 1.38-3.08.56-.98-.63-.41-1.09.48-1.12 3.79.9z"/><path class="polygon4332" d="m168.36 616.42 1.05.18 2.47 2.34 3.44 2.3-.2.61-3.32-1.29-4.07.46-3.51 1.46-.77-.56 2.24-1.86 1.32-2.34 1.35-1.3z"/><path class="polygon4334" d="m174.87 630.5-1.97.96-3.17.71-.55-.73-.31-.42.2-.44.07-.17 1.24-.63 4.53-.17-.04.89z"/><path class="path4336" d="m165.64 633.62-1-.11-.53-.77v-.12l.22-.62 1.26-.28 2.81 1.65-2.74.27Z"/><path class="polygon4338" d="m184.88 634.1.58 1.6-.41.98-1.49-.09-1.93-3.99-1.28-1.83-1.87-2.71.17-1.33 2.9.04.54.42.34 3.23.91 2.19 1.54 1.49z"/><path class="polygon4340" d="m235.69 628.96.2-.97 1.3-.21 16.2 6.35.04.96-.44.31-3.3 1.29-2.8.31-.36-.48-5.17-2.65-4.12-3.34-1.55-1.57z"/><path class="polygon4342" d="m251.89 637.87 2.5 1.69-.06.52-3.04-.04-1.2-.49.84-1.28.96-.4z"/><path class="polygon4344" d="m125.39 659.88.48-.24.54-.26 1.15.92-1.44 1.09-.98-.62.25-.89z"/><path class="polygon4346" d="m118.69 669.32 5.08-5.76.97.25 1.07.77-.54 1.13-1.83 2.14-1.71-.07-1.05 1.45-1.67.8.48.95-1.35 1.24-.35-1.24.9-1.66z"/><path class="path4348" d="m153.83 623.94.29 1.54-.14.25.45.15 1.89.64.56.94-.46 1.25h-.1l-4.73-2-2.21.31-.32.47-.8 1.2-.45 1.86.32 2.35 1.8.3.69.56 7.85-2.08 2.34.72 3.75 3 2.73-.62 1.49.37 8.29-.53 2 2.58 1.15 2.91.78 1.15 1.07.56 1.59 2.81 1.81 4.73 1.36.69 4.62.49 5.06 2.55 1.11 1.37 4.56.82 1.91.34-.9 1.8-.13 2.3-.84 1.28v.74l-1 1.22-2.55 1.2-4.13 4.59-.91-.31-1.71-.56-1.32.27-3.62 2.2-4.1 1.34-6.43 2.09-3.08-2.72-2.14-1.88-1.37-2.46-.14-.36-1.4 2-1.24-1.28-.76 1.14-.9-.12-2.42-.3-2-1.32-.61-.35-.78-3.14v-2.23l-1.61-1.85-1.4-3.56-2.52-1.82-1.77.29-.46-.15-4.64-1.42-.86-.62-.6-.43v-2.67l-.55-.71-2.41-.94-4.71 4.41h-1.34l-2 .81-1.36 1.17-.25 1-1.17.57-5.61.6h-.54l-1.38.1-3.95-2.35-2.43-3-.77-2.49-.29-3.23.44-1.94 2.05-4.07 1.55-2 3.34-1.63 7.35-1.85 3.35-1.22.14-.06.37-.13.46-.17 3.77-.23 5.47 1.1 1.31-4.25v-.14l-.26-1.33 3.92-1 3.57-1.74Z"/><path class="path4350" d="m112.91 679.68 2.61-1.08 3.24-.43 2.72-.55 2.49 1.07 1.09 1.28h1.48l3.36-1 1.06.48 1.21-1.09 2.87-.48 2.45.2.51-.08 6.7-1.84 1.5.38 3.08-.72 4 1.48 2.06 1.39.09.13 1 1.3 2.18 4.42 1.51.83 1 1.9.85 1.57.2.36-.3.71-.25.57-4.31 1.13-1.7 2.6a5.43 5.43 0 0 1-2.09.77 4.33 4.33 0 0 1-2.65-1.67c-.69-.84-.69-1.67-1.81-1.81a7.29 7.29 0 0 0-3.06-.14c-1.39.28-2.36 1.95-3.06 2.09a5.36 5.36 0 0 1-2.64-.56c-1.11-.42-2.09-.84-3.2-1.25a4.42 4.42 0 0 0-2.92-.42 26.55 26.55 0 0 0-3.48 1.81 11.78 11.78 0 0 0-2.09 1.67l-2.78 1.81a9.3 9.3 0 0 0-1.67 1.66c-.27.56-.41 2.23-1 2.23s-1.39-.14-1.39-1.11a29.12 29.12 0 0 0 .27-3.48 6.73 6.73 0 0 0-1.39-3.06c-.69-.83-3.06-2.5-3.75-3.2s-2.09-1.25-2.92-1.94-2-1.26-2.09-2.09-.83-3.2-.83-3.76 1.81-2.22 1.78-2.06Z"/><path class="polygon4363" d="m706.55 49.12-2.16 2.07 1.05 1.5-2.44-.31-2.86-1.92 1.15-1.7 1.85-.74 4.95-.08 1.15.89-2.69.29z"/><path class="polygon4365" d="m674.79 51.21-1 .15-.39-1.1.68-2.59.69-.81 1.47-.15 2.63 1.24 5.89 1.45 2.32 1.4.55 1.03-.7.89-1.08-1.4-.77 1.11-2.01.22-2.17-1.24-4.64-1.45-1.47 1.25z"/><path class="polygon4367" d="m612.43 74.98-.27-.91-.05-.19-1.3 1.33-.48-1.25.14-2 1.74-3.54 2.29-2.61 2.53-1.49 25.15-3.5.82-.04 4.5-.21 5.11.71.93 1.1-2.84 2.01-2.09.3-1.99 1.41-5.56.92-2.37 2.61-4.15 1.94-9.31.73-4.18.1-3.16.86-1.3 1.39-1.84.82-.07 1.41-2.45 2.16-.76.15-.4-.81.29-1.77 1.07-1.63z"/><path class="polygon4369" d="m594.24 76.9 3.31-.32 1.26 1.61-.31.74-.69-.36-.99 1.27-.85.22-.75 1.63-1.01-.65-.02-1.62-.71-1.91.76-.61z"/><path class="polygon4371" d="m568.01 77.63-.14-.01-4.99 2.2-8.28 1.89-4.79.69-3.37 1.52-2.55-.48-1.39.23-5.34-1.25-1.77.32-4.16-1.04-.32-.08-.2.09-1.11.51-3.25 3.66-3.22 1.3-4.93.44-2.99-.31-1.41-.14-4.05-2.31-.23-.14-1.59-2.71-.06-.49-.21-1.71 1.06-1.5.15-.21-.99-.85-.1-.09.28-.97 1.15-.83 1.91-1.28 2.39.11 5.44 1.99 3.47.76 6.39.33.41.02 21.35-1.39.13-.01 11.21-1.22 7.53-.83 5.25-.13 2.39.49 1.18.67 1.62.93-3.44 2.31-8.43-.48z"/><path class="polygon4373" d="m442.18 104.83-1.48-.63-3.84.08-2.68 1.08-1.87 1.81-.16.15-3.3.14-1.87 2.62-.38.14-.78.28-.37.13-.68.68.02.88-2.5 1.68-1.83.63-2.32-.4-1.87-1.29-1.49-4.39.34-1.93 6.64-5.82 2.02-2.7 1.58-.79.71-.36-1.67-.17-.7-.08.88-.51 1.06-.63 1.79.27 1.15.19 3.75-.47 5.48-.68.57-.12 1.58-.32 3.82-.78 14.95-4.12 3.67-1.13 22.28-6.8 7.31-2.24 3.55-.34 3.96 1.64.36.7.04.09-2.26 1.16-.87.45-1.78.1-.97 1.57-.25.12-2.56 1.34-1.19.62-.96.5-1.39-.4-.32-.09-2.28 1.59-1.77.4-1.36 1.05-1.62.4-1.25-1.02-1-.12 1.05 2.56-2.14-.12-1.88-1.48-1.06-.06.02.59 3.71 3.24-.91.97-14.31.52-5.72 3.01-2.21 1.48-.47.33-.33.22-4.28 2.9-.15-.05-1.79-.51-2.15.41-1.36 1.21-1.91.62z"/><path class="polygon4375" d="m380.4 145.19-4.21 3.35-3.8 1.34-4.98 6.47-3.14.22-2.09-.9-.46.04-.19.02-.63.05-3.01.28-2.17-.9-.75.61-.97-1.67 1.05-.92 4-2.61 4.11-1.13 3.77-2.53 3.97-3.63 1.92-2.19 2.11-2.41.71-.49 4.98-3.43 2.69-1.86.37-.26 7.2-3.92 5.1-2.27 1.76-.25 5.64 1.05.41 1.25-.84 1.17-.12.17-5.36.13-.41.01-2.47 2.48-3.48 2.23-.47.15-5.09 1.67-2.24.97-5.28 2.31-.51.73-.16.24.33.53.49.79 1.03 1.66 1.16.12.39.58-.36.75z"/><path class="polygon4377" d="m325.58 225.54-1.08-3.14v-2.73l3.1-13.89 1-2.22 1.08-2.41 1.69-2.26 1.21-3.2.61-.91.08-.13 2.48-3.71.56-.83 6.8-10.14 1.82-2.72 3.85-5.73.17-.26 4.71-4.54 1.23.12 3.39 3.39.36 1.98.22.46 1.01 2.1 1.83 1.02.8.45 2.61 5.85-.29 1.12-.95 3.7.39 2.67.07.5-.09.51-.43 2.47-.01.13-.2 1.11v5.53l-3.88 3.34-1.4 4.83-3.93 4.75-2.68 2.28-4.25 1.22-4.57 5.88-1.13 2.34-.16.34-.86-.41-.67.46-.56 1.85-1.28.56-2.06-.1-.51.91-1.28.54-5.3 1.47-1.2-.97-.37-.31-.18-.3-.18-.31-.59-.99-.98-1.67z"/><path class="polygon4379" d="m404.82 397.03.67-.16.96.77 1.2.96 3.99-.31.39.58-.29.52-1.36.25-3.67 1.82-2.73 1.35-.85-.5-.01-.89 1.24-1.5.46-2.89z"/><path class="polygon4381" d="m476.11 377.22.84-.63 1.24-1.88.95-2.24.61-.99 2.92-.9 3.58-.54 1.74-1.16 4.43-4.75.9-.63 2.18-2.33 3.48-2.42 2.35-.45 3.75-.27 3.2-.98 2.86-1.53 1.12-.27.89-.62 1.35-1.8 2.52 3.41 2.3.99 2.46.8 1.51.18 1.19.54 4.14.9 7.06.98.95.54 1.46 1.61 1.53.28 2.45.44 4.15.18 3.98.81.84.71.85 1.35.1.18.11.13.56.68 1.25 2.74.72 1.02 1.28 1.7 1.18 2.96.31 4.12-1.49 9.6-1.62 3.23-1.4 2.29-1.91 3.89-1.96 3.04-3.19 4.22-1.46 3.32-.62.99-1.73 1.25-4.6 2.69-1.96.9-6.73-.18-5.44 1.62-11.09 6.27-2.91 2.87-1.85 2.87-.67.36-2.64.44-4.26-.35-.95.45-1.62 1.43-3.82 3.76-.22 1.44.11 1.16 2.75 5.83.11 1.17-3.48 7.71-.72 2.6-.95 2.24-.9.63-2.58 1.07-12.5 2.69-5.32 1.8h-2.58l-2.3-.9-1.4-1.62-5.6-5.02-1.01-.53-1.4-1.62-5.49-4.84-5.05-2.78-5.43-2.6-6.05-2.15-2.64-.63-4.76-1.79-3.87.18-1.12.27-1.96.98-2.35.36-1.01-.27-.95-.63-.85-.71-1.23-1.7-.78-1.98-.12-1.25.12-2.69.22-1.44-.11-1.16-.28-1.17-.67-.8-.45-.99.45-.81 6.22-3.67 1.46-1.62 1.06-2.06.73-.8 2.58-1.89 1.12-.27 8.4-4.66 6.9-5.02 1.84-.99 1.69-1.25 7.39-4.31 3.87-1.97 6-4.3 1.62-1.43 1.96-.9 2.36-.36 1-.45 2.58-1.88 1.85-.99 2.47-2.06.5-1.08.34-1.34-.04-2.35.49-1.32.61-.9z"/><path class="polygon4383" d="m460.09 202.19 1.13 2.78-.56 1.67-1.95-1.03-1.91-3.36.29-1.11 3 1.05z"/></g><g class="layer3" fill="#e0e0e0" stroke-miterlimit="10"><path class="polygon2795" d="m380.38 723.62-5.8 8.21-7.25-1.68 1.69-7.98 11.36 1.45z"/><path class="polygon2787" d="m779.23 6.22 3.49-1.1 4.73-.57 5.97-.42 2.02.52 6.75-.79 1.93.38 1.08 1.99-6.8.78-.1.01-4.19-.31-1.94.58-.12.01-7.86.41-.71.46-.54.35-1.71-.12-.69-.03-12.17 2.32-3.18.07-1.63-.15-1.23-1.11V8.47l.54-.52 1.43-.32 1.82-.41 13.11-1z"/><path class="polygon2789" d="m760.84 16.35 1.48-.28 1-1.55 1.01-.51 1.4.06 3.01 2.3 1.63-.44 1.55.45.46.74-3.1 2.94-.93 2.14-1.09-.75-.46.82.77 1.55-1.16.14-2.94-.81-1.7-1.11-.7-1.26-.23-4.43z"/><path class="polygon2791" d="m721.15 38.64-1.94-1.49-.64-3 .31-2.16.85-1.03 11.14-3.92 2.95-2.07 2.16-.81.64-.02 1.99-.06 2.64 1.11 3.79 2.88 3.94 1.1.93.89-.16.96-5.02-.07-3.33 1.24-2.63.23-1.78.52-2.47 2.43-3.1.82-.31.66 1.48.29 2.78 3.09 2.2 1.51.28.19-.55 1.11-1.22.98-.24.2-.85-1.7-2.03-1.93-.6-.43-.93.44-3.64.23-1.39 1.25-5.25-3.44z"/></g><g class="layer7" fill="none"><path class="path4006" d="m107.21 681.61 4.33-.35"/><path class="path4008" d="m118 678.13.35-6.6"/><path class="path4010" d="m124.77 663.67.83-2.37"/><path class="path4012" d="m153.73 624.42 1.74-2.83"/><path class="path4016" d="m191.07 603.58 3-3.61"/><path class="path4189" d="m393.33 246.28 51.78-45 10-2.64 5-5"/><path class="path4191" d="m442.17 327.47 4.12-.59 10.59 4.71L466 341l10.89 17.94 2.64 8.53-5.29 2.65-4.12 10 4.7.88"/><path class="path4304" d="m617.64 93.35 3.43-1.72 3.44.79"/><path class="path4309" d="m126.38 659.62.21-4"/></g><g class="layer1" fill="none" stroke-linejoin="round"><path class="path2811" d="M.05 770.23a43.91 43.91 0 0 1 6.32-3.45 185.06 185.06 0 0 1 22.55-7.86c2.78-.74 7.61-1.35 10-2.36 1.62-.69 3.2-1.67 4.85-2.28 3.65-1.33 6.86-1.54 10.6-3.4"/><path class="polygon2813" d="m206.22 753.77.48-1.12 3.79.9.19 1.38-3.07.56-.98-.63-.41-1.09z"/><path class="polyline2815" d="m54.41 750.48 2.07-2.17 9.86-3.85 3.54.35 5.74-1.74 7.41-4.02 2.49-.33.61.55 5.22 1.64 2.41.76.98.84 1.17.98 3.78 2.21 2.44.48 5.95 2.84 4.1 1.09 3.98.04 1.72.6 6.81 6.07.64.26 1.98.81 3.49.59 3.68 1.91.09.05.45.23.26-.47.56-1.01.82-1.47.07.02 7.74 2.1.72-.47 1.76.7 3.78 1.51 1.74-.03 1.05-.01 1.83-.21 2.1-2.83 3.81-2.14 2.99-2.78 1.94-.24 3.11-.4 1.01-.7 2.26-.45 2.2-5.93.23-3.48.49-.86 1.1-1.93 4.25.22 2.4.11 1.8.9 1.52 1.12 1.47 1.94 2.37 5.03.92 1.94 2.1 1.17 4.73.35 1.86.74 1.7 2.15 2.83.71 1.82 1.64 1.02 1.66 3.68 3.2.83-.1.11-.39.07-.25-2.08-1.75-1.73-2.81.56-.91 1.82-.44.98.71 2.4 3.24-.84-1.98.46-.52 1.92 2.86.9-.24-.54-1.44 1.2-.5 1.68 1.79.74-.17-.5-1.61-1.78-.9-.16-.56 4.69.32.04-.96-2.84-.31-3.66-.41-1.89-1.26-.42-1.54.41-.97 1.15-.71 1.47-.13.6.51.3 2.05 1.23 1.43.71-.69-.87-1.59.02-1.49 1.23 1.3.72-.47-.4-.72.09-1.71.5-.54 3.56.77 1.05.7.7 1.48 1.85 3.89 2.42 2.27"/><path class="path2817" d="M229.77 757.72c.74.55.76 1.62 1.31 2.33s1.42 1.62 1.95 2.46c1.81 2.89 1.07 6.68 3.73 10.13 1.56 2 7.38 4.65 7.87 6 .87 2.35-3.31 5.16-2.43 7.48l.83.76h1c.29-.9.32-1.88.59-2.75.69-2.21 3.11-3.94 3.08-6.34-2-3.82-6.32-3.5-8.29-6.82-3-5 2.41-9.86-5.2-14.29-.7-2-2.33-4.55-2.46-6.69"/><path class="polygon2821" d="m171.8 620.56-4.07.46-3.51 1.46-.77-.56 2.24-1.86 1.32-2.34 1.35-1.3 1.05.18 2.47 2.34 3.44 2.3-.2.61-3.32-1.29z"/><path class="polygon2823" d="m168.87 631.02.2-.44.07-.17 1.24-.63 4.53-.17-.05.89-1.96.96-3.17.71-.55-.73-.31-.42z"/><path class="polygon2825" d="m165.64 633.62-1-.11-.53-.77v-.12l.22-.62 1.26-.28 2.81 1.65-2.74.27Z"/><path class="polygon2827" d="m181.63 632.6-1.28-1.83-1.87-2.71.17-1.33 2.9.04.54.42.34 3.23.91 2.19 1.54 1.49.58 1.6-.41.98-1.49-.09-1.93-3.99z"/><path class="polygon2829" d="m252.99 635.4-3.3 1.29-2.81.31-.35-.48-5.17-2.65-4.12-3.34-1.55-1.57.2-.97 1.3-.21 16.2 6.35.04.96-.44.31z"/><path class="polygon2831" d="m250.09 639.55.84-1.28.95-.4 2.51 1.69-.06.52-3.04-.04-1.2-.49z"/><path class="polygon2833" d="m126.12 661.39-.99-.62.26-.89.48-.24.54-.26 1.15.92-1.44 1.09z"/><path class="polygon2835" d="m125.27 665.71-1.83 2.14-1.71-.07-1.05 1.45-1.67.8.48.94-1.35 1.25-.35-1.25.89-1.66 5.09-5.75.97.25 1.07.77-.54 1.13z"/><path class="polygon2837" d="m153.83 623.94.29 1.54-.14.25.45.15 1.89.64.56.94-.46 1.25h-.1l-4.73-2-2.21.31-.32.47-.8 1.2-.45 1.86.32 2.35 1.8.3.69.56 7.85-2.08 2.34.72 3.75 3 2.73-.62 1.49.37 8.29-.53 2 2.58 1.15 2.91.78 1.15 1.07.56 1.59 2.81 1.81 4.73 1.36.69 4.62.5 5.06 2.54 1.11 1.37 4.56.82 1.91.34-.9 1.8-.13 2.3-.84 1.28v.75l-1 1.21-2.55 1.2-4.12 4.59-.92-.31-1.71-.56-1.32.27-3.62 2.2-4.1 1.34-6.43 2.09-3.08-2.72-2.14-1.88-1.37-2.46-.14-.36-1.4 2-1.24-1.28-.76 1.14-.9-.12-2.42-.3-2-1.32-.6-.35-.79-3.14v-2.23l-1.61-1.85-1.4-3.56-2.52-1.82-1.77.28-.46-.14-4.64-1.42-.86-.62-.6-.43v-2.67l-.55-.71-2.41-.94-4.71 4.41h-1.34l-2 .82-1.36 1.17-.25 1-1.17.57-5.61.6h-.54l-1.38.11-3.95-2.35-2.43-3-.77-2.49-.29-3.23.44-1.94 2.05-4.07 1.55-2 3.34-1.62 7.35-1.86 3.35-1.21.14-.06.37-.13.46-.17 3.77-.23 5.47 1.1 1.31-4.25v-.14l-.26-1.34 3.92-1 3.57-1.74Z"/><path class="polygon2839" d="m762.33 8.47.54-.52 1.43-.32 1.82-.41 13.11-1 3.49-1.1 4.73-.58 5.97-.41 2.01.51 6.75-.78 1.94.38 1.08 1.99-6.8.78-.1.01-4.19-.31-1.94.58-.12.01-7.86.41-.71.46-.54.35-1.71-.12-.69-.03-12.17 2.32-3.18.07-1.63-.15-1.23-1.11V8.47z"/><path class="polygon2841" d="m761.76 22.04-.69-1.26-.23-4.43 1.48-.28 1-1.55 1.01-.52 1.4.07 3.01 2.3 1.63-.44 1.55.45.46.74-3.1 2.94-.94 2.14-1.08-.75-.46.82.77 1.55-1.16.14-2.94-.81-1.71-1.11z"/><path class="polygon2843" d="m718.88 31.99.85-1.03 11.14-3.92 2.95-2.07 2.16-.81.63-.02 2-.06 2.64 1.11 3.79 2.88 3.94 1.1.93.89-.16.96-5.02-.07-3.33 1.24-2.63.23-1.78.52-2.47 2.43-3.1.81-.31.67 1.48.29 2.78 3.09 2.2 1.51.28.19-.55 1.11-1.22.98-.24.2-.85-1.7-2.03-1.93-.6-.43-.93.44-3.64.23-1.38 1.25-5.26-3.44-1.94-1.49-.64-3 .31-2.16z"/><path class="polygon2845" d="m700.14 50.46 1.15-1.7 1.85-.74 4.95-.08 1.15.89-2.69.29-2.16 2.07 1.05 1.5-2.44-.31-2.86-1.92z"/><path class="polygon2847" d="m674.77 46.86 1.47-.15 2.63 1.24 5.89 1.45 2.32 1.4.55 1.03-.7.88-1.09-1.39-.76 1.11-2.01.22-2.17-1.24-4.64-1.45-1.47 1.25-1 .15-.39-1.1.68-2.59.69-.81z"/><path class="polygon2849" d="m611.07 78.38.29-1.77 1.07-1.63-.27-.91-.05-.19-1.3 1.33-.48-1.25.14-2 1.74-3.54 2.29-2.61 2.53-1.49 25.15-3.5.82-.04 4.5-.21 5.11.71.93 1.1-2.84 2.01-2.09.3-1.99 1.41-5.56.92-2.37 2.61-4.15 1.94-9.31.73-4.18.1-3.17.86-1.29 1.39-1.84.82-.07 1.41-2.45 2.16-.76.15-.4-.81z"/><path class="polygon2851" d="m596.82 79.83-.85.23-.75 1.63-1.01-.65-.02-1.62-.72-1.92.77-.6 3.31-.32 1.25 1.61-.3.74-.69-.36-.99 1.26z"/><path class="polygon2853" d="m529.6 82.22-3.26 3.66-3.21 1.3-4.93.44-2.99-.31-1.41-.14-4.05-2.31-.23-.14-1.59-2.71-.06-.49-.21-1.71 1.06-1.5.15-.21-.99-.85-.1-.09.28-.97 1.15-.83 1.9-1.28 2.4.11 5.44 1.99 3.47.76 6.39.33.41.02 21.35-1.39.13-.01 11.21-1.22 7.53-.83 5.24-.13 2.4.49 1.18.67 1.62.92-3.44 2.32-8.43-.48-.14-.01-4.99 2.2-8.29 1.89-4.78.69-3.38 1.52-2.54-.48-1.39.23-5.34-1.25-1.77.32-4.16-1.04-.32-.08-.2.09-1.11.51z"/><path class="polygon2855" d="m445.45 103-1.36 1.21-1.91.62-1.48-.63-3.84.08-2.68 1.08-1.87 1.81-.16.15-3.31.14-1.86 2.62-.38.14-.78.28-.37.13-.68.67.02.89-2.5 1.68-1.83.63-2.32-.4-1.88-1.29-1.48-4.39.33-1.93 6.65-5.82 2.02-2.7 1.58-.8.71-.35-1.67-.17-.7-.08.88-.51 1.06-.63 1.79.27 1.15.18 3.75-.46 5.47-.68.58-.12 1.58-.32 3.82-.78 14.95-4.12 3.67-1.13 22.28-6.8 7.31-2.24 3.54-.34 3.97 1.64.36.7.04.09-2.26 1.16-.87.45-1.78.1-.97 1.57-.25.12-2.56 1.34-1.19.62-.96.5-1.39-.4-.32-.09-2.28 1.59-1.77.4-1.37 1.05-1.61.4-1.25-1.02-1-.12 1.05 2.56-2.14-.12-1.88-1.48-1.06-.06.02.59 3.71 3.23-.91.98-14.31.52-5.72 3.01-2.21 1.48-.47.33-.33.22-4.28 2.9-.15-.05-1.79-.51-2.15.41z"/><path class="polygon2859" d="m355.72 155.16-.75.61-.97-1.67 1.05-.92 4-2.61 4.11-1.13 3.77-2.53 3.97-3.63 1.92-2.19 2.11-2.42.7-.48 4.98-3.43 2.7-1.86.37-.26 7.2-3.93 5.1-2.26 1.76-.25 5.64 1.05.41 1.25-.84 1.17-.12.17-5.36.13-.41.01-2.47 2.48-3.48 2.23-.47.15-5.09 1.67-2.24.97-5.28 2.31-.51.73-.16.24.33.53.49.79 1.03 1.66 1.15.12.4.58-.36.75-4.21 3.35-3.81 1.34-4.97 6.47-3.14.22-2.1-.9-.46.04-.18.02-.63.05-3.01.28-2.17-.9z"/><path class="polygon2861" d="m347.46 216.25-4.57 5.88-1.13 2.34-.16.34-.86-.41-.67.46-.56 1.85-1.28.56-2.06-.1-.51.91-1.28.54-5.3 1.47-1.2-.97-.37-.31-.18-.3-.18-.31-.59-.99-.98-1.67-1.08-3.15-.01-2.72 3.11-13.89 1-2.22 1.08-2.41 1.69-2.26 1.21-3.2.61-.91.08-.13 2.48-3.71.56-.83 6.8-10.14 1.82-2.72 3.85-5.73.17-.26 4.71-4.54 1.23.12 3.39 3.39.36 1.98.22.46 1.01 2.1 1.83 1.02.8.45 2.61 5.85-.29 1.12-.95 3.7.39 2.67.07.5-.09.51-.43 2.47-.01.13-.2 1.1v5.54l-3.89 3.34-1.39 4.83-3.93 4.75-2.68 2.28-4.25 1.22z"/><path class="polygon2863" d="m412.03 398.87-.29.52-1.36.25-3.67 1.82-2.73 1.35-.85-.5-.01-.89 1.24-1.5.46-2.89.67-.16.96.77 1.2.96 3.99-.31.39.58z"/><path class="polygon2865" d="m519.32 357.23 2.46.8 1.51.18 1.19.54 4.14.89 7.06.99.95.54 1.46 1.61 1.53.28 2.45.44 4.15.18 3.98.81.84.71.85 1.35.1.18.11.13.56.68 1.25 2.74.72 1.02 1.28 1.7 1.18 2.96.31 4.12-1.49 9.6-1.62 3.22-1.41 2.29-1.9 3.9-1.96 3.04-3.19 4.22-1.46 3.32-.62.98-1.74 1.26-4.59 2.69-1.96.9-6.73-.18-5.44 1.62-11.09 6.27-2.91 2.87-1.85 2.87-.67.36-2.64.44-4.26-.35-.95.44-1.62 1.44-3.82 3.76-.22 1.44.11 1.16 2.75 5.83.11 1.16-3.48 7.72-.72 2.6-.95 2.24-.9.62-2.58 1.08-12.5 2.69-5.32 1.8h-2.58l-2.29-.9-1.41-1.62-5.6-5.02-1.01-.53-1.4-1.62-5.49-4.84-5.05-2.78-5.43-2.6-6.05-2.15-2.64-.63-4.76-1.79-3.87.18-1.12.27-1.96.98-2.35.36-1.01-.27-.95-.63-.85-.71-1.23-1.7-.78-1.98-.12-1.25.12-2.69.22-1.44-.11-1.16-.28-1.17-.67-.81-.45-.98.45-.81 6.22-3.67 1.46-1.62 1.06-2.06.73-.8 2.58-1.89 1.12-.27 8.4-4.66 6.9-5.02 1.84-.99 1.69-1.25 7.39-4.31 3.87-1.97 6-4.3 1.62-1.43 1.96-.9 2.36-.36 1-.45 2.58-1.88 1.85-.99 2.47-2.06.5-1.08.34-1.34-.04-2.35.49-1.33.61-.89.84-.63 1.24-1.88.95-2.24.61-.99 2.92-.9 3.58-.54 1.74-1.16 4.43-4.75.9-.63 2.18-2.33 3.48-2.42 2.35-.45 3.75-.27 3.2-.98 2.86-1.53 1.12-.27.89-.62 1.35-1.8 2.52 3.41 2.3.99z"/><path class="polygon2867" d="m456.8 202.25.29-1.11 3 1.05 1.13 2.78-.56 1.67-1.95-1.03-1.91-3.36z"/><path class="path4003" d="m112.91 679.68 2.61-1.08 3.24-.43 2.72-.55 2.49 1.07 1.09 1.28h1.48l3.36-1 1.06.48 1.21-1.09 2.87-.48 2.45.2.51-.08 6.7-1.84 1.5.38 3.08-.72 4 1.48 2.06 1.39.1.13 1 1.3 2.18 4.42 1.51.83 1 1.9.85 1.57.2.36-.3.71-.24.57-4.32 1.13-1.7 2.61a5.47 5.47 0 0 1-2.09.76 4.33 4.33 0 0 1-2.65-1.67c-.69-.84-.69-1.67-1.81-1.81a7.28 7.28 0 0 0-3.06-.14c-1.39.28-2.36 1.95-3.06 2.09a5.25 5.25 0 0 1-2.64-.56c-1.11-.42-2.09-.83-3.2-1.25a4.42 4.42 0 0 0-2.92-.42 27.2 27.2 0 0 0-3.48 1.81 11.78 11.78 0 0 0-2.09 1.67l-2.78 1.81a9.1 9.1 0 0 0-1.67 1.67c-.27.55-.41 2.22-1 2.22s-1.39-.14-1.39-1.11a31.19 31.19 0 0 0 .28-3.48 6.8 6.8 0 0 0-1.4-3.06c-.69-.83-3.06-2.5-3.75-3.2s-2.09-1.25-2.92-1.94-2-1.25-2.09-2.09-.83-3.2-.83-3.75 1.81-2.23 1.78-2.07Z"/><path class="path4301" d="m231.8 750-.68-2.1.49-2.89-1.73-3.58-1.83-1.25-3.89.36-.92-1.07-1.13-.63-2.13.44-2.14 1.93-2.27.23-2.09.88-1 .41-2.3-.15-2.68-1-2-1.26-8.24-2-4-2-1.53-3.63-2.53-2.72-.88.19-2.55-.94-2.2-1.54-6.09-5.08h-.74l-1.81 1.11-3.23.27-3.82 2.36-.9 1.36.66 1.82-1.5 3.09-.33 1.55-.17.76-1.4 1.9-2.54 6.53-2.7-.35-1.09-.08-.69-.63-4.48 2-7.64 1.21-1.15.18-.63-.62-4.05-3.92-2.2-1.46-.26-1-1.56-.53-2.78-.92-1 .56-3.72-.88-1.23-1.43-.07-.61-.06-.7-1-2-.6-1.16-.86-.71-2.42-2-3.74-3.07.68-.61.52-.48 1.12.25 1-2-1.11-1.64-.83 1.13-2.78.57-.48.83-1.42-.39-1.29 1L113 725l-.45.07-1.6.24-1.39 1.83-1.8 1.25-1-.32-2.8.27-1.55-.15-.73-1.44-1 .44-1.75.83-.4.19h-.15l-1.68.37-.29.06-3.23-2.89-1.18-.4-.76-.26-4.38-3.72-3.15-6.15-4.3-5.2-5.41-3.38-4.1-3.94-2.13-1.24.15-3.33 1.71-3 5.19-3 4.42-3.59 2-1.31 4.76-2.99 1.83-.38 3.72-3 3.6-2 2-.39 1.88.73 3.48-.08 2.85 1 1 .36 1.27 1.36a9.84 9.84 0 0 1 .45 2.62c0 1.25.56 3.2 1.25 3.34s1.11 1.81 1.81 1.94 3.06 2.09 3.62 2.51 2.08 1.94 2.08 2.78 1.53 3.2 1.67 3.75a17.1 17.1 0 0 0 2.37 3.9 3.47 3.47 0 0 0 2.64 1.11 10.18 10.18 0 0 0 2.64-1.53s1.53-1.81 1.53-2.36.56-2.78 1.11-3.06 1-1.81 1.67-1.95a9.11 9.11 0 0 1 2.37-.28 12.1 12.1 0 0 1 3.61.42 15.79 15.79 0 0 0 3.62.28c.56 0 2.23-.14 2.78-.14s1.81-1.39 2.78-1.53a20.35 20.35 0 0 1 3.9.42l2.5 2.22 1.4.11 2.19-.22L158 696l3 .47 1.8-1.11 2.88-.1h.81l1 .85 2.92 4.47 4.31-1 3.07.91 5.2 2.76 1.72.38 2.37 2 1.37.84 3.92 2.37 2.11 5.08-.69 1.36 1.61 3.34L200 723l2.26 3.23 4.29 2.43 1.7.23 2.29 1.91 2.15.3.69-1 1.85-.73 1.21-.48 2-1.71 1.16-1 1.17-.2.84.71 2.06-.22.35 1.22.07.25h.56l1.87-.07 1.66-.82 1.25-.55.34-.15.7.86.57-.51 1.57-1.41h1.1l.33.25.51.38 1.76-.35.63 1.23 2.59-1.86 2.06-.51-.32-4.86-1.67-3.57.14-1.6v-.17l-.44-1.23-.19-.46-.66-.57-1-.9-.83-.73-1.21-.58-1-.45-1.63-2.24-.56-.21-1.39-.52-4.56-1.7-.91 1.09-1 1.2-1.1.18-2.93-1.6-.78-.93-5.11-2.55-1.53.65-2.46-.5-.91-.94-2.4 1.35-10-2.22-.67-.85-1.81-2.31-.44-1.53-1.48-1.54-1.18-1.14-3.29-.83-1.94-4.51-3.1-1.82-1.31-.77h-1.38l-1.15-.91-.58-1.61.29-1.22.16-.64 1.07-.92 1.25-.24 4.09-1.23 1.65.46 8.75-5.41h3.33l2.55.88 2.82 2.18 1.49.17 7.67-.71 4 .24h.71l-1-2.15.79-.38.14-1-3 .71-1.44.34-1.8-.67-2.2-.06-2.84-.06-1.15-3.05-1.14-1.15-1.58-.46-.57-1.38.35-2.12.12-.73 1.87-2 4.63-1 1.87.3 4.39 2.65 5.92 2.56.4.17 2.61.49 1.07-.92 2.63.72 4.52.14 3.86.32 2.13-.37 5-2.16 5.38-1 1.29-1.07 2.41-.84 1.67-1.29 2.93-1.2 1.85-2.13 3.19-6.67.49-1.86-.46-1.19-.42.44-1.87 2-.52-.12 1.47-2.64-1.87-.6-.7 1.28H259l-1.55.76-1.69 4.17-1.43 2-1.75.7-3.76 1.41-2.61 1.64-10 .92H236l-3.06-.86-5.16-3.22h-.14l-1-.23-2.29-1.92-2.92-.63-1.21-.92-3.14-.4-1.69-1.71-.35-.55-1.92-2.92-3.48-1.65-6.06-1.69-2.21.66-1.27-.47-3.26.34-1.35-.28h-.14l-1.27-1.11-.37-.29-.22.08-.44.17-.63-.79-.15-2.06-1.47-3.57-1.59-2.82-.24-2.35-1.76.65-.61-.57-.69-2.33.7-3.06v-2.88l-.78-2.7-2.2-2.48-1.15-2.53-.06-.13-.34-.75-2.37-.38-1.42.31-1.65-.24-1.28-.76-3.42.06-1.16 1-6.11 1.2-1 1.44-.94.1h-.16l-3.28 3.45h-1.27l-1.36-.69-.21 2.23-1.16.78-.18-.81-.11-.28-.37-1.6.31-.47.36-.56.37-.57-1.82-3.8-.57-3.09.66-1.94 1.35-1.68 2.9-1.88 1.2-.25 4.42-.9 2-.4.35-.19 5.12-2.61 6.24-2.16 1.35-.06 2.26-.11 2.16-.11 1.28-.06-.52 1.72 2.52 1.82.91 1 1.58 1.72.73-.17v-1l1.48-.61.6 2.53-1 .41.79 1.23 1.09-.79 1.35.18 2.45 2 6.52 3.16 1.85 1.7 1.74.69 1.5.6 5 3.45 6.79 3 1.69-.65 1.73 3.24 1.5 2.1 1.52.69 1.32 1.81 4 2.74 2.27 3.54 3.47 3.72 6.3 1.93 1.64 1.27 1.11.86 4 1.34 3.4-.11 3.16-.92 1.16-.92h.88l.79 1.06.45.6 1.51-1.6.07-.07h.08l.51.11v.1l.23 3.74.73.33.78-.68h1.19l1.28-1.45 1.12.19-2.38 2.07.27 1.14.53.38 1.81-1.23 2.06-.51 1.06.18.82.94 3.07 1.23 4.07 1.65 3.43.48 13.44-.76h.62l5.57-2.16.53.73 1.05.19-.23-.8-.1-.37 2.48-1.41 3-3.85 1.91-.28-1.1-2.42-.3-.65-.48-1-3.44 2.37h-.16l-2.93.75-7.18 2.83-7.53.89-2.59-1.84-6.54-2.9-5.87-.18-2.45-.52-3.59-.32-2.55-1-.19-.12-1.08-.7-6-3.89-2.4-.81-1.69-1.56h-.82l-2.57-1.47-5.64-1.25-6.61-2.67-4.08-1.61-3.49-4v-.88l2.07-.3 1.23-1-.26-.88-1.53.86-2.26-.81-1.62-1.79-3.5-2.31-1.64-.16-3.58-1.65-1.39-2-3.87-2.38-2.52.39-1.73-.45-1.27-.25-.58-1.68-.94.85-1.6-1-2.77-.35-2.06-1.47-1.64-2.24-3.26.23-1.27.09.11-.89 2-1.48.41-1.19-.86-2.85-1.83-3.18-4.67-5.38-.35-1.23.47-1.27.61-.6.9-.87 2.64-5h.74l.33-1.33-2.71-2.5-1.64 1.23c-.37.1-.88-2-1-3.05 0-.26-1.29-2.7-1.29-2.7l-4.31-.9-2.48 2.59-1.12-2.52-.65-2.72-.65-3.31.67-4.66 2.28-3.56 2.92-1.17 2.43-.46 2.79.22 2.59.68 2.7 1.42 2.81 1.3 1.16 1.14-1.19 1.55-11.76-3.68-3.82 5.93 3.42-4.11 1.05 3.74-3.21 3.56 6.75-5.81 8.47 2.84-1.75 1.88-4-.62 4 1.13 1.46 2.09-.7 1.35-.78 1-5.31 1.52-.88-1.44-.72.54 1.06 2.4 1.87.22 4-1.55 4.63-.15 9.52 3.57-9-4.42L200 567l.75-1.72-.62-1.8-.46-1.17.51-1.48 1.25-2.5-.65-1.93 5.84 2.71 11.56 6.74-10.95-10.31-5.76-2.59 6.78-4.3 4.22-5.77 1.76-2.43 19.11-22.27 1.91-2.23 3-4.16.29-.26 2.23-2 3.43-3.09 5.9-7.21 6.57-9.37 3.09-5.23v-.08l1.93-3.26.69-1.16.55-.94 5-8.2.86-1.8 1.69-3.46.16-.33 10.79-22.21.08-.15 3.16-6.5 3-7.56 1.58-3.93 2.57-6.38 4.28-13.52.17-.56.33-1.64 1.4-2.15.64-5-.13-.51.13-.48 4-14.12 1.2-4.31 1-5.7 1.61-8.84.37-4.38.57-6.87 1.11-5.94.28-8.06 1-6.1v-.28l1-5.7.22-2.51.65-7.3v-.45l2-12.22.84-1.15.59-.79.17-.23.51-.7 2.43-5.45 3.87-14.06.06-.21 2.1-7.67.15-.76 1.37-6.89.2-2 .51-5.18.69-15.52.85-1.67.87-1.69 1.28-1 2.22-.16 4-.27 3-.19v.32l-.05.41-.16 1.38 1.25.65 1 .07 1.06-.73 1.19-.81.74.27.11 2 .05.83v.06l-1.63 3.67-.11 1.78 3.6 8.39 2.65 2.15 3.61 1.65h.09L354 260l4.69 1.8h.1l1.09-.17 3.52-.52.27-.24.77-.67 6.4-2.74.4-.43.36-.39 3.09-3.33 1.59-3.28 1.57-1.22 1.08-.39 4.35-1.58 1.14-.41 2.84.9 2.56-1.39 1 .41.86.35 1-.83.69.88.62.82.63.79-.88 1.18-.08.1 1.48 1.22.62 1.25 2.43 4.77.79 1.56 1.17 1.16.57 1.46 1.46 3.82 4.92 8.88.81 1.46.13 2.37v.07l-2.51 18.57.18 1.11 1.86 1.65 1.24 1 .56 1.32-.11 1.55.72 1.53 2.08 1.43 1.44 2.93 1.23 1 3.57-.15 1.63-1.29 3.19-3.75 1.29-.46h.43l3.08.16 8.83.44 2.37.62.31.9.36 1.06 1.25.51.13.06 1 2.12v.17l-.19 5 .9 2.78.45.48 1.1 1.19v1.04l-.79 1.54-.09.17-2.24 1.6.41 1.38 1.18.21v.68l-2.73 3.49-.72-.68-.57-1.38-.4-1-3.93.37-.34 1-1.1 3.32-.27.84.09 1.55v.52l-1.38 2.53-8.34 6.45h-3.34l-.57.55-2.75 2.61-5.55 1.72-1.06-.34-.36-2.29-.84-.77-.74-.7-.89-.15-2.31-.38-.53-.25-.1-.06-.78-.37-.5-.24-.48-1H400.82l-3.22 1.62-.6-.17-3-.92-1.18.48-2.26.92-1.14.47-1 1.28-.48 1.7 1 5-.35 1.33.56 1.18-.26 1.56 3 6.37v.05l-.54 1.82 1.36 1.09.33.27.05.07.18.28.71 1.11.12.37.16.55 1 3.33.79 1.23.45 2.87 2.45 4.38 1.55 1.81 1 2.63-.11 1.47-.19.36-.76 1.44-.88 1.13-.44.27-1.95 1.1-.15 2.73 1.5 3-.8 1-.72.27-.29.09-4.81.71v.13l.35 1h.63l1.9-.26-.1.51-.3 1.56.69 4 .81.1 5.39.65 2.08-2.57-1.83 2.77 1.36.72-.44.38-1.15 1-1.21 1.05-.84 2.68-2.34 3.22-1.57.26-3.29 4.13-1.5.49-2.07 4.25-.51.28-.95.52-.21 1.6-.53.79-.28.41-1.31-.86-1.06-.71-.36.15-.93.36-1.54.6-1.2 1.5-2.37.21-.95 1.05.65.37 2.33 1.33.68-.12h.09l1.57-.28.58-.1.39.58-.19 1.23v.47l.33.52.64 1.07 1.74 1.15 1.28.13 1.59-.53 1.32-.43 1.06.19 1.39 1.6-1.28 1.05v1.4l1.15-.21.91-.16 3.2-.58.35-.06h.13l1.91.44 2-.79 1.25.34 2.19 1.07.73.72 1 .54 3.64 1.34 2.47 2.06 2.63 3.32 1.79 1.26 2.36 1 3.86.18 5.72-1.26.9-.44 2.4-.36 2.53.18 1.12.45L438 450l3.75 1.25 1.85 1.26.79.63.44 1.07.68.72 1 2 1.18 1.71 2.38 1 1.48.09 2.25 1 3 .44 2.3.63 1.73 1.35 1.24 1.52 3.57 2.69 2 .9 1.4.18 1.24-.18 4.14-1.53.84-.62 3.2-1.08h1.29l4.14-1.61 2.69.27 2.52-.27 2-1 2.13-2.24 1.79-3 1.91-4.57 1.51-5 1.56-3.14 1.46-1.61L504 441l.9-.35 2.35-2.15.9-2.42 1.18-1.71 1-.72 1.18-.26 2.74-1.44 1.76-1.31 2.61-1.83 1-.36 1.68-1.34.73-.26.72-.35 2.37-1.36 3.92-1.8 2.07-.56.4-.18 1.73-.78 2.69-1.61.79-.72 1.28-.52 1.51-1.09 2-1.82 1.86-1.95 1-.73.53-.65 1.95-1.57.56-.36.35-.61 1-1.11 1.93-2.94 1-2.24 1.07-1.62.84-.71 1.29-1.8.5-1.07.68-2.51 1-2.33 1-3.95 1-2.33.61-.9.9-2.42-1.1-4.51-.58-5.89-.62-2.15-3.28-4.26-.16-1.17-.57-1-1.9-1.16-1.35-.27-3.12-1.7.66-.45 5.49.36 2.52-.28 2.53-1.78-2.24 1.17-1.12-.27-.9-.72-.33-1.16.39-1.17.89-4.21v-1.35l-2.29.36-10.77-.18-6.33.36-16.14-.18-2.85-.36-.94-1.22.29-.17-.06-.1-1.86-2.87v-.06l-3.63-5.6-1.69-1.45-2.94-4.16-.69-.06-.63-1-.38-.57-.7-.09-.35-.05-1.09-1.08.74-1.28.1-1.31.21-2.59.27-14.84.05-2.58-.37-3.69.87-4.19.82-3.88.43-.64 12.48-18.22 2.81-.34 2.12-.84 4.48-.36.61-.41h.06l-.16-.56-.15-.54-.22-.07-.47-.18-3-1.11-4.26.13-2.8.56-.74-3.23-1.86-2.4-1.3-.13-1.86 2-3.41 1-2.28-.18L503 275l-2 3.94-4.7 1-2.51-.24-15.4-6.7-1.83-.12-2.35-.17-4.53 2.15-4.29-1.7-4-3.37-1.23-1-1.53-.56-2.48-5.86.8-2.22 2.9-3.09 2.27-1.07h1.6l1.57-1.14.73-1.41-.33-5.38-1.69-3.74.37-.67 1.89-.91.42-1.57-.49-2.2.74-.65.11-2.46-2.45-8.38.71-5.91-.45-3.83-1.32-1.45 1.56-1.87-.38-3-1.91 1.27-1.43-1-1.29-3.22.6-1.82 3.06 1.23.29-.74-1.03-2.64-2.31-5.72-.36-2.77-.37-2.82.87-2.68 3.14-3.75 1.84-3.64 1.36-8.66-.33-4.94.67-1.26 2-.29-1.17-2.75 2.18-6.17 2.52-4.24 5.35-5 5.75-4.45.33-.24 1.34-1 .31-.22 2.43-1.13 1.36-.64.15-.15 6.18-6.51.29-1.63 1.64-2.61 5.84-4.44 3.35-2 10-2.27 2.74.16 1.59-1.28 2.23-.4 7.83-4.7 6.12-3.68 4.59-1.46L544 110l5.12-2.14 1.75-1.42 6.36-2 4.21-2.64 2.29-.9 6.28.38 8.16-3.5 4.22-1.29 4-.52 5.66-1.72h3.31l4.76-.85 3.24.34 1.22-1.11 9.21 1.79h.21l3.69-1.55s-.47 3-.62 3.75a13.08 13.08 0 0 0-.07 3.29c.15.58.36.22.72.79a3.86 3.86 0 0 1 .43 2.22 19.77 19.77 0 0 0-.07 2 8.5 8.5 0 0 0 .85 2.58 6.45 6.45 0 0 1 .36 2c.05.57 0 1 0 1.93a3.38 3.38 0 0 0 .72 2.5c.71.93 1.57 2.08 1.86 2.36s1.17 1.06 1.64.79c.23-.13.5-.22.07-.86s-1.86-2.22-2.21-2.64a4 4 0 0 1-.65-2.51c.08-.44.5-1.14.86-1.21a4.52 4.52 0 0 1 2.29.78 3.75 3.75 0 0 1 .78 1.36c.29.7.22 2.15.65 2.43s.78-.14.78-.57-.32-2 .15-2.64a1.52 1.52 0 0 1 1.29-.5c.51.07 1 .69 1.35 1.07a8.72 8.72 0 0 1 .72 1 5.64 5.64 0 0 0 1 1.43 3.4 3.4 0 0 0 2 .57.87.87 0 0 0 .58-.28.72.72 0 0 0 0-.5c-.22-.55-1.12-.89-1.36-1.43-.12-.28-.25-.76-.07-1 .47-.63 1.88-.19 2.57-.57a3.12 3.12 0 0 0 1.5-1.5c.08-.27 0-.78-.21-.93-.4-.24-1.05.26-1.5.36a5.07 5.07 0 0 1-1.36.28c-.51 0-1.53-.13-1.57-.64s1.32-.77 1.85-1.15c.29-.2.82-.38.93-.71a1.79 1.79 0 0 0-.42-1.51.87.87 0 0 0-.72-.21c-.64.22-.73 1.48-1.29 1.86a3.93 3.93 0 0 1-2.86.64 2.37 2.37 0 0 1-1.14-1.21c-.25-.51 0-1.4-.29-1.86a3.79 3.79 0 0 0-1.72-.93 12.62 12.62 0 0 1-2.43-.57c-.35-.21-1-.6-.93-1s1-.6 1.5-.71 1.37.41 1.65 0-.27-.94-.5-1.29a6.26 6.26 0 0 0-1.58-1.5c-.46-.3-1.41-.24-1.71-.71a2.2 2.2 0 0 1 .07-1.65 5.72 5.72 0 0 1 .93-1.29h1.79l.78.5a15.45 15.45 0 0 0 1.43 2.44 7.51 7.51 0 0 0 2.72 2 3.4 3.4 0 0 0 1.79 0c.46-.14 1.22-.4 1.36-.86a1.68 1.68 0 0 0-.65-1.5 13.72 13.72 0 0 1-2.28-.79c-.29-.21-1.36-.5-1.51-.85s-1.43-1.15-1.43-1.15l-1.93-1.07-.71-.57.61-1 1.11 1.23.16.18 5.83-1.59.49-.13.7-.19.66-.29 1.64-.76 7.11 2.62 3.4 2.34 2.49 2.86 4.68-3 9.38-3.69 1.38-.72 9.39-1.22 4-1 .86-.22 4.85-.68 3.78.5 9.4-1.37 3.53-1.8 6.24-1 2.82-1.87 4.34-1.53 2.16-1.41 4.54-1.93 11-2.8 5.48-.31 5.79 1.11L746 77l2.49-1.31 1-.52L752 76v2l-2.23 2.07 1.15 1.18 4.33.14v-.86l-1.55-.9-.08-.52.13-.29.57-1.32 1.23.14 7.09 4.88-.81 2.48.23 2.73-1.06 4.15.09.13 1.18 1.65 1.88 2.65v3.84l3.13 11.65 4.62 3.11 4.45 4.28 5.22 1.65 1.53 1 .69 1.25 1.63.26 1.76.27.15.89.92.89 2.53 1.11 9.55 1.41 1.19.18h.09l3.46-2 .4-.22.08.42.14.75-2 2.34-.22.53 1.13 4.65-.78 4.5 3.82 3.7 2.15.82 3.83.61 5.28 2.17 1.32-.66 3.52 1.64 5.12.24"/><path class="path2911" d="M887.58 7.89C886 6.72 884.29 5 882.14 4.32a13.9 13.9 0 0 0-3.65-.32c-3.89 0-7.8.38-11.68.38-3.72 0-7.43-.92-11.19-.76a64.21 64.21 0 0 0-9.17 1.05c-2.46.49-2.2 1.94-3.26 2.46-1.52.75-6.4.91-9.29 3.12s-1.8 3-3.37 4.55-4.78 2-6.45 3.78a38.45 38.45 0 0 0-2.31 3.42 25.19 25.19 0 0 1-2.9 2.75 29.06 29.06 0 0 0-2.6 3.47 5.69 5.69 0 0 1-.95 1.07c-4 3.48-11.16 3.63-11 10.61.12 3.53 3.34 4 5.69 5.39.72.44 1.05 1.27 1.65 1.8s1.62.7 2.19 1.23l-1 2.6s-1.87 2.19-2.66 3a16.32 16.32 0 0 1-3.19 2.35 3.09 3.09 0 0 1-3.8-.27c-.47-.62-.47-1.72-1.41-1.56s-1.25.47-1.72-.63-2.82-2.82-3.61-2.35a2.11 2.11 0 0 0-1.1 2.67 13.66 13.66 0 0 0 1.73 3.29 6.71 6.71 0 0 1 .78 2.19l-.1.85c-1.22 1.94-1.29 4-2.34 6.21-.63 1.36-1.81 1.79-2.19 3.5-.52 2.4-.08 5-.59 7.48-1.17 5.6-3.14 11.85-3 17.61 0 1.17.62 2.47.65 3.7 0 1.42-.46 2.74-.24 4.16a17.61 17.61 0 0 0 1.54 5c1 1.92 2.47 2.48 3.81 5.9a4.16 4.16 0 0 0 .67 1.2 10.21 10.21 0 0 0 .85 1c3 2.29 10.73.28 14.44-.1 5.36-.56 7.42 2.63 12.49-.29a38.76 38.76 0 0 1 4.14 1.23c1.53.37 3.05 0 4.56.19a49.66 49.66 0 0 1 5.32 1.61c2.51.81 3.09 2 6.1 2.09s10.15-.14 12.37 1.32 2.86 4.73 3.91 7c-.58-.23-1.3-.25-1.84-.48-2.09-.87-2.38-3.71-4.38-4.73-2.2-1.13-4.79-.46-7.1-.57-2.81-.13-7.52-1.82-9.76.57-1.43 1.52-1.13 3.13-2.13 4.73a17.82 17.82 0 0 1-1.66 1.71c-.11 1.48 1 2.87 1 4.45.1 3.17-1.69 8.62-3.9 11-.4.42-1.43 1-1.72 1.56"/></g><g class="layer5" fill="none" stroke-linejoin="round"><path class="polyline2871" d="m647.48 196.21-4.82-2.33-3-2.78-2-1.26-2.58-.53-3.75.44-3.19-.54-2.19.1-1.4-.45-.67-.54L619 182l.22-1.43-.11-8.61 1.12-2.87 4.76-6.45.4-.36 1-.09 1-1.52 2.13-2.51 1.12-2.42.16-1.8-.72-2.24-1.68-1.79-.4-.81.11-.63.73-.62 1-.18.84-.72 1-1.79v-2.06l.56-2.25.78-1.34 2.24-1.26-.22-1.52.06-2.69.33-.72.68-.63 1.34-.45.62-.53 2-3 2.92-1.44.78-1-.23-.27-2-.54-.68-.63-.17-2.51.9-5.29.5-1.52-.56-.45-4.65-1.61h-.89l-.51.27-1 .9-.95.35-1-.18a8.61 8.61 0 0 1-.94-1c-.59-.83-.84-2.27-1.51-3a6.45 6.45 0 0 0-2.2-1.51 21.6 21.6 0 0 0-4.33-.75l-1.24-.35-1-1-1-1.39-.94-3.51.07-2 1.46-3.32 1.93-3.18.57-2.35"/><path class="polyline2873" d="m647.48 196.21-.06.62-1.29 4.31 11.66 4.21.06.54-1.12 9.05.05.63 6.39 4.66 1.01 1.26.84 1.88 5.66 8.25 2.75 4.48-.73 1.53-2.69 4.03-1.24 2.24-2.01 2.87-.73 1.79-7.28 5.03-4.38 2.51-3.53-3.59-2.91-2.33-9.42-.63-5.66 5.38-2.35 3.41-1.01 1.79-7.06 4.12-6.61 4.67-3.98 3.31-.66 1"/><path class="polyline2875" d="m805.46 278.42-1.35.45-1.85.09-.28-.72.05-2.6-1.51-.45-4.14-4.84-.56-1.7-.23-.18-5.21-.72.05-.63 1.24-3.4.17-.9 1.9-4.21 1.57-2.87.45-1.44-1.46-.09-2.46-.62-3.59-4.66-.9-1.62-2.85-3.85-7.57-8.97-5.04-7.44-1.69-1.71-4.59-3.94-1.85-1.97-.95-.63-3.08-3.5-3.76-3.67-1.96-1.53-6-5.91-11.99-13.18-3.25-2.87-4.73-.45-2.83-.18-3.07.67-1.75.85-1.24.28-6.89 2.68-.34-1.52-1-1.16-.62-2.34-2.18-3.4.16-1.08-.16-.36-2.58-2.87-.51-.27-1.85.18-1.85-4.12-1.9.63-.9-2.25-1.46-2.42-1.9-2.86-1.57-1.71-1.52-2.24-2.18.27-1.06-.99-.51-.18h-1.06l-1.07-.36-1.51.09-.67-.26-1.07-1.71-1.29-.98-.56-.27-1.56.09-1.57.53-.45.9-.23.99-.33.45-2.02.89-.56 1.17-1.07 1.43-.61.45-2.69 1.35-3.09.89-.39.72-.84 2.51-.84 1.17-3.08 2.33-.5.62.27 1.71-.67 2.15-3.58 7.35-.34 2.15-.45 1.26-1.29 1.43-2.41 5.47-5.32-1.61"/><path class="polyline2879" d="m611.18 273.23-.18-.1-2.47 1.88-5.15 2.06-1.63.18-4.14-.71-1.29.62-1.63 1.26-.11.45.5 1.07.56.45-.05.63-1.68 1.61-3.09 1.44-1.17-1.17-1.12-.36-1.8.09-2.69 1.35-.72-.45-1.07-.18-1.68-2.6-1.85-3.41-.34-.98h-.28l-1.46.45v1.52l-.27.54-.45.27-.9.09-1.12-.63h-1.29l-2.47 1.08-.61.62v1.08l-1.91 3.05-.73.71-2.74 1.62-1.29 1.34-2.35 1.26-.79.09-2.63-.99-4.26-.27-1.06-.27-2.3-2.24-1.35-.36-.73.18-5.71 3.77-.24-.25"/><path class="polyline2881" d="m729.9 346.37-.6.09-1.74-.35-.17-.45-.17-3.86.96-1.79-.06-.36-2.52-1.52-13.45-6.28-1.79-.54h-1.07l-3.47.81-3.93.54-5.66 1.7-6.66 6.1.11 2.06.95 7.09v1.25l-.5.54-2.64-1.71-1.85-.71-3.75-.9-1.35-1.52-1.06.08-.9 2.61-.73.53-1.62.09-.96-.36-1.4-.98-.89-2.42-.56-.54-1.23.63-.34.62-1.35.81-1.29.36-2.41 1.17-2.13.71-.55-.09-.68-.53-2.07-5.56-1.12-1.79-1.74-1.89-1.74-1.34-1.06-1.17-1.4-1.17-.67-.18-.34-.35-.22-.54-.06-1.53-.23-.53-1.06-.63h-.9l-4.59 1.07-1.35.09-1.29-.62h-1.34l-1.29.36-3.25-2.24-1.63-1.89-2.01-.36-2.52-1.7-1.91-.54-1.23.9-.9 1.34-.9.9-1.17.54-.56-.36-1.01-1.26-1.4.18-.45-.27-1.85-3.22-.9-.63-.55-1.35-.51-2.06-1.01-2.42v-.36l-1.85-3.49-2.47-6.19-.5-1.43-.16-1.17.05-1.16.45-.9.67-.72 2.08-.89 3.58-.99 4.09-3.85 4.32-3.5 1-1.26-.27-.98-2.13-3.41-10.77-10.67-1.01-1.17-1.45-3.13-.66-.53"/><path class="polyline2883" d="m555.8 352.75.11-.46 4.09-1.52.84-.63 3.03-1.26 17.02-12.04-3.57-2.92-6.67-.54-.45-.45-.22-.99.5-.71.73-.27 1.57-1.89 2.52-1.79 1.63-1.61-2.75-4.93-1.85-2.87-2.58-8.52-1.23-2.42-2.52-2.6-3.42-2.51-3.58-3.32-2.53-1.7-2.13-.81-2.35-.45-2.07-.09-2.47.36-2.63-3.22-3.38-3.57"/><path class="polyline2887" d="m342.07 475.75-3.36-.18-.9.26-1.35 1.44-2.91.72-1.57.8-.78.81-1.57 2.6-2.24-2.51-.34-3.86.06-2.23-2.49-.89-5.75 3.12-.9.1-1.35-.36-4.7 2.24-2.92 1.79-1.56.45-4.71.36-2.08-.54-.28-.45-7.9-1.25-.78-1.53.06-1.25.5-1.08 2.07-2.69.51-1.08.72-3.58v-2.51l-.28-1.7.28-.81.34-.54 2.58-2.24 1.63-1.97 2.63-6.63 1.85-3.06-4.2-1.34-1.4 1.16-.79.18-1.23.81-2.08.36-4.09-1.43-9.32-4.16"/><path class="polyline2889" d="m738.49 511.67-7.29-.33-2.07-.45-2.08-.9-7.22-1.61-1.07-.63-.39-.36.28-.71 1.29-1.62 1.12-2.24.05-1.17-.67-2.59.12-1.35-.23-1.25-.67-.9-3.08-1.43-2.3-.45-1.57.26-.73.19-2.3 1.52-2.86.45-.5-.36.28-1.26v-1.61l-.62-1.88-.56-.63-6.05 1.34-1.85.18h-1.46l-5.15-.89-2.8-.09-3.65.62-2.35-2.06-1.96-1.34-.84-2.78-2.75-2.24-3.25-4.22-2.8-4.3-1.51-3.41-.17-.8.17-.72-.11-.27-2.75-.09-.73-.27h-3.36l-1.68.99-2.08.53-1.73.09-2.58 1.26-.79.81-.39 1.88-4.59.36h-2.19l-1.96-.27-.62-.36-2.57.09-1.18.63-8.12-.54-4.32-1.08-3.03-1.16-2.63-.54-.9.27-.95.72-1.96 2.06-.28 1.35-.23.35-.5-.09-1.57-1.52-.79-.36-.78-1.08.06-1.61 1.45-2.24.17-.9-.17-.54-.33-.35-4.37-.81-.9-.72v-.99l.79-1.34h.95l.22-.32-.89-1.11-.57-1.71-.55-.62-.4-1.62-.89-2.15-.73-2.6-1.45-3.04-1.41.26-2.02-.09-.78-.98-1.24-4.4-.22-.36-2.13-.62.79-2.07 1.23-6.63.06-.99.27-.62 2.24-.9.57-.54.18-.47-2.42-2.04-.34-.72.11-.8.67-.45 1.74-.54 3.87-.54 2.07-1.34.67-1.52.73-2.78.97-1.4-1.58-1.23-1.97-2.04.65-1.92.04-2.3 1.05-2.59-1.17-2.15-2.13-2.34-.34-.8-.06-3.32-.22-.89-1.74-3.77-2.91-2.69-3.98-2.87-.39-2.87-1.13-2.24-1.9-1.43-2.51-1.1-2.03 1.28-1.29-.36-2.97 2.42-2.52 2.42-2.3 2.69-1.51.9h-.45l-1.17-1.53-2.25-.09-.5.45-.73 1.43-2.52 1.62-.5-.81-.96-2.33-1.57-2.51-2.35-4.93-2.58-3.59-1.96-.98-1.87-.03"/><path class="polyline2895" d="m388.58 596.42 2.86-.23 2.74.23 1.32-.62.5-.61-.66-.82-1.26-.72-.44-1.23 1-1.4 1.51-.27 2.85-.25 1.06-1 .74-1.49.22-1.43.62-.65 1.52.31 1.51-.11 1.37.09.85-1.24.17-1.25.9-1.79 1.74-2.51 2.41-4.85 1.46-2.46 4.08-6.87 2.13-4.56s2.65 2.85 4.53 2.85 4.37-1.5 4.75-3.25 2.5-4.25 3.87-2.75 4.25 3.88 5.88 4.38a28.08 28.08 0 0 0 3.5.87 6.86 6.86 0 0 1 3.12 1.25c1 .75 4.75 1.38 6.63-1.12s4-3.75 5.25-2.88a5 5 0 0 0 4.37.5c1.25-.5 6.38-2 7-2.5s2.75-3.87 5.75-2.87a13.42 13.42 0 0 0 5.5.75c.88 0 4.63.75 5.88 2a12.53 12.53 0 0 0 3.87 2.25c1.25.62 3 .5 3.75 1.87a8.47 8.47 0 0 0 5.25 3.75c2.25.38 4.63.63 5.5 1.5s1.88 1.75 1.88 1.75l3.12-1.75.25-1.12 1.25-.13a12.18 12.18 0 0 0-.37-2.37c-.25-.63-1-2.13-1-2.13a8.85 8.85 0 0 0 .87-1.87 2.2 2.2 0 0 0-.5-1.75c-.37-.5-1.62-1.5-1.62-2.5a16.52 16.52 0 0 0-.25-2.38l-1-1.12-1 .12-2.5-2.62v-2.25l-1.25-.88 1.12-1.25v-1.5l-.75-1.25.63-2.25.12-1.25-4.5-2 .63-2.5-3.38-.37 1.25-6.38a11.12 11.12 0 0 0 .25-2 9.1 9.1 0 0 0 0-2.62 6.75 6.75 0 0 0-1.5-1.38v-3l-1.25-.12 1.25-1.25-1-1.88-4 1.13 1.88 1.5-.25 3-1.38-.38-1.37 1.25 1.62 1-2 1.5a4.66 4.66 0 0 0-1.62-.12 3.44 3.44 0 0 0-1.75 1.25c-.38.5-.5 1.25-1.5 1.25a4.51 4.51 0 0 0-1.75.25 11.88 11.88 0 0 1-1.25.25s-2.13-1.38-2.5-1.5l-.38-.13-.62-1.25a3.7 3.7 0 0 0-1-.25c-.38 0-1.38-.75-.13-1.25a6 6 0 0 0 2.25-2.12l2.63-1.5-.25-3.88a16 16 0 0 1 1.75-1.37.83.83 0 0 0 .12-1.38 3.48 3.48 0 0 0-1.12-.62s2.62-.38 2.87.12 1.38.25 1.13-.12a4.17 4.17 0 0 1-.38-1.25l-1.62-.13a2 2 0 0 1-.25-1.25c.12-.62.37-2.12.37-2.12l2.75-.5.38-2-3-1v-2.25l-3.25-1s.62-2.13 0-2.88a4 4 0 0 1-.75-1.87l-7.13-.88-.62-1-.24-10.79-6.13-5.37-.62 2-2.63-2.38 2.37-9.93"/><path class="polyline2895-2" data-name="polyline2895" d="m385.35 606.91 3.23.56.54-4.65.32-1.26-1.82-.31-2.09-.09-1.28-.41-1.42-.59.01-2.35-.53-2.01 2.33.91 1.99-.33 1.95.04"/><path class="polyline2897" d="m555.71 626.25.99-.51.28-.72.5-3.86 4.88-1.07.67.27.73 1.43 2.86 3.59.33 1.34.67.81 3.42 1.07.5 1.53.57.81.5.09 3.92-1.29"/><path class="polyline2899" d="m555.71 626.25-3.83.2-6.73 1.53-4.59.54-1.57.53-1.51-.26-.96-.54-1.57-1.44-2.12-3.67-1.58-1.44-1.28-.36-2.75-.09-1.29-.35-.61-.81-.73-2.06-.62-.9-2.74-.54-3.26-1.61-1.4-1.53-2.24-4.84-2.41-1.88-8.12-3.14-1.35-.09-4.88.45-2.35.54-1.01.45-1.46 1.52-.94.45-1.24.18-1.18-.18-3.53-2.69-1.9-1.17-1.34-.09-1.13.27-.73.81-.44 1.17-1.97 2.69-1.79 1.07-2.07.72-2.47.18-1.46-.18-1.29-.36-2.23-2.42-1.18-.18-.84.63-2.19 2.33-.56.98-2.07 2.51-1.8 2.87-1.57 3.14-.89 5.83-.34 1.34-1.17 1.89-.73.8-1.01.45-3.25.81-4.77 2.42-1.11.27-2.53-.18-4.82 1.97-1.18-.18-2.68-1.97-1.12-.45-1.52-.18-3.42.63-6.84-.45-4.76.63-1.12.35-3.75.19-1.12.27-.51-.36.06-.9.34-.8 3.02-3.59-.44-.36-.34-.72v-2.51l.17-1.25-.23-.27-5.27-3.14-1.17-1.17-.79-.44h-1.12l-3.47 2.06-.96.18-.95-.27-3.86-4.93-1.85-1.8-4.88-2.42-.78-1.16-.28-1.53-.04-1.34"/><path class="polyline2901" d="m309.81 639.74 2.4-.87 2.38-.66 2.34-.67 2.01-1.65 1.97-1.17 3.45-2.53 2.3-2.06 3.53-3.86 1.06-2.06.56-2.24.67-1.53 2.41-2.95 1.07-.99 4.44-2.06 3.35-.63 5.55.36 3.53-.54 2.91-1.34 6.78-5.02 3.87-1.79 3.42-.72 1.23-.09 4.32.45 9.99 1.79"/><path class="polyline2903" d="m237.96 749.58-.13-.84-.55-.99-.68-.35h-1.34l-.23-.27v-.36l.67-.81.12-.63-.06-2.78-.5-1.97-.56-1.34-.39-2.87.5-1.44 1.74-1.7-2.5-7.73"/><path class="polyline2907" d="m555.71 626.25 1.44.29 2.29.99 1.4 1.52.73 2.06-.22 4.04.28 1.08.62.8 1.73 1.35 2.58.72 2.74.17 1.18-.17 1.18 1.07 2.8.63 1.51.71 1.24 1.71.28 1.07.22 2.43 1.46 4.12.36 2.75-.18 2.29.24 2.53.41 2.24.59 1.47.88 1.18 1.9 1.17 3.42 1.43.95.63 1.24 1.7.5 2.15.5.72.56 2.15.45 3.5 1.35 2.96 1.85 2.51v1.07l-.73 2.51.28 1.08 1.15 1.81-1.49 1.69-1.06-.27-.51 1.25-.5-.26-2.8-2.96-1.01-.63-1.18-.27-1.07.09-4.42 1.43-6.45 2.87-4.65 1.26-1.56-.1-.84-.35-3.54-2.78-.78-.27-1.46-.27-8.57-.45-.67-.27 2.01 11.57.79 8.07 1.73 3.85.23.9 2.13 13 2.8 4.93 4.87 6.01 5.16 10.22-1.85 1.97-4.54 3.32-5.54 4.84-9.59 2.42-12.44 4.3-7.06 1.7-7.56 2.78-4.38 1.26-1.4 1.61-8.07 12.73.12 4.31-.84 8.25-4.37 2.51-1.63-.45-3.77 1.07"/><path class="polyline2877" d="m541.44 289.02-.77-2.62-.28-1.97-6.95-6.91-3.81-.45-1.46.54.06.48"/><path class="path3089" d="M229.13 704.92s1.66-6.67.53-9.56-5.14-5.29-6.38-7.45-2.38-4.07-2.65-6.38a12.56 12.56 0 0 1 1.06-6.91c1.09-2.51 5.85-7.44 5.85-7.44"/><path class="path3195" d="m447.59 458.62-10-1.86-4.63 8.87-4.25 9.63-1.5 7.12-4.75 9.25-14.37-1.25-15.5 4.88-.75-5.75-1.75-.13.87-4.37-3.25-1.13.25-1.25 3 .75-.12-2.25a44.73 44.73 0 0 1-.25-4.5c.12-.37 1.12-2.25 1.12-2.25l3.38-2.12-2.25-2.5s-.25-2.63-.38-3.38-1.12-1.5-1.25-.62-.62 1.37-1.12 1-1.13-.75-.5-1.5a1.52 1.52 0 0 0-.13-2.13 1.68 1.68 0 0 1-.87-1.25c0-.37-1.38-1.75-.25-1.62a1.81 1.81 0 0 0 1.87-1c.38-.5.63-1.38 1.5-1.13a6.64 6.64 0 0 0 1.63.25l.62-1.12 1.63-1.38.5 1.88 1.25-.38-.5-2.12-1.38-1.13-3.37 2.5-2.88-2.12-1.5 2.25.13-6.88h-2.25s-1.63 1.25-1.75 2a13.37 13.37 0 0 1-1.25 2.63l-2.75-.38-2.5 2s.25 1.25-.63 1.63a8.69 8.69 0 0 1-3 .37c-.75 0-2.37.5-2.87-.12s-1.25-1-1.75-.75a1.09 1.09 0 0 0-.63 1.12c0 .5.5 2.88.5 2.88l-1 .37-.12 1.75-1.13.13-.12 1.37-1.63 1.63a1.6 1.6 0 0 0-1.5.37c-.5.63-1.37.13-2-.37a2.13 2.13 0 0 0-2.25-.13c-.37.38-1.5.75-1.87.25s-.5.13-1.13.5-2.5 1.75-2.5 1.75-.12 1.75-.75 2.25-3.5 2.13-4.37 2.63-2.88 1.5-2.88 1.5l-2.12-.38-1.5.87"/><path class="path3197" d="M388.58 596.42c.13-1.84-.45-1.91-.7-2.29a2.17 2.17 0 0 1-.31-1.12c0-.25.44-3.69.44-3.69l-5.63 2.81s-.19-.87-.25-1.37.19-.75.5-1.32a3.68 3.68 0 0 0-.12-2.68 3.29 3.29 0 0 1-.25-2 17.52 17.52 0 0 0-.19-2.38l-4.31 2.06-.06-3.75-1.75-.81-.07-1.12-1.75-.63-1.62-6a2.44 2.44 0 0 0-.75.63 11.12 11.12 0 0 1-.81 1l-1.5-6.19-1-1.18c-.58 1.25-1.34 2.46-2.23 2.61-1.5.25-7.75 1.88-7.75 1.88l-1.25-5.63s-2.25-4-3-4.87a23.16 23.16 0 0 0-2.5-2.25l-5.5-7.88 7.87-2-2.12-4-1.63.38-2.62-.38-1.38 1.63-3-.25-.87-2.75 2.37-1.63-.75-2s2.38-.62 2.75-1.87a29.33 29.33 0 0 1 2.13-4.13l3.37-2.37 4.38-1.5.75-2-6.38-.13-2.12.88.75-2-1.63-.75-1-9.63.91-.75-7.25-5.5a14.69 14.69 0 0 0 2.5-.37c.75-.25 1.37-1.88 1.25-2.75s-.25-1.75.62-2.13 2.75-1 2.75-1 1.13-.87 2-.25 1 1.38 1.75 1.38h1.5l.75.75a12 12 0 0 0 1.88-.13c.5-.12 1.87-.5 1.87-.5l.13-5.62 3.5-2-7.5-6s-2.88-.25-3.25-.88-3-3.5-3-3.5v-1.12l-1.88-1.88h-2.25l-.12-5-1.13-2.76"/></g><g class="layer4" fill="none" stroke-linejoin="round"><path class="path2799" d="M587.46 949.75a7.56 7.56 0 0 0-.57 1.7c1.2 1.85 4.56 1.7 5 3.86-.28.76-.85 1.36-1.11 2.13-.46 1.37-.91 5.5.67 6.11a6.9 6.9 0 0 1 2-.19c.67-4.14 4.75-2.42 7.56-2.13 1.07.11 2-.13 3.08.35l.46.62a2.45 2.45 0 0 1 1.61-1.61l.78.1c1.46 1.3 1.15 3.64 2 5.27 1 .95 1.19 2.44 1.79 3.6 1.81 3.48 5.52 9.91 8.06 12.74.52.57 1.44.66 2 1.32l.22.89-.38.74c-.73.48-1.69.34-2.31 1 1.11 2.23 3.15 3 1.13 5.92l.22.64a2.48 2.48 0 0 0 2.25.61c2.22-5.44 8.14.65 13.61.1 1.24-.13 2.5-.78 3.76-.62 2.56 2.77-3.42 5.82-3.74 7.62"/><path class="path2801" d="M828.82 147.52c.45.68.81 4.34 1.06 5.47 1.11 5 1.41 10.45-.89 15.24-.6 1.26-1.84 2.05-2.35 3.41-.59 1.55-.08 3.48-.62 5-.68 1.89-1.57 2.93-1.73 5.11-.47 6.12 2.9 5 3.64 8.33.51 2.29-.11 6.09-.18 8.52 0 2.07 1.36 21 1.75 22.16.09.28.69 1 .88 1.35.22 1.27-1.8 3.52-1.56 5.54-.79 2.69-1.11 5.21-1.62 7.71-.26 1.32-3.92 11.47-4.54 12.55-1.67 2.89-4.22 5-5.89 7.81a14.89 14.89 0 0 0-.95 2.41 21.82 21.82 0 0 1-3.14 4.86c-2 2.59-4.66 4.62-6.33 7.43a8.7 8.7 0 0 0-1.3 6.08c.68 3.56-3.24 5.82-4.2 9.07a21.85 21.85 0 0 0-.16 3.24c-.9 6.27-.38 11.61-.78 17.7-.12 3.1 0 6.22-.29 9.28-.29 3.39-.91 6.76-1.17 10.13-.21 2.82.31 5.64.22 8.43-.06 2.32-1.61 8.7-3.87 9.75-5.3 2.47-8.69-4.73-12-3.93-.68.48-1 1.23-1.68 1.71-.34.1-9.62.58-10.36.52-1-.44-2.11-3.54-3.65-4.22a6.35 6.35 0 0 0-1.52-.35 38.57 38.57 0 0 0-4.58.73 91.69 91.69 0 0 1-11.72.52c-4.22 0-5.06-3.05-10-.71-3.47 1.63-6.3 6.58-8.74 7.08l-.39.9c4.24 5.54 1 6.79.28 12.64 1.25 1.82 6.78 3.53 8.18 6.56l-.27.8c-1.27 1.31-4.92.27-6.62.36-1.24 1.41-.63 2.17-1.24 3.22-1.25 2.14-4.44.3-6.1.54l-.28.9c.82 1.44 2.27 3.29 2.74 4.83a41.15 41.15 0 0 1 .55 11 21.26 21.26 0 0 0-.55 3.12 7.46 7.46 0 0 1 .62 1.52c2.61 1.78 7.06 4.53 9.07 6.81 4.73 5.38 16.34.75 20 1.9.89.65.81 2 1.73 2.67a5.87 5.87 0 0 0 1 .5 3.26 3.26 0 0 0 1.2.3c2.44.23 4.69 2 7.06 2.54a31.83 31.83 0 0 0 3.2.26c1.67.22 4.67 2 6.21 1.44 2.8-1.05 5.17-5.77 6.67-8.07l.73-.35c2.45.85 5.11 11.29 6.27 13.61a7.4 7.4 0 0 0 2.71 2.84c5.66 3.73 5.85 2.65 6.94 9.9.35 2.32 1.23 5.4.9 7.71s-6.14 11.63-6.9 14.7c-2.35 9.55-2.6 10.54 1.61 19.36a22.68 22.68 0 0 1 1.69 4l-.1.61c-2.6 2.61-8.29 2-11.84 2.61-3.7 3.2-4 10-7.16 14.18-1.51 2-9.93 2.9-10.93 3.48-1.45.83-2.07 3.6-3.08 4.85-.76.94-1.69.78-2.31 2.15-1.44 3.19.25 7.69-3.42 10-3.49 2.24-17.71-1-20.39 1.87a4.7 4.7 0 0 0-.46.64c-.59 1.34-.78 2.81-1.45 4.21a6.59 6.59 0 0 0-.34.71c-.44 1.73.25 3.12-.78 4.86-2.26 3.81-8 2.28-10.13 4.31-.65.6-1.13 4.34-1.13 5.27 0 1.09-.52 3.58-.12 4.4l.69.46c7.64-.71 6.18.25 11.81 4 4.66 3.14 8.28 3 11.84 8a23.18 23.18 0 0 0 3.52 3.69c-.14 2.49 1.82 4.84.57 7.46-1 2.12-3.6 1.2-5 2.76s-1.31 6.92-3 9.33-5.27 3-7.34 5c-.58.56-.77 1.45-1.29 2.06-.81.39-4.86 2.74-5.22 2.7-2.09-.95-4-1.72-5.44-3.6-.45-.59-.81-1.46-1.62-1.71-2-.62-3.56 1.54-5.21 2.35-2 1-9.67 2.1-13.11 3.5-2.47 1-4.66 3-7.23 3.77a8.13 8.13 0 0 0-2-.29c-1.55 1-2.67 2.72-4.32 3.5-1.45.68-3.35 1-4.65 2-2.92 2.14-.52 2.56-5.83 4.21a5.69 5.69 0 0 1-2.59.55c-.52-.63-2.19-2.49-2.95-2.61a11 11 0 0 0-1.91.29 38.11 38.11 0 0 1-5.39-1.45c-1.07-.4-2.07-1.26-3.3-.71l-.28.9c.46.88 1.16 2 1.51 2.87a63.48 63.48 0 0 1 .4 9c-.86.24-1.83-1-2.85-1-1.68-.07-4 1.4-5.55.8-.24-1.6.81-3.26.44-4.47-1.52-1.76-6.26-3-8.47-2.79a26.12 26.12 0 0 1-2.69.54c-1.22-1.67-1-3.21-2-4.66-.76-1.16-2.93-3.4-4.44-3.15-.83.14-1.42.89-2.23 1.09a18.11 18.11 0 0 1-3.14.16c-3.48-.23-8.37 2.09-10.31-1.77-.38-.77-.43-1.66-.84-2.44a5 5 0 0 1-1.45-.8 18.51 18.51 0 0 0-1.18-3.22 15.4 15.4 0 0 0-4.55-3.31 3.14 3.14 0 0 0-2.35.8 5.09 5.09 0 0 1-2.35.9c-1.24.11-2.92-.22-4 .16-.44.75-1.28 1.32-1.29 2.25.51.81 2 .81 2.75 1.51 3.3 3 2.07 3.35 3.64 6.2 2.25 4.07 5.84 1.65 5.72 7.63 0 .68 0 1.92-.61 2.41-5.2-2.73-11-2.88-16.54-4.66-2.14-.69-3.68-2.31-5.55-3.41-1.53 4.63-1.09 2.85-4.09 5.21-1.52 1.21-4.44 4.68-6 5.18-4 1.31-7.28-2.31-11.94 1.8v.64a5.26 5.26 0 0 1 1.45.8l-.32.55a4.89 4.89 0 0 0-1.47.8l-.34.71.28.81c6.75 1.36 2.62 5.35 5.38 8a2.34 2.34 0 0 1 1.69.54c.2.52.42 1 .67 1.52l-.12 1.09a3.26 3.26 0 0 0-.83 1.32 4.38 4.38 0 0 1 1.35 2c0 2.35-4.41 3.87-6 5.44a4.47 4.47 0 0 1-1.06.83 4.38 4.38 0 0 0 1.18 3.51c2 .08 4-.92 5.88-.74 2.94.29 8.51 5 10.53 7.1l-.33.52a2.93 2.93 0 0 0-1.34.9c-.59 2.07 0 4.13 0 6.28 0 1.41-.59 3.4-.28 4.66 1.08 4.39 8.15 5.44 11.7 6.36 1.78.47 3.5 1.27 5.27 1.71l.52.54c-.73 2.83-5.32 13.41-4.44 15.34 1.31 1.4 3.39 2 4.38 3.48 1.38 2.1 1.52 4.81 3.14 6.82 1.24 1.55 3.19 1.75 4.58 3.15 1.1 1.09 2 4.54 2.81 6.08 1.87 3.71 5.77 6.32 7.62 10.13a8.68 8.68 0 0 1 .51 3.86c-.68 5.33 3.08 8.17 2.79 11.22-.19 2-1.78 4-1.85 6 0 1.6.77 3.05.57 4.85-.23 2-2.07 7.64-1.9 9l.45.73a5.16 5.16 0 0 1 3.07 1.35l.17.88c-.51.62-1.28.93-1.8 1.54-.46 1.34 2.1 6.93 1.29 9.23s-3.71 4-5.43 5.66c-.87.83-1.06 2.65-1.79 3.76-1.37.38-2.67 1-4 1.42-1.48 3.39-2.47 6.64-4.26 9.87-1.18 2.13-3.24 3.57-4.36 5.64-.69 1.26-1 2.69-1.63 4a35.5 35.5 0 0 1-4.64 5.73c-1.06 1.07-2.48 1.81-3.26 3.14-.07 1.41 1.21 3.31 1.41 4.93-.9.58-2 1.12-2.25 2.25-.36 1.45.77 12.26 1.46 13.63a4.93 4.93 0 0 0 2.18 2.24 12 12 0 0 0 2 .08c1.54-.36 8.91-7 10.91-7.79 1.54-.63 4.11-.1 4 2-2 1.21-3.84 3-5.89 4.05l-.32.71c1.25 2.47 3 1.88 4.81 3a2.78 2.78 0 0 1 .51 1.71 34.91 34.91 0 0 1-7.11 4.92c-2.52 1.22-5.23 1.83-7.46 3.6-1.15.9-1.62 2.68-3 3.13s-4 1.22-4.91 2.15c-1.35 1.31-2.07 4-3.54 5.37-2.31 2.23-6 2.69-8.18 5.11-1.58 1.51-3.71 3.39-4.7 5.21-1.08 2-1 4.79-2.3 6.63-.42.6-1.22 1-1.68 1.61s-.5.91-1 1.26a7.72 7.72 0 0 1-2.86.37c-4.58-.86-4.11-8.32-6.28-9.16l-.89.29c-2.6 4.37-6.91 3.64-7.62 5.47-.59 1.51 1.24 2.28 1.45 3.66a17.44 17.44 0 0 1-.5 5.12c1.37 3.25 1.19 1.78 3.86 2.86 1 1.76 1.56 3.48 2.47 5.21-.13 2.24-2.53 4.35-1.85 6.81 2.3 1.12 7.36-3 9.81-3.78 2.8-.91 3.68 1.81 6 2.24 3.09.6 9.49-2.77 11.78.29l.1 1c-.92 1.68-3.56 2-3.7 4a2.65 2.65 0 0 1 .68 1.52 3.72 3.72 0 0 0-1 1.25c.53 3.56.19 7.58 4.49 8.69 1.18.31 2.75 0 3.8.38a3.3 3.3 0 0 1 .68 1.61c1.63.62 4.18.19 5.43 1.16l.22.71c-.76 2.46-2.35 4-2.07 6.91.18 1.87 3.2 5.51 2.64 7a13.11 13.11 0 0 0-1.69 1.63c-1.1 1.67.06 5.17-3 5.82l-.9-.29a3.19 3.19 0 0 0-.95-1.15c-2.69-.42-5.72 1.62-7.61 3.31-.73 3 2.75 5.41.65 10-1.44 3.1-2.52 4.19-5.64 2.15H582l-.68.45c-.29.61-.85 1.53-.6 2.22 3.5 4.25 9.37 6 6.72 12.48"/><path class="path2805" d="M229.77 757.72a36.28 36.28 0 0 1-4.27 6.17c-6.9 9.14-13 14.37-22.69 20.26-3 1.8-5.7 4.05-8.68 5.82s-6.53.13-9.14 1.71c-3.91 2.38-10.8 11.31-15.41 10.77-3.37-3.52-5.09 3.67-10.15 2.51l-.61-.81a3.2 3.2 0 0 0-.17-2.34c-2-.24-3.88.94-5.83 1.16-3.29.35-9.64-.74-12.39-2.68-2.12-3.16-.32-9.17.06-12.64a4.85 4.85 0 0 0-2.73-1.8 13.45 13.45 0 0 0-2.19.64c-2.29-.44-3-2.11-5-2.79-2.94-1-6.69 0-9.47-1.35-2.4-1.15-3.5-4.81-6.27-5.47-6.19 1.78-11.57-5.3-14.85-3.57a11.56 11.56 0 0 0-1.85 2.77 9.64 9.64 0 0 1-2 .8c-4.79-1.75-4.29.68-7.5 1.8l-2.91-.36-.73.81c-.43 1.89.81 8.23.61 11.39l-.67.8c-1.36.29-2.84.57-4.21.8-4 .68-9.6 2.41-13.28-.16-2-1.4-3.48-3.53-5.43-5-1.53-1.19-4.46-2-5.33-3.84-.54-1.12-.14-2.51-.28-3.69-.18-1.57-1.41-2.45-1.85-3.86.3-1.11 1.27-2 1.12-3.21l-.45-1c-.86-.38-2.21-1-2.4-2.06l.1-1.16c7.88-8.46.81-11.08 1.75-17.2"/><path class="path2807" d="M587.46 949.75a16.15 16.15 0 0 1-2.19.26c-.72 0-1.49.47-2.24.45-2-.06-3.24-2.2-5.26-2.42s-9.33 3.13-12.78 2.8l-1-.83a6.85 6.85 0 0 0 0-3.86 6.76 6.76 0 0 0-1.85-.17c-1.06 1.47-4.59 3.82-6.44 3.13a4.37 4.37 0 0 1-.51-2.15l-1-.36c-1.88.9-4.59 3.34-6.67 3.15-2.3-1.73-1.92-4.43-5.66-4.4a3.92 3.92 0 0 1-1.51-2.77l-.78-.73c-2.45.19-3.5 3.65-5 5.25-.51.55-1.05 1.07-1.52 1.66L532 949l-1.12-.45-.61-.88c-3.39-.51-3.29 2.1-6 1.87l-1.35-.89c.53-2.39 2.48-4.6 2.74-6.9.22-1.93-1.68-3.4-1.57-5.39a7.36 7.36 0 0 0 .85-2.32c-3.77-2.71-8.94-3.37-11-8.07-1.74-3.91-2.47-6.07-1.35-10.39 1.72-.6 1.71-3 1.91-4.5a10.66 10.66 0 0 1 6.78-1.7c.41-1.68 1.8-2.36 2.53-3.77s.66-3.19 1.34-4.65c.22-.47.06-.29.45-.57l.56-.41c5.74 1.53 5.55-5.29 8.46-9.52 1.32-1.9 3.13-3.79 1.68-6.18l-1.11-.45c-1.77.79-3.74 3.1-5.79 1.16-1.9-5.06 6.24-7.24 8.14-10.39.09-.15 1.57-4.74 1.57-5.11A16.13 16.13 0 0 1 539 867c.21-1.4 1-2.5 1.07-4l-.45-.9c-1.39-.86-2.85-1.51-2.31-3.48 2.65-3.11 1.23-4.83 2.41-6.56 1.14 0 2.14.85 3 1.45l1.17-.19a3.82 3.82 0 0 0 1.24-1.87c.18-.79 0-1.78.1-2.61.16-1 .77-1.93.92-2.94l.15-1a7.59 7.59 0 0 0-1.07-3.67l.73-.8c2.1-.56 6.46 1.95 7.17-2.16l-.28-1.08c-1.07-1.29-4.27-1.16-5-3.93 0-3.78 6.06-5 7.7-9.13a2.29 2.29 0 0 0 .2-1.55 8.29 8.29 0 0 0-1.95-2.42c-1-1.09-1.8-2.58-3.48-2.69-2.47.79-4.64 2.22-7.24 2.51a14.89 14.89 0 0 1-2.08-2.28c-1.87-3.34 1.86-4.15-5.49-7.62-3.77-1.79-4.65.55-7.73 1.16-1.27.25-2.76-.29-4-.19-1.51.11-3 1.14-4.61.8-4.59-1-2.28-4.38-5.71-6.18-2.84-1.49-16.13-5.26-17.27-6.72-.69-1.94-.05-6 0-8.26.13-3.48-.4-6.53-3.38-8.69a13.28 13.28 0 0 1-2.52-2c-.66-.75-1.15-1.93-1.85-2.6-1.45-1.39-5.18-1.9-7.07-1.25-1.27 1.15-2 3.17-3.64 4a50.73 50.73 0 0 1-5.05 1.87c-1.11.32-2.45 0-3.52.54s-1.73 2.14-2.81 2.68a4.89 4.89 0 0 1-3.43.14c-2.11-.61-4.36-1.71-6.36-1.92-3.36-.35-3.79 2.87-6.68 3.32-4.9.75-7.95-1.68-11.65-1.54-1.55.06-2.9.81-4.37 1.18a5.22 5.22 0 0 1-4.54-.54l-.46-1c.33-2.52 3.15-11.37 2.42-13-1.37-1.68-3.75-1.58-5.36-2.65-5.13-3.4-7.07 3.26-13.52-.66-2.19-1.33-1.42-6-2.19-8.24-2-5.68-11.59-12.42-11.38-17.69.17-4.41 5.4-7.15 5.6-11.64-1-2.13-4.58-11-6.27-11.84-1.26-.65-2.51.11-3.86-.26-2.2-1.59-1.25-3.39-2.59-4.59l-1.17-.16c-6.91 4.94-2.69 7.13-5.27 13.18-1.44 3.4-9.54 10.31-12.56 12.9-.75.65-1.29 1.85-2.23 2.25-.22.09-1 .2-1.24.26-2.69-.64-4.24-5.2-8.13-5.63a45.5 45.5 0 0 0-7.39.52c-3.44.56-12.73 3.38-14.84-1a25.06 25.06 0 0 1 .32-4.15l.74-.8c1.11.42 2.31 0 3.47.54 2.57 1.14 4.49 3.42 7.61 3.22a26.79 26.79 0 0 1-1.39-2.86c-.49-1.71-.31-7.35.84-8.69.45-.52 1.12-.86 1.57-1.44.18-1-.24-1.57-.28-2.42 0-1.33.86-2.59.44-3.95-1.6-.86-2.67-2.42-4-3.58-3.15-2.79-9.66-5.22-13.11-2.15-1.1 1-1.5 2.66-2.63 3.5s-2.55 1.1-3.7 2c-.89 1-1.81 2.5-2.86 3.12-.58.35-1.44.51-2 .9-1.87 1.41-2 4.15-3.48 5.85-.92 1.06-3 1.28-3.64 2.67l-.34.71c.46 1 .21 2.36.9 3.24l-.34 1c-1.64.2-4.12 1.69-5.37 1.53-3.53-1.82-2.85-.68-5.5-1.35a41.5 41.5 0 0 1-4.14-1.74 7 7 0 0 0-1.69-.5c-2.33-.16-7.33 3.59-9.41 2.43a10.17 10.17 0 0 1-.78-8.35c.28-.7.8-1.31 1.06-2.06.43-1.23 1.74-6.69 1.23-7.69l-.78-.74c-.36-.11-8 1-9.41 1.1a11.26 11.26 0 0 0-2.47.26c-1.27.36-2.13 1.83-3.3 2.51-4.29 2.47-9 3.85-13.42 6a4.11 4.11 0 0 0-2 1.4l.46 1a3.46 3.46 0 0 1 2.68 3.15c-.5 2.26-3.13 3.85-2.58 6.63.45 2.27 3.11 4 4.27 6 .71 1.21 1.14 2.66 1.84 3.86.49.82 1.52 1.6 1.91 2.41a7.87 7.87 0 0 1 .28 1.16c-1.11 1.23-.59 3.28-2 4.31-2.79 2.1-13.59 1.52-16.37-.16-1.15-.71-1.34-2.72-1.67-4-1.54-1.76-15.52-1.06-18.12-.48"/><path class="polygon2809" d="m374.58 731.83-7.25-1.68 1.69-7.98 11.36 1.45-5.8 8.21z"/></g></g><circle cx="258.76" cy="562.84" r="14.2" stroke="#fff" stroke-miterlimit="10" stroke-width="0.25" class="pallino"/></svg>